<?xml version="1.0" encoding="UTF-8" standalone="no"?>
<svg
   xmlns:dc="http://purl.org/dc/elements/1.1/"
   xmlns:cc="http://creativecommons.org/ns#"
   xmlns:rdf="http://www.w3.org/1999/02/22-rdf-syntax-ns#"
   xmlns:svg="http://www.w3.org/2000/svg"
   xmlns="http://www.w3.org/2000/svg"
   xmlns:sodipodi="http://sodipodi.sourceforge.net/DTD/sodipodi-0.dtd"
   xmlns:inkscape="http://www.inkscape.org/namespaces/inkscape"
   preserveAspectRatio="none"
   width="4500"
   height="3200"
   version="1.1"
   id="svg10307"
   sodipodi:docname="landscape.svg"
   inkscape:version="0.92.4 (5da689c313, 2019-01-14)">
  <defs
     id="defs10929" />
  <metadata
     id="metadata10311">
    <rdf:RDF>
      <cc:Work
         rdf:about="">
        <dc:format>image/svg+xml</dc:format>
        <dc:type
           rdf:resource="http://purl.org/dc/dcmitype/StillImage" />
        <dc:title />
      </cc:Work>
    </rdf:RDF>
  </metadata>
  <sodipodi:namedview
     pagecolor="#ffffff"
     bordercolor="#666666"
     borderopacity="1"
     objecttolerance="10"
     gridtolerance="10"
     guidetolerance="10"
     inkscape:pageopacity="0"
     inkscape:pageshadow="2"
     inkscape:window-width="1920"
     inkscape:window-height="1017"
     id="namedview10309"
     showgrid="false"
     inkscape:zoom="0.2085965"
     inkscape:cx="2617.5524"
     inkscape:cy="2734.5472"
     inkscape:window-x="0"
     inkscape:window-y="0"
     inkscape:window-maximized="1"
     inkscape:current-layer="svg10307" />
  <g
     id="bg-2"
     inkscape:label="#g10940">
    <path
       id="a"
       d="M 1976,-1023 H 952 V 1 h 1024 z"
       inkscape:connector-curvature="0"
       style="fill:#d5edf7" />
    <path
       id="b"
       d="m 1976,-596.7 q -0.4,-15.75 -11.6,-26.95 -10,-10 -23.5,-11.4 -2.15,-3.1 -4.95,-5.9 -11.65,-11.65 -28,-11.65 -7,0 -13.1,2.15 -8.2,2.8 -14.85,9.5 -9.3,9.25 -11.15,21.65 -10.65,1.3 -20.15,5.1 -2.35,-6.15 -7.7,-11.05 -9.5,-8.9 -23.1,-8.9 -13.55,0 -23.15,8.9 -1.4,1.35 -2.65,2.8 -23.75,-20.7 -56.8,-20.7 -6.7,0 -13.05,0.9 -0.5,-0.5 -1,-0.95 -9.5,-8.95 -23.1,-8.95 -7.7,0 -14.2,3 h -0.05 q 0,-0.25 0.05,-0.5 0.1,-1.05 0.1,-2.05 v -0.75 -1.05 q -0.4,-11.95 -9.6,-20.5 -9.55,-8.9 -23.1,-8.9 -3,0 -5.7,0.45 -2.25,-7.1 -8.3,-12.7 -9.55,-8.9 -23.1,-8.9 -13.55,0 -23.1,8.9 -6.55,6.1 -8.65,13.95 -21.2,4.05 -37.85,18.1 -8.5,-6.2 -19.85,-6.2 -13.55,0 -23.15,8.9 -6.95,6.5 -8.85,15.05 -8.45,-1.65 -17.6,-1.65 -2.9,0 -5.8,0.2 -2.1,-7.7 -8.55,-13.75 -9.5,-8.9 -23.1,-8.9 -13.55,0 -23.15,8.9 -0.35,0.4 -0.6,0.7 -5.3,-8.3 -13.1,-15.6 -24.45,-22.75 -59,-22.8 -2.35,-5.35 -7.05,-9.7 -9.55,-8.9 -23.15,-8.9 -4.6,0 -8.6,1 -0.9,-11 -9.55,-19 -9.55,-8.9 -23.1,-8.9 -9.7,0 -17.2,4.5 -16.7,-7.7 -36.8,-7.7 -34.7,0 -59.15,22.8 -11.35,10.55 -17.4,23.1 -3.4,-0.65 -7.15,-0.65 -13.45,0 -23.1,8.85 -9,8.4 -9.45,20.25 -0.05,0.6 -0.05,1.3 0,1.3 0.1,2.6 0.45,5.4 2.8,10.2 -1.65,3.45 -2.4,7.3 -12.55,5.55 -23.2,15.5 -4.5,4.2 -8.2,8.8 -7.65,-4.55 -17.4,-4.55 -13.55,0 -23.05,8.9 -7.15,6.6 -8.95,15.25 h -1.6 q -19.5,0 -35.75,7.3 -6.9,-3.45 -15.2,-3.45 -8.45,0 -15.3,3.5 v 251.85 h 1024 z"
       inkscape:connector-curvature="0"
       style="fill:#e6f4fa" />
    <path
       id="c"
       d="m 1976,-301 v -169.55 l -42.8,41.45 -144.6,-140.05 q -13.9,-11.6 -25.2,0 l -128.9,124.8 -44,-42.55 q -10.75,-9.15 -18.95,0 l -47.75,46.2 -66,-63.9 q -9.55,-8.5 -17.75,0 l -49.65,48.1 -130.2,-126.1 q -11.1,-11.05 -22.35,0 l -112.3,112.05 -50.3,-48.7 q -8.8,-8.85 -17.6,0 l -77.95,75.5 -27.7,-26.8 V -301 Z"
       inkscape:connector-curvature="0"
       style="fill:#d5edf7" />
    <path
       id="d"
       d="m 1433.1,-361.95 q -56.45,26.65 -119.5,27.1 -62.95,0.55 -121.85,-20.85 -57.1,-20.9 -116.45,-34.9 -62.05,-14.5 -123.25,2.3 V 1 H 1976 v -389.3 q -34.9,12.4 -68.55,27.8 -58.95,27 -120.55,4.25 -57.1,-21.15 -115.4,-38.6 -59.85,-17.85 -121.25,-5.75 -61.3,12.1 -117.15,38.65 z"
       inkscape:connector-curvature="0"
       style="fill:#b6d9e7" />
  </g>
  <g
     id="bg-3"
     inkscape:label="#g10946">
    <path
       id="e"
       d="M 3040,1 V -1023 H 2016 V 1 Z"
       inkscape:connector-curvature="0"
       style="fill:#d5edf7" />
    <path
       id="f"
       d="m 3004.9,-555.05 q -2.15,-3.1 -4.95,-5.9 -11.65,-11.65 -28,-11.65 -7,0 -13.1,2.15 -8.2,2.8 -14.85,9.5 -9.3,9.25 -11.15,21.65 -10.65,1.3 -20.15,5.1 -2.35,-6.15 -7.7,-11.05 -9.5,-8.9 -23.1,-8.9 -13.55,0 -23.15,8.9 -1.4,1.35 -2.65,2.8 -23.75,-20.7 -56.8,-20.7 -6.7,0 -13.05,0.9 -0.5,-0.5 -1,-0.95 -9.5,-8.95 -23.1,-8.95 -7.7,0 -14.2,3 h -0.05 q 0,-0.25 0.05,-0.5 0.1,-1.05 0.1,-2.05 v -0.75 -1.05 q -0.4,-11.95 -9.6,-20.5 -9.55,-8.9 -23.1,-8.9 -3,0 -5.7,0.45 -2.25,-7.1 -8.3,-12.7 -9.55,-8.9 -23.1,-8.9 -13.55,0 -23.1,8.9 -6.55,6.1 -8.65,13.95 -21.2,4.05 -37.85,18.1 -8.5,-6.2 -19.85,-6.2 -13.55,0 -23.15,8.9 -6.95,6.5 -8.85,15.05 -8.45,-1.65 -17.6,-1.65 -2.9,0 -5.8,0.2 -2.1,-7.7 -8.55,-13.75 -9.5,-8.9 -23.1,-8.9 -13.55,0 -23.15,8.9 -0.35,0.4 -0.6,0.7 -5.3,-8.3 -13.1,-15.6 -24.45,-22.75 -59,-22.8 -2.35,-5.35 -7.05,-9.7 -9.55,-8.9 -23.15,-8.9 -4.6,0 -8.6,1 -0.9,-11 -9.55,-19 -9.55,-8.9 -23.1,-8.9 -9.7,0 -17.2,4.5 -16.7,-7.7 -36.8,-7.7 -34.7,0 -59.15,22.8 -11.35,10.55 -17.4,23.1 -3.4,-0.65 -7.15,-0.65 -13.45,0 -23.1,8.85 -9,8.4 -9.45,20.25 -0.05,0.6 -0.05,1.3 0,1.3 0.1,2.6 0.45,5.4 2.8,10.2 -1.65,3.45 -2.4,7.3 -12.55,5.55 -23.2,15.5 -4.5,4.2 -8.2,8.8 -7.65,-4.55 -17.4,-4.55 -13.55,0 -23.05,8.9 -7.15,6.6 -8.95,15.25 h -1.6 q -19.5,0 -35.75,7.3 -6.9,-3.45 -15.2,-3.45 -8.45,0 -15.3,3.5 v 251.85 h 1024 v -248.6 q -0.4,-15.75 -11.6,-26.95 -10,-10 -23.5,-11.4 z"
       inkscape:connector-curvature="0"
       style="fill:#e6f4fa" />
    <path
       id="g"
       d="m 3039.95,-424.3 q -61.2,-16.8 -123.25,-2.3 -59.35,14 -116.45,34.9 -58.9,21.4 -121.85,20.85 -63.05,-0.45 -119.5,-27.1 -55.85,-26.55 -117.15,-38.65 -61.4,-12.1 -121.25,5.75 -58.3,17.45 -115.4,38.6 -61.6,22.75 -120.55,-4.25 -33.65,-15.4 -68.55,-27.8 V -35 h 1023.95 z"
       inkscape:connector-curvature="0"
       style="fill:#d5edf7" />
    <path
       id="h"
       d="m 2850.9,-356.25 q -57.1,-21.15 -115.4,-38.6 -59.85,-17.85 -121.25,-5.75 -61.3,12.1 -117.15,38.65 -56.45,26.65 -119.5,27.1 -62.95,0.55 -121.85,-20.85 -57.1,-20.9 -116.45,-34.9 -62.05,-14.5 -123.25,2.3 V 1 H 3040 v -389.3 q -34.9,12.4 -68.55,27.8 -58.95,27 -120.55,4.25 z"
       inkscape:connector-curvature="0"
       style="fill:#b6d9e7" />
  </g>
  <g
     id="bg-4"
     inkscape:label="#g10952">
    <path
       id="i"
       d="M 4104,-1023 H 3080 V 1 h 1024 z"
       inkscape:connector-curvature="0"
       style="fill:#d5edf7" />
    <path
       id="j"
       d="m 4068.9,-635.05 q -2.15,-3.1 -4.95,-5.9 -11.65,-11.65 -28,-11.65 -7,0 -13.1,2.15 -8.2,2.8 -14.85,9.5 -9.3,9.25 -11.15,21.65 -10.65,1.3 -20.15,5.1 -2.35,-6.15 -7.7,-11.05 -9.5,-8.9 -23.1,-8.9 -13.55,0 -23.15,8.9 -1.4,1.35 -2.65,2.8 -23.75,-20.7 -56.8,-20.7 -6.7,0 -13.05,0.9 -0.5,-0.5 -1,-0.95 -9.5,-8.95 -23.1,-8.95 -7.7,0 -14.2,3 h -0.05 q 0,-0.25 0.05,-0.5 0.1,-1.05 0.1,-2.05 v -0.75 -1.05 q -0.4,-11.95 -9.6,-20.5 -9.55,-8.9 -23.1,-8.9 -3,0 -5.7,0.45 -2.25,-7.1 -8.3,-12.7 -9.55,-8.9 -23.1,-8.9 -13.55,0 -23.1,8.9 -6.55,6.1 -8.65,13.95 -21.2,4.05 -37.85,18.1 -8.5,-6.2 -19.85,-6.2 -13.55,0 -23.15,8.9 -6.95,6.5 -8.85,15.05 -8.45,-1.65 -17.6,-1.65 -2.9,0 -5.8,0.2 -2.1,-7.7 -8.55,-13.75 -9.5,-8.9 -23.1,-8.9 -13.55,0 -23.15,8.9 -0.35,0.4 -0.6,0.7 -5.3,-8.3 -13.1,-15.6 -24.45,-22.75 -59,-22.8 -2.35,-5.35 -7.05,-9.7 -9.55,-8.9 -23.15,-8.9 -4.6,0 -8.6,1 -0.9,-11 -9.55,-19 -9.55,-8.9 -23.1,-8.9 -9.7,0 -17.2,4.5 -16.7,-7.7 -36.8,-7.7 -34.7,0 -59.15,22.8 -11.35,10.55 -17.4,23.1 -3.4,-0.65 -7.15,-0.65 -13.45,0 -23.1,8.85 -9,8.4 -9.45,20.25 -0.05,0.6 -0.05,1.3 0,1.3 0.1,2.6 0.45,5.4 2.8,10.2 -1.65,3.45 -2.4,7.3 -12.55,5.55 -23.2,15.5 -4.5,4.2 -8.2,8.8 -7.65,-4.55 -17.4,-4.55 -13.55,0 -23.05,8.9 -7.15,6.6 -8.95,15.25 h -1.6 q -19.5,0 -35.75,7.3 -6.9,-3.45 -15.2,-3.45 -8.45,0 -15.3,3.5 v 291.85 h 1024 v -288.6 q -0.4,-15.75 -11.6,-26.95 -10,-10 -23.5,-11.4 z"
       inkscape:connector-curvature="0"
       style="fill:#e6f4fa" />
    <path
       id="k"
       d="m 3261.9,-409.3 -16.65,-1.8 -32.2,61.05 197.7,21.55 -38.4,-121.35 -11.3,-1.2 -12.2,-97.95 -35.05,-3.8 -51.9,143.5 m 426,-121.85 h -13.05 l -15.35,85.8 h -17 l -7.15,38.25 -25.85,-78.85 -36.7,3.85 -11.25,61.7 -15.8,1.65 -11.4,109.2 84.3,-8.85 -0.05,0.3 h 170.25 l -22.55,-67.6 H 3747 l -17.05,-207.9 h -28.45 l -13.6,62.45 m 309.6,84.2 -36.7,3.85 -11.25,61.7 -15.8,1.65 -11.4,109.2 171.75,-18.05 -41.8,-33.9 -13.55,1.45 z"
       inkscape:connector-curvature="0"
       style="fill:#d5edf7" />
    <path
       id="l"
       d="m 4035.45,-360.5 q -58.95,27 -120.55,4.25 -57.1,-21.15 -115.4,-38.6 -59.85,-17.85 -121.25,-5.75 -61.3,12.1 -117.15,38.65 -56.45,26.65 -119.5,27.1 -62.95,0.55 -121.85,-20.85 -57.1,-20.9 -116.45,-34.9 -62.05,-14.5 -123.25,2.3 V 1 H 4104 v -389.3 q -34.9,12.4 -68.55,27.8 z"
       inkscape:connector-curvature="0"
       style="fill:#b6d9e7" />
  </g>
  <g
     id="bg-5"
     inkscape:label="#g10957">
    <path
       id="Q"
       d="M 912,1065 V 41 H -112 v 1024 z"
       inkscape:connector-curvature="0"
       style="fill:#d5edf7" />
    <path
       id="R"
       d="m 830.85,533.55 q -8.2,2.8 -14.85,9.5 -9.3,9.25 -11.15,21.65 -10.65,1.3 -20.15,5.1 -2.35,-6.15 -7.7,-11.05 -9.5,-8.9 -23.1,-8.9 -13.55,0 -23.15,8.9 -1.4,1.35 -2.65,2.8 -23.75,-20.7 -56.8,-20.7 -6.7,0 -13.05,0.9 -0.5,-0.5 -1,-0.95 -9.5,-8.95 -23.1,-8.95 -7.7,0 -14.2,3 h -0.05 q 0,-0.25 0.05,-0.5 0.1,-1.05 0.1,-2.05 v -0.75 -1.05 q -0.4,-11.95 -9.6,-20.5 -9.55,-8.9 -23.1,-8.9 -3,0 -5.7,0.45 -2.25,-7.1 -8.3,-12.7 -9.55,-8.9 -23.1,-8.9 -13.55,0 -23.1,8.9 -6.55,6.1 -8.65,13.95 -21.2,4.05 -37.85,18.1 -8.5,-6.2 -19.85,-6.2 -13.55,0 -23.15,8.9 -6.95,6.5 -8.85,15.05 -8.45,-1.65 -17.6,-1.65 -2.9,0 -5.8,0.2 -2.1,-7.7 -8.55,-13.75 -9.5,-8.9 -23.1,-8.9 -13.55,0 -23.15,8.9 -0.35,0.4 -0.6,0.7 -5.3,-8.3 -13.1,-15.6 -24.45,-22.75 -59,-22.8 -2.35,-5.35 -7.05,-9.7 -9.55,-8.9 -23.15,-8.9 -4.6,0 -8.6,1 -0.9,-11 -9.55,-19 -9.55,-8.9 -23.1,-8.9 -9.7,0 -17.2,4.5 -16.7,-7.7 -36.8,-7.7 -34.7,0 -59.15,22.8 -11.35,10.55 -17.4,23.1 -3.4,-0.65 -7.15,-0.65 -13.45,0 -23.1,8.85 -9,8.4 -9.45,20.25 -0.05,0.6 -0.05,1.3 0,1.3 0.1,2.6 0.45,5.4 2.8,10.2 -1.65,3.45 -2.4,7.3 -12.55,5.55 -23.2,15.5 -4.5,4.2 -8.2,8.8 -7.65,-4.55 -17.4,-4.55 -13.55,0 -23.05,8.9 -7.15,6.6 -8.95,15.25 h -1.6 q -19.5,0 -35.75,7.3 -6.9,-3.45 -15.2,-3.45 -8.45,0 -15.3,3.5 V 835.9 H 912 V 587.3 q -0.4,-15.75 -11.6,-26.95 -10,-10 -23.5,-11.4 -2.15,-3.1 -4.95,-5.9 -11.65,-11.65 -28,-11.65 -7,0 -13.1,2.15 z"
       inkscape:connector-curvature="0"
       style="fill:#e6f4fa" />
    <path
       id="S"
       d="m 774.45,632 6.1,0.3 -17,-47.2 -21.5,45.6 6.85,0.3 -18.1,35.7 6.05,1.2 -14.65,38.3 25.8,0.45 -1.5,8 q -11.75,-2.55 -23.6,-6.9 -57.1,-21.15 -115.4,-38.6 -59.85,-17.85 -121.25,-5.75 -10.25,2 -20.3,4.45 l -2.65,-21.3 46.25,-5.25 -21.65,-47.75 7.9,0.55 -23.15,-70.65 9.85,-0.85 -37.15,-72 -24.75,77.5 10.95,-0.95 -21.5,61 9.95,0.65 -15.45,64.45 41.4,-4.7 -1.45,24.95 q -38.85,11.2 -75.4,28.55 -23.7,11.2 -48.6,17.8 l -1.65,-13.2 28.65,-3.25 -13.4,-29.55 4.85,0.35 -14.3,-43.75 6.1,-0.5 -23,-44.6 -15.35,48 6.8,-0.6 -13.3,37.75 6.15,0.4 -9.55,39.9 25.6,-2.9 -0.85,15.1 q -28.1,5.95 -57.65,6.15 Q 186.65,729.7 127.75,708.3 77.8,690 26.1,677 l 0.95,-25.45 46.45,2.15 -13.7,-50.55 7.7,1.8 -11.55,-73.45 9.85,0.75 -25.2,-77.05 -36.8,72.55 10.95,0.85 -30.95,56.8 9.7,2.2 -25.55,61.15 41.65,2 L 4.9,672 q -58.8,-12.25 -116.85,3.7 V 1065 H 912 V 675.7 q -34.9,12.4 -68.55,27.8 -41.7,19.1 -84.7,13.3 l 0.05,-10 28.8,0.5 -9.45,-31.05 4.75,1 z"
       inkscape:connector-curvature="0"
       style="fill:#b6d9e7" />
  </g>
  <g
     id="bg-8"
     inkscape:label="#g10992">
    <path
       id="m"
       d="M 4104,1065 V 41 H 3080 v 1024 z"
       inkscape:connector-curvature="0"
       style="fill:#d5edf7" />
    <path
       id="n"
       d="m 4068.9,428.95 q -2.15,-3.1 -4.95,-5.9 -11.65,-11.65 -28,-11.65 -7,0 -13.1,2.15 -8.2,2.8 -14.85,9.5 -9.3,9.25 -11.15,21.65 -10.65,1.3 -20.15,5.1 -2.35,-6.15 -7.7,-11.05 -9.5,-8.9 -23.1,-8.9 -13.55,0 -23.15,8.9 -1.4,1.35 -2.65,2.8 -23.75,-20.7 -56.8,-20.7 -6.7,0 -13.05,0.9 -0.5,-0.5 -1,-0.95 -9.5,-8.95 -23.1,-8.95 -7.7,0 -14.2,3 h -0.05 q 0,-0.25 0.05,-0.5 0.1,-1.05 0.1,-2.05 v -0.75 -1.05 q -0.4,-11.95 -9.6,-20.5 -9.55,-8.9 -23.1,-8.9 -3,0 -5.7,0.45 -2.25,-7.1 -8.3,-12.7 -9.55,-8.9 -23.1,-8.9 -13.55,0 -23.1,8.9 -6.55,6.1 -8.65,13.95 -21.2,4.05 -37.85,18.1 -8.5,-6.2 -19.85,-6.2 -13.55,0 -23.15,8.9 -6.95,6.5 -8.85,15.05 -8.45,-1.65 -17.6,-1.65 -2.9,0 -5.8,0.2 -2.1,-7.7 -8.55,-13.75 -9.5,-8.9 -23.1,-8.9 -13.55,0 -23.15,8.9 -0.35,0.4 -0.6,0.7 -5.3,-8.3 -13.1,-15.6 -24.45,-22.75 -59,-22.8 -2.35,-5.35 -7.05,-9.7 -9.55,-8.9 -23.15,-8.9 -4.6,0 -8.6,1 -0.9,-11 -9.55,-19 -9.55,-8.9 -23.1,-8.9 -9.7,0 -17.2,4.5 -16.7,-7.7 -36.8,-7.7 -34.7,0 -59.15,22.8 -11.35,10.55 -17.4,23.1 -3.4,-0.65 -7.15,-0.65 -13.45,0 -23.1,8.85 -9,8.4 -9.45,20.25 -0.05,0.6 -0.05,1.3 0,1.3 0.1,2.6 0.45,5.4 2.8,10.2 -1.65,3.45 -2.4,7.3 -12.55,5.55 -23.2,15.5 -4.5,4.2 -8.2,8.8 -7.65,-4.55 -17.4,-4.55 -13.55,0 -23.05,8.9 -7.15,6.6 -8.95,15.25 h -1.6 q -19.5,0 -35.75,7.3 -6.9,-3.45 -15.2,-3.45 -8.45,0 -15.3,3.5 V 755.9 H 4104 V 467.3 q -0.4,-15.75 -11.6,-26.95 -10,-10 -23.5,-11.4 z"
       inkscape:connector-curvature="0"
       style="fill:#e6f4fa" />
    <path
       id="o"
       d="m 3561.55,643.6 -15.8,1.65 -11.4,109.2 84.3,-8.85 -0.05,0.3 h 170.25 L 3766.3,678.3 H 3747 l -17.05,-207.9 h -28.45 l -13.6,62.45 h -13.05 l -15.35,85.8 h -17 l -7.15,38.25 -25.85,-78.85 -36.7,3.85 -11.25,61.7 m -212.7,-128.6 -35.05,-3.8 -51.9,143.5 -16.65,-1.8 -32.2,61.05 197.7,21.55 -38.4,-121.35 -11.3,-1.2 -12.2,-97.95 m 600.7,167.6 -15.8,1.65 -11.4,109.2 171.75,-18.05 -41.8,-33.9 -13.55,1.45 -41.25,-125.9 -36.7,3.85 z"
       inkscape:connector-curvature="0"
       style="fill:#d5edf7" />
    <path
       id="p"
       d="m 4035.45,703.5 q -58.95,27 -120.55,4.25 -57.1,-21.15 -115.4,-38.6 -59.85,-17.85 -121.25,-5.75 -61.3,12.1 -117.15,38.65 -56.45,26.65 -119.5,27.1 -62.95,0.55 -121.85,-20.85 -57.1,-20.9 -116.45,-34.9 -62.05,-14.5 -123.25,2.3 V 1065 H 4104 V 675.7 q -34.9,12.4 -68.55,27.8 z"
       inkscape:connector-curvature="0"
       style="fill:#b6d9e7" />
    <path
       id="q"
       d="m 3288,686.4 17.05,0.95 -2.35,21.95 h 14.65 l -2.15,-21.35 19.8,1.05 -25.85,-84.5 z"
       inkscape:connector-curvature="0"
       style="fill:#b6d9e7" />
    <path
       id="r"
       d="m 3149.25,671.3 -1.4,-14.05 13,0.7 -16.95,-55.45 -13.9,53.75 11.2,0.65 -1.55,14.4 z"
       inkscape:connector-curvature="0"
       style="fill:#b6d9e7" />
    <path
       id="s"
       d="m 3367.9,715.25 13,0.7 -16.95,-55.45 -13.9,53.75 11.2,0.65 -1.55,14.4 h 9.6 z"
       inkscape:connector-curvature="0"
       style="fill:#b6d9e7" />
    <path
       id="t"
       d="m 3949.85,721.3 h 9.6 l -1.4,-14.05 13,0.7 -16.95,-55.45 -13.9,53.75 11.2,0.65 z"
       inkscape:connector-curvature="0"
       style="fill:#b6d9e7" />
    <path
       id="u"
       d="m 4020.2,686.4 17.05,0.95 -2.35,21.95 h 14.65 l -2.15,-21.35 19.8,1.05 -25.85,-84.5 z"
       inkscape:connector-curvature="0"
       style="fill:#b6d9e7" />
    <path
       id="v"
       d="m 3953.95,590.8 q -3.4,-4.2 -7.2,-7.7 l -10.2,-75.6 -44.8,55.6 q -3,0 -6.25,0.3 -3.55,0.3 -7.2,0.8 l 7.15,28.8 -1.1,6.1 -26.6,-3.35 -4.35,17 -8.05,-0.8 -1.85,-18 -28.45,-3.6 -9,17.6 -8.15,-0.85 -3.25,-19.35 -21,-2.65 0.5,-6.15 14.1,-26.1 q -1.3,-0.55 -2.65,-1.05 -5.15,-2.05 -10.1,-3.4 l -29.65,-65 -28.65,70.7 q -4.5,2.5 -8.85,5.7 l 14.5,24.55 -1.6,92.75 -5.8,25.2 199.65,25.25 -2.8,-26.35 21.5,-90.25 z"
       inkscape:connector-curvature="0"
       style="fill:#b6d9e7" />
  </g>
  <g
     id="bg-1"
     inkscape:label="#g10934">
    <path
       id="N"
       d="M 912,-1023 H -112 V 1 H 912 Z"
       inkscape:connector-curvature="0"
       style="fill:#d5edf7" />
    <path
       id="O"
       d="m 753.9,-514.15 q -13.55,0 -23.15,8.9 -1.4,1.35 -2.65,2.8 -23.75,-20.7 -56.8,-20.7 -6.7,0 -13.05,0.9 -0.5,-0.5 -1,-0.95 -9.5,-8.95 -23.1,-8.95 -7.7,0 -14.2,3 h -0.05 q 0,-0.25 0.05,-0.5 0.1,-1.05 0.1,-2.05 v -0.75 -1.05 q -0.4,-11.95 -9.6,-20.5 -9.55,-8.9 -23.1,-8.9 -3,0 -5.7,0.45 -2.25,-7.1 -8.3,-12.7 -9.55,-8.9 -23.1,-8.9 -13.55,0 -23.1,8.9 -6.55,6.1 -8.65,13.95 -21.2,4.05 -37.85,18.1 -8.5,-6.2 -19.85,-6.2 -13.55,0 -23.15,8.9 -6.95,6.5 -8.85,15.05 -8.45,-1.65 -17.6,-1.65 -2.9,0 -5.8,0.2 -2.1,-7.7 -8.55,-13.75 -9.5,-8.9 -23.1,-8.9 -13.55,0 -23.15,8.9 -0.35,0.4 -0.6,0.7 -5.3,-8.3 -13.1,-15.6 -24.45,-22.75 -59,-22.8 -2.35,-5.35 -7.05,-9.7 -9.55,-8.9 -23.15,-8.9 -4.6,0 -8.6,1 -0.9,-11 -9.55,-19 -9.55,-8.9 -23.1,-8.9 -9.7,0 -17.2,4.5 -16.7,-7.7 -36.8,-7.7 -34.7,0 -59.15,22.8 -11.35,10.55 -17.4,23.1 -3.4,-0.65 -7.15,-0.65 -13.45,0 -23.1,8.85 -9,8.4 -9.45,20.25 -0.05,0.6 -0.05,1.3 0,1.3 0.1,2.6 0.45,5.4 2.8,10.2 -1.65,3.45 -2.4,7.3 -12.55,5.55 -23.2,15.5 -4.5,4.2 -8.2,8.8 -7.65,-4.55 -17.4,-4.55 -13.55,0 -23.05,8.9 -7.15,6.6 -8.95,15.25 h -1.6 q -19.5,0 -35.75,7.3 -6.9,-3.45 -15.2,-3.45 -8.45,0 -15.3,3.5 V -228.1 H 912 v -248.6 q -0.4,-15.75 -11.6,-26.95 -10,-10 -23.5,-11.4 -2.15,-3.1 -4.95,-5.9 -11.65,-11.65 -28,-11.65 -7,0 -13.1,2.15 -8.2,2.8 -14.85,9.5 -9.3,9.25 -11.15,21.65 -10.65,1.3 -20.15,5.1 -2.35,-6.15 -7.7,-11.05 -9.5,-8.9 -23.1,-8.9 z"
       inkscape:connector-curvature="0"
       style="fill:#e6f4fa" />
    <path
       id="P"
       d="m 912,-388.3 q -34.9,12.4 -68.55,27.8 -58.95,27 -120.55,4.25 -57.1,-21.15 -115.4,-38.6 -59.85,-17.85 -121.25,-5.75 -61.3,12.1 -117.15,38.65 -56.45,26.65 -119.5,27.1 -62.95,0.55 -121.85,-20.85 -57.1,-20.9 -116.45,-34.9 -62.05,-14.5 -123.25,2.3 V 1 H 912 Z"
       inkscape:connector-curvature="0"
       style="fill:#b6d9e7" />
  </g>
  <g
     id="bg-7"
     inkscape:label="#g10980">
    <path
       id="J"
       d="m 2144.25,575.4 q -3.75,3.75 -3.85,9 v 72.2 q 0.1,5.25 3.85,9 2.75,2.75 6.25,3.55 v 28.05 q 0,1.25 0.95,2.25 0.95,0.9 2.25,0.9 1.3,0 2.25,-0.9 0.9,-1 0.9,-2.25 v -28.1 q 3.4,-0.85 6.1,-3.5 3.75,-3.75 3.85,-9 v -72.2 q -0.1,-5.25 -3.85,-9 -3.85,-3.85 -9.35,-3.85 -5.5,0 -9.35,3.85 z"
       inkscape:connector-curvature="0"
       style="fill:#b6d9e7" />
    <path
       id="C"
       d="M 3040,1065 V 41 H 2016 v 1024 z"
       inkscape:connector-curvature="0"
       style="fill:#d5edf7" />
    <path
       id="D"
       d="m 2786.25,501.75 q -0.5,-0.5 -1,-0.95 -9.5,-8.95 -23.1,-8.95 -7.7,0 -14.2,3 h -0.05 q 0,-0.25 0.05,-0.5 0.1,-1.05 0.1,-2.05 v -0.75 -1.05 q -0.4,-11.95 -9.6,-20.5 -9.55,-8.9 -23.1,-8.9 -3,0 -5.7,0.45 -2.25,-7.1 -8.3,-12.7 -9.55,-8.9 -23.1,-8.9 -13.55,0 -23.1,8.9 -6.55,6.1 -8.65,13.95 -21.2,4.05 -37.85,18.1 -8.5,-6.2 -19.85,-6.2 -13.55,0 -23.15,8.9 -6.95,6.5 -8.85,15.05 -8.45,-1.65 -17.6,-1.65 -2.9,0 -5.8,0.2 -2.1,-7.7 -8.55,-13.75 -9.5,-8.9 -23.1,-8.9 -13.55,0 -23.15,8.9 -0.35,0.4 -0.6,0.7 -5.3,-8.3 -13.1,-15.6 -24.45,-22.75 -59,-22.8 -2.35,-5.35 -7.05,-9.7 -9.55,-8.9 -23.15,-8.9 -4.6,0 -8.6,1 -0.9,-11 -9.55,-19 -9.55,-8.9 -23.1,-8.9 -9.7,0 -17.2,4.5 -16.7,-7.7 -36.8,-7.7 -34.7,0 -59.15,22.8 -11.35,10.55 -17.4,23.1 -3.4,-0.65 -7.15,-0.65 -13.45,0 -23.1,8.85 -9,8.4 -9.45,20.25 -0.05,0.6 -0.05,1.3 0,1.3 0.1,2.6 0.45,5.4 2.8,10.2 -1.65,3.45 -2.4,7.3 -12.55,5.55 -23.2,15.5 -4.5,4.2 -8.2,8.8 -7.65,-4.55 -17.4,-4.55 -13.55,0 -23.05,8.9 -7.15,6.6 -8.95,15.25 h -1.6 q -19.5,0 -35.75,7.3 -6.9,-3.45 -15.2,-3.45 -8.45,0 -15.3,3.5 V 795.9 H 3040 V 547.3 q -0.4,-15.75 -11.6,-26.95 -10,-10 -23.5,-11.4 -2.15,-3.1 -4.95,-5.9 -11.65,-11.65 -28,-11.65 -7,0 -13.1,2.15 -8.2,2.8 -14.85,9.5 -9.3,9.25 -11.15,21.65 -10.65,1.3 -20.15,5.1 -2.35,-6.15 -7.7,-11.05 -9.5,-8.9 -23.1,-8.9 -13.55,0 -23.15,8.9 -1.4,1.35 -2.65,2.8 -23.75,-20.7 -56.8,-20.7 -6.7,0 -13.05,0.9 z"
       inkscape:connector-curvature="0"
       style="fill:#e6f4fa" />
    <path
       id="E"
       d="m 2800.25,672.3 q -58.9,21.4 -121.85,20.85 -63.05,-0.45 -119.5,-27.1 -55.85,-26.55 -117.15,-38.65 -61.4,-12.1 -121.25,5.75 -58.3,17.45 -115.4,38.6 -61.6,22.75 -120.55,-4.25 Q 2050.9,652.1 2016,639.7 V 1029 H 3039.95 V 639.7 q -61.2,-16.8 -123.25,-2.3 -59.35,14 -116.45,34.9 z"
       inkscape:connector-curvature="0"
       style="fill:#d5edf7" />
    <path
       id="F"
       d="m 2278,575 q -2.3,2.3 -2.4,5.5 v 44.2 q 0.1,3.2 2.4,5.5 1.65,1.6 3.7,2.15 v 17.2 q 0,0.75 0.55,1.35 0.6,0.55 1.4,0.55 0.8,0 1.35,-0.55 0.6,-0.6 0.6,-1.35 v -17.2 q 2.15,-0.45 3.8,-2.15 2.3,-2.3 2.35,-5.5 v -44.2 q -0.05,-3.2 -2.35,-5.5 -2.35,-2.35 -5.7,-2.35 -3.35,0 -5.7,2.35 m -17.55,13.55 q -3.35,0 -5.7,2.35 -2.3,2.3 -2.4,5.55 v 44.15 q 0.1,3.2 2.4,5.5 1.65,1.6 3.7,2.15 v 17.2 q 0,0.75 0.55,1.35 0.6,0.55 1.4,0.55 0.8,0 1.35,-0.55 0.6,-0.6 0.6,-1.35 V 648.3 q 2.15,-0.5 3.8,-2.2 2.3,-2.3 2.35,-5.5 v -44.15 q -0.05,-3.25 -2.35,-5.55 -2.35,-2.35 -5.7,-2.35 z"
       inkscape:connector-curvature="0"
       style="fill:#d5edf7" />
    <path
       id="G"
       d="m 2735.5,669.15 q -59.85,-17.85 -121.25,-5.75 -61.3,12.1 -117.15,38.65 -56.45,26.65 -119.5,27.1 -62.95,0.55 -121.85,-20.85 -57.1,-20.9 -116.45,-34.9 -62.05,-14.5 -123.25,2.3 V 1065 H 3040 V 675.7 q -34.9,12.4 -68.55,27.8 -58.95,27 -120.55,4.25 -57.1,-21.15 -115.4,-38.6 z"
       inkscape:connector-curvature="0"
       style="fill:#b6d9e7" />
    <path
       id="H"
       d="m 2701.75,437.4 q -0.25,-11.6 -8.5,-19.85 -8.55,-8.5 -20.6,-8.5 h -0.05 q -12.05,0 -20.55,8.5 -8.3,8.25 -8.55,19.85 v 159.2 q 0.2,11.65 8.55,19.95 6,6 13.75,7.8 v 61.8 q 0,2.85 2.1,4.95 2.05,2.05 4.95,2.05 2.9,0 4.95,-2.05 2.05,-2.1 2.05,-4.95 v -61.9 q 7.5,-1.85 13.4,-7.7 8.3,-8.3 8.5,-19.95 z"
       inkscape:connector-curvature="0"
       style="fill:#b6d9e7" />
    <path
       id="I"
       d="m 2766.95,523.05 q -0.15,-8.45 -6.2,-14.45 -6.2,-6.2 -15,-6.2 -8.8,0 -15,6.2 -6.05,6 -6.2,14.45 V 639 q 0.15,8.45 6.2,14.5 4.4,4.4 10.05,5.7 v 45 q 0,2.05 1.5,3.6 1.5,1.5 3.6,1.5 2.1,0 3.6,-1.5 1.5,-1.55 1.5,-3.6 v -45.1 q 5.45,-1.35 9.75,-5.6 6.05,-6.05 6.2,-14.5 z"
       inkscape:connector-curvature="0"
       style="fill:#b6d9e7" />
    <path
       id="K"
       d="m 2115.6,545.55 q -5.5,0 -9.35,3.85 -3.75,3.75 -3.85,9 v 72.2 q 0.1,5.25 3.85,9 2.75,2.75 6.25,3.55 v 28.05 q 0,1.25 0.95,2.25 0.95,0.9 2.25,0.9 1.3,0 2.25,-0.9 0.9,-1 0.9,-2.25 v -28.1 q 3.4,-0.85 6.1,-3.5 3.75,-3.75 3.85,-9 v -72.2 q -0.1,-5.25 -3.85,-9 -3.85,-3.85 -9.35,-3.85 z"
       inkscape:connector-curvature="0"
       style="fill:#b6d9e7" />
    <path
       id="L"
       d="m 2528.45,666.4 -9.65,13.6 -13.85,-4.9 6.15,15.9 -8.85,2.4 10.55,6.95 h 19.1 l 7.25,-15.3 -8.8,-1.75 z"
       inkscape:connector-curvature="0"
       style="fill:#b6d9e7" />
    <path
       id="M"
       d="m 2086.3,672.35 7.25,-15.3 -8.8,-1.75 -1.9,-16.9 -9.65,13.6 -13.85,-4.9 6.15,15.9 -8.85,2.4 10.55,6.95 z"
       inkscape:connector-curvature="0"
       style="fill:#b6d9e7" />
  </g>
  <g
     id="bg-6"
     inkscape:label="#g10967">
    <path
       id="w"
       d="M 1976,1065 V 41 H 952 v 1024 z"
       inkscape:connector-curvature="0"
       style="fill:#d5edf7" />
    <path
       id="x"
       d="m 1976,467.3 q -0.4,-15.75 -11.6,-26.95 -10,-10 -23.5,-11.4 -2.15,-3.1 -4.95,-5.9 -11.65,-11.65 -28,-11.65 -7,0 -13.1,2.15 -8.2,2.8 -14.85,9.5 -9.3,9.25 -11.15,21.65 -10.65,1.3 -20.15,5.1 -2.35,-6.15 -7.7,-11.05 -9.5,-8.9 -23.1,-8.9 -13.55,0 -23.15,8.9 -1.4,1.35 -2.65,2.8 -23.75,-20.7 -56.8,-20.7 -6.7,0 -13.05,0.9 -0.5,-0.5 -1,-0.95 -9.5,-8.95 -23.1,-8.95 -7.7,0 -14.2,3 h -0.05 q 0,-0.25 0.05,-0.5 0.1,-1.05 0.1,-2.05 v -0.75 -1.05 q -0.4,-11.95 -9.6,-20.5 -9.55,-8.9 -23.1,-8.9 -3,0 -5.7,0.45 -2.25,-7.1 -8.3,-12.7 -9.55,-8.9 -23.1,-8.9 -13.55,0 -23.1,8.9 -6.55,6.1 -8.65,13.95 -21.2,4.05 -37.85,18.1 -8.5,-6.2 -19.85,-6.2 -13.55,0 -23.15,8.9 -6.95,6.5 -8.85,15.05 -8.45,-1.65 -17.6,-1.65 -2.9,0 -5.8,0.2 -2.1,-7.7 -8.55,-13.75 -9.5,-8.9 -23.1,-8.9 -13.55,0 -23.15,8.9 -0.35,0.4 -0.6,0.7 -5.3,-8.3 -13.1,-15.6 -24.45,-22.75 -59,-22.8 -2.35,-5.35 -7.05,-9.7 -9.55,-8.9 -23.15,-8.9 -4.6,0 -8.6,1 -0.9,-11 -9.55,-19 -9.55,-8.9 -23.1,-8.9 -9.7,0 -17.2,4.5 -16.7,-7.7 -36.8,-7.7 -34.7,0 -59.15,22.8 -11.35,10.55 -17.4,23.1 -3.4,-0.65 -7.15,-0.65 -13.45,0 -23.1,8.85 -9,8.4 -9.45,20.25 -0.05,0.6 -0.05,1.3 0,1.3 0.1,2.6 0.45,5.4 2.8,10.2 -1.65,3.45 -2.4,7.3 -12.55,5.55 -23.2,15.5 -4.5,4.2 -8.2,8.8 -7.65,-4.55 -17.4,-4.55 -13.55,0 -23.05,8.9 -7.15,6.6 -8.95,15.25 h -1.6 q -19.5,0 -35.75,7.3 -6.9,-3.45 -15.2,-3.45 -8.45,0 -15.3,3.5 V 715.9 h 1024 z"
       inkscape:connector-curvature="0"
       style="fill:#e6f4fa" />
    <path
       id="y"
       d="M 1976,763 V 593.45 l -42.8,41.45 -144.6,-140.05 q -13.9,-11.6 -25.2,0 l -128.9,124.8 -44,-42.55 q -10.75,-9.15 -18.95,0 l -47.75,46.2 -66,-63.9 q -9.55,-8.5 -17.75,0 l -49.65,48.1 -130.2,-126.1 q -11.1,-11.05 -22.35,0 l -112.3,112.05 -50.3,-48.7 q -8.8,-8.85 -17.6,0 L 979.7,620.25 952,593.45 V 763 Z"
       inkscape:connector-curvature="0"
       style="fill:#d5edf7" />
    <path
       id="z"
       d="m 1433.1,702.05 q -56.45,26.65 -119.5,27.1 -62.95,0.55 -121.85,-20.85 -57.1,-20.9 -116.45,-34.9 -62.05,-14.5 -123.25,2.3 V 1065 H 1976 V 675.7 q -34.9,12.4 -68.55,27.8 -58.95,27 -120.55,4.25 -57.1,-21.15 -115.4,-38.6 -59.85,-17.85 -121.25,-5.75 -61.3,12.1 -117.15,38.65 z"
       inkscape:connector-curvature="0"
       style="fill:#b6d9e7" />
    <path
       id="A"
       d="m 1490.95,736.3 -111,-165 -103.8,165 h 214.8 m -16.5,-30.95 h 134.2 l -69.35,-103.1 z"
       inkscape:connector-curvature="0"
       style="fill:#b6d9e7" />
    <g
       style="fill:#ffffff"
       id="B">
      <path
         style="fill-opacity:0.30199998"
         inkscape:connector-curvature="0"
         id="path10039"
         d="m 1431.6,261.05 q -17.8,0 -30.4,12.55 -12.5,12.6 -12.5,30.35 0,17.8 12.5,30.3 12.6,12.6 30.4,12.6 17.75,0 30.25,-12.6 12.65,-12.5 12.65,-30.3 0,-17.75 -12.65,-30.35 -12.5,-12.55 -30.25,-12.55 m 1,12.9 q 13.25,0 22.6,9.35 9.4,9.4 9.4,22.65 0,13.25 -9.4,22.6 -9.35,9.4 -22.6,9.4 -13.25,0 -22.65,-9.4 -9.35,-9.35 -9.35,-22.6 0,-13.25 9.35,-22.65 9.4,-9.35 22.65,-9.35 z" />
      <path
         inkscape:connector-curvature="0"
         id="path10041"
         d="m 1455.2,283.3 q -9.35,-9.35 -22.6,-9.35 -13.25,0 -22.65,9.35 -9.35,9.4 -9.35,22.65 0,13.25 9.35,22.6 9.4,9.4 22.65,9.4 13.25,0 22.6,-9.4 9.4,-9.35 9.4,-22.6 0,-13.25 -9.4,-22.65 z" />
    </g>
  </g>
  <g
     id="g11071">
    <path
       id="am"
       d="m 3799.55,1737.05 q -59.85,-17.85 -121.25,-5.75 -61.3,12.1 -117.15,38.65 -56.45,26.65 -119.5,27.1 -62.95,0.55 -121.85,-20.85 -57.1,-20.9 -116.45,-34.9 -62.05,-14.5 -123.25,2.3 v 389.3 h 1023.95 v -389.3 q -34.9,12.4 -68.55,27.8 -58.95,27 -120.55,4.25 -57.1,-21.15 -115.4,-38.6 z"
       inkscape:connector-curvature="0"
       style="fill:#b8d0a6" />
    <path
       id="ah"
       d="m 4104.05,1108.9 h -1024 v 1024 h 1024 z"
       inkscape:connector-curvature="0"
       style="fill:#d5edf7" />
    <path
       id="ai"
       d="m 4036,1479.3 q -7,0 -13.1,2.15 -8.2,2.8 -14.85,9.5 -9.3,9.25 -11.15,21.65 -10.65,1.3 -20.15,5.1 -2.35,-6.15 -7.7,-11.05 -9.5,-8.9 -23.1,-8.9 -13.55,0 -23.15,8.9 -1.4,1.35 -2.65,2.8 -23.75,-20.7 -56.8,-20.7 -6.7,0 -13.05,0.9 -0.5,-0.5 -1,-0.95 -9.5,-8.95 -23.1,-8.95 -7.7,0 -14.2,3 h -0.05 q 0,-0.25 0.05,-0.5 0.1,-1.05 0.1,-2.05 v -0.75 -1.05 q -0.4,-11.95 -9.6,-20.5 -9.55,-8.9 -23.1,-8.9 -3,0 -5.7,0.45 -2.25,-7.1 -8.3,-12.7 -9.55,-8.9 -23.1,-8.9 -13.55,0 -23.1,8.9 -6.55,6.1 -8.65,13.95 -21.2,4.05 -37.85,18.1 -8.5,-6.2 -19.85,-6.2 -13.55,0 -23.15,8.9 -6.95,6.5 -8.85,15.05 -8.45,-1.65 -17.6,-1.65 -2.9,0 -5.8,0.2 -2.1,-7.7 -8.55,-13.75 -9.5,-8.9 -23.1,-8.9 -13.55,0 -23.15,8.9 -0.35,0.4 -0.6,0.7 -5.3,-8.3 -13.1,-15.6 -24.45,-22.75 -59,-22.8 -2.35,-5.35 -7.05,-9.7 -9.55,-8.9 -23.15,-8.9 -4.6,0 -8.6,1 -0.9,-11 -9.55,-19 -9.55,-8.9 -23.1,-8.9 -9.7,0 -17.2,4.5 -16.7,-7.7 -36.8,-7.7 -34.7,0 -59.15,22.8 -11.35,10.55 -17.4,23.1 -3.4,-0.65 -7.15,-0.65 -13.45,0 -23.1,8.85 -9,8.4 -9.45,20.25 -0.05,0.6 -0.05,1.3 0,1.3 0.1,2.6 0.45,5.4 2.8,10.2 -1.65,3.45 -2.4,7.3 -12.55,5.55 -23.2,15.5 -4.5,4.2 -8.2,8.8 -7.65,-4.55 -17.4,-4.55 -13.55,0 -23.05,8.9 -7.15,6.6 -8.95,15.25 h -1.6 q -19.5,0 -35.75,7.3 -6.9,-3.45 -15.2,-3.45 -8.45,0 -15.3,3.5 v 291.85 h 1024 v -288.6 q -0.4,-15.75 -11.6,-26.95 -10,-10 -23.5,-11.4 -2.15,-3.1 -4.95,-5.9 -11.65,-11.65 -28,-11.65 z"
       inkscape:connector-curvature="0"
       style="fill:#e6f4fa" />
    <path
       id="aj"
       d="m 3949.6,1750.5 -15.8,1.65 -11.4,109.2 171.75,-18.05 -41.8,-33.9 -13.55,1.45 -41.25,-125.9 -36.7,3.85 -11.25,61.7 M 3730,1538.3 h -28.45 l -13.6,62.45 h -13.05 l -15.35,85.8 h -17 l -7.15,38.25 -25.85,-78.85 -36.7,3.85 -11.25,61.7 -15.8,1.65 -11.4,109.2 84.3,-8.85 -0.05,0.3 h 170.25 l -22.55,-67.6 h -19.3 L 3730,1538.3 m -381.1,44.6 -35.05,-3.8 -51.9,143.5 -16.65,-1.8 -32.2,61.05 197.7,21.55 -38.4,-121.35 -11.3,-1.2 z"
       inkscape:connector-curvature="0"
       style="fill:#d5edf7" />
    <path
       id="ak"
       d="m 4049.6,1777.2 -2.15,-21.35 19.8,1.05 -25.85,-84.5 -21.15,81.9 17.05,0.95 -2.35,21.95 h 14.65 m -109.35,-3.05 11.2,0.65 -1.55,14.4 h 9.6 l -1.4,-14.05 13,0.7 -16.95,-55.45 -13.9,53.75 m -810.2,-50 11.2,0.65 -1.55,14.4 h 9.6 l -1.4,-14.05 13,0.7 -16.95,-55.45 -13.9,53.75 m 237.9,59 13,0.7 -16.95,-55.45 -13.9,53.75 11.2,0.65 -1.55,14.4 h 9.6 l -1.4,-14.05 m -50.55,-5.95 -2.15,-21.35 19.8,1.05 -25.85,-84.5 -21.15,81.9 17.05,0.95 -2.35,21.95 z"
       inkscape:connector-curvature="0"
       style="fill:#648c44" />
    <g
       id="al">
      <path
         style="fill:#d26f49"
         inkscape:connector-curvature="0"
         id="path10078"
         d="m 3891.8,1631 q 33.15,-0.8 55,20 l -10.2,-75.6 -44.8,55.6 m -174.55,-9 q 26.3,-14.7 58.3,-5.7 l -29.65,-65 z" />
      <path
         style="fill:#a4afaf"
         inkscape:connector-curvature="0"
         id="path10080"
         d="m 3867.85,1759.9 -5.15,28.9 52.45,6.65 -2.8,-26.35 -44.5,-9.2 m -103.3,16.5 2.2,-29.8 -45.45,-1.6 -5.8,25.2 z" />
      <path
         style="fill:#5b6666"
         inkscape:connector-curvature="0"
         id="path10082"
         d="m 3790.95,1715.15 -4.6,64 53.6,6.8 13.05,-67.5 z" />
      <path
         style="fill:#7e8787"
         inkscape:connector-curvature="0"
         id="path10084"
         d="m 3769.1,1777 17.25,2.15 4.6,-64 62.05,3.3 -13.05,67.5 16.65,2.1 10.6,-84.25 -87.8,-8.45 -10.3,81.65 m -12.65,-105.65 -0.25,-19.15 q 0,-3.3 -2.4,-5.65 -2.3,-2.4 -5.65,-2.35 -3.25,0.05 -5.55,2.45 -2.3,2.35 -2.35,5.65 l 0.2,19.3 16,-0.25 m 87.1,-9.5 -28.45,-3.6 -9,17.6 -8.15,-0.85 -3.25,-19.35 -10.15,-1.25 -4.1,32.6 88.1,6.35 3.5,-27.9 -14.25,-1.8 -4.35,17 -8.05,-0.8 -1.85,-18 m 74.25,6.65 q -2.05,-3.55 -6,-4.55 -3.85,-1.05 -7.4,1.1 -3.55,2.1 -4.6,5.95 l -5.9,23 19.05,4.95 5.9,-23 q 1.05,-3.9 -1.05,-7.45 z" />
      <path
         style="fill:#95a1a1"
         inkscape:connector-curvature="0"
         id="path10086"
         d="m 3780.45,1687 -1.05,8.35 87.8,8.45 1.35,-10.45 -88.1,-6.35 m 5.2,-67.3 q -5.15,-2.05 -10.1,-3.4 -32,-9 -58.3,5.7 -4.5,2.5 -8.85,5.7 l 14.5,24.55 -1.6,92.75 45.45,1.6 6.95,-93.6 0.5,-6.15 14.1,-26.1 q -1.3,-0.55 -2.65,-1.05 m -29.45,32.5 0.25,19.15 -16,0.25 -0.2,-19.3 q 0.05,-3.3 2.35,-5.65 2.3,-2.4 5.55,-2.45 3.35,-0.05 5.65,2.35 2.4,2.35 2.4,5.65 m 129.35,-20.9 q -3.55,0.3 -7.2,0.8 l 7.15,28.8 -1.1,6.1 -16.55,92.9 44.5,9.2 21.5,-90.25 20.15,-20.15 q -3.4,-4.2 -7.2,-7.7 -21.85,-20.8 -55,-20 -3,0 -6.25,0.3 m 26.25,32.65 q 3.95,1 6,4.55 2.1,3.55 1.05,7.45 l -5.9,23 -19.05,-4.95 5.9,-23 q 1.05,-3.85 4.6,-5.95 3.55,-2.15 7.4,-1.1 z" />
      <path
         style="fill:#767e7e"
         inkscape:connector-curvature="0"
         id="path10088"
         d="m 3784.55,1654.4 -10.85,-1.4 -6.95,93.6 -2.2,29.8 4.55,0.6 10.3,-81.65 1.05,-8.35 4.1,-32.6 m 99.85,12.6 -12.35,-1.55 -3.5,27.9 -1.35,10.45 -10.6,84.25 6.1,0.75 5.15,-28.9 z" />
    </g>
  </g>
  <g
     id="bg-10"
     inkscape:label="#g11031">
    <path
       id="T"
       d="m 1976.05,1108.9 h -1024 v 1024 h 1024 z"
       inkscape:connector-curvature="0"
       style="fill:#d5edf7" />
    <path
       id="U"
       d="m 1414.05,1472.05 q -5.3,-8.3 -13.1,-15.6 -24.45,-22.75 -59,-22.8 -2.35,-5.35 -7.05,-9.7 -9.55,-8.9 -23.15,-8.9 -4.6,0 -8.6,1 -0.9,-11 -9.55,-19 -9.55,-8.9 -23.1,-8.9 -9.7,0 -17.2,4.5 -16.7,-7.7 -36.8,-7.7 -34.7,0 -59.15,22.8 -11.35,10.55 -17.4,23.1 -3.4,-0.65 -7.15,-0.65 -13.45,0 -23.1,8.85 -9,8.4 -9.45,20.25 -0.05,0.6 -0.05,1.3 0,1.3 0.1,2.6 0.45,5.4 2.8,10.2 -1.65,3.45 -2.4,7.3 -12.55,5.55 -23.2,15.5 -4.5,4.2 -8.2,8.8 -7.65,-4.55 -17.4,-4.55 -13.55,0 -23.05,8.9 -7.15,6.6 -8.95,15.25 h -1.6 q -19.5,0 -35.75,7.3 -6.9,-3.45 -15.2,-3.45 -8.45,0 -15.3,3.5 v 251.85 h 1024 v -248.6 q -0.4,-15.75 -11.6,-26.95 -10,-10 -23.5,-11.4 -2.15,-3.1 -4.95,-5.9 -11.65,-11.65 -28,-11.65 -7,0 -13.1,2.15 -8.2,2.8 -14.85,9.5 -9.3,9.25 -11.15,21.65 -10.65,1.3 -20.15,5.1 -2.35,-6.15 -7.7,-11.05 -9.5,-8.9 -23.1,-8.9 -13.55,0 -23.15,8.9 -1.4,1.35 -2.65,2.8 -23.75,-20.7 -56.8,-20.7 -6.7,0 -13.05,0.9 -0.5,-0.5 -1,-0.95 -9.5,-8.95 -23.1,-8.95 -7.7,0 -14.2,3 h -0.05 q 0,-0.25 0.05,-0.5 0.1,-1.05 0.1,-2.05 v -0.75 -1.05 q -0.4,-11.95 -9.6,-20.5 -9.55,-8.9 -23.1,-8.9 -3,0 -5.7,0.45 -2.25,-7.1 -8.3,-12.7 -9.55,-8.9 -23.1,-8.9 -13.55,0 -23.1,8.9 -6.55,6.1 -8.65,13.95 -21.2,4.05 -37.85,18.1 -8.5,-6.2 -19.85,-6.2 -13.55,0 -23.15,8.9 -6.95,6.5 -8.85,15.05 -8.45,-1.65 -17.6,-1.65 -2.9,0 -5.8,0.2 -2.1,-7.7 -8.55,-13.75 -9.5,-8.9 -23.1,-8.9 -13.55,0 -23.15,8.9 -0.35,0.4 -0.6,0.7 z"
       inkscape:connector-curvature="0"
       style="fill:#e6f4fa" />
    <path
       id="V"
       d="m 1075.3,1652.65 q -8.8,-8.85 -17.6,0 l -77.95,75.5 -27.7,-26.8 v 169.55 h 1024 v -169.55 l -42.8,41.45 -144.6,-140.05 q -13.9,-11.6 -25.2,0 l -128.9,124.8 -44,-42.55 q -10.75,-9.15 -18.95,0 l -47.75,46.2 -66,-63.9 q -9.55,-8.5 -17.75,0 l -49.65,48.1 -130.2,-126.1 q -11.1,-11.05 -22.35,0 l -112.3,112.05 z"
       inkscape:connector-curvature="0"
       style="fill:#ecdebc" />
    <path
       id="Y"
       d="m 1191.8,1776.2 q -57.1,-20.9 -116.45,-34.9 -62.05,-14.5 -123.25,2.3 v 389.3 h 1023.95 v -389.3 q -34.9,12.4 -68.55,27.8 -58.95,27 -120.55,4.25 -57.1,-21.15 -115.4,-38.6 -59.85,-17.85 -121.25,-5.75 -61.3,12.1 -117.15,38.65 -56.45,26.65 -119.5,27.1 -62.95,0.55 -121.85,-20.85 z"
       inkscape:connector-curvature="0"
       style="fill:#dbceaf" />
    <g
       id="X">
      <path
         style="fill:#c4b592"
         inkscape:connector-curvature="0"
         id="path10062"
         d="m 1491,1800.3 -111,-165 30.05,165 H 1491 m -137.15,-19.4 h -12.5 v 19.4 h 9.8 z" />
      <path
         style="fill:#83775c"
         inkscape:connector-curvature="0"
         id="path10064"
         d="m 1341.35,1780.9 h -11.95 v 19.4 h 11.95 z" />
      <path
         style="fill:#d0c4aa"
         inkscape:connector-curvature="0"
         id="path10066"
         d="m 1341.35,1780.9 h 12.5 l -2.7,19.4 h 58.9 l -30.05,-165 -103.8,165 h 53.2 v -19.4 z" />
    </g>
    <g
       id="W">
      <path
         style="fill:#c4b592"
         inkscape:connector-curvature="0"
         id="path10091"
         d="m 1558.15,1769.35 h 50.55 l -69.35,-103.1 18.8,103.1 M 1523,1757.2 h -7.8 v 12.15 h 6.15 z" />
      <path
         style="fill:#83775c"
         inkscape:connector-curvature="0"
         id="path10093"
         d="m 1507.75,1757.2 v 12.15 h 7.45 v -12.15 z" />
      <path
         style="fill:#d0c4aa"
         inkscape:connector-curvature="0"
         id="path10095"
         d="M 1507.75,1769.35 V 1757.2 H 1523 l -1.65,12.15 h 36.8 l -18.8,-103.1 -64.85,103.1 z" />
    </g>
  </g>
  <g
     id="bg-9"
     inkscape:label="#g11017">
    <path
       id="an"
       d="m 912.05,2132.9 v -1024 h -1024 v 1024 z"
       inkscape:connector-curvature="0"
       style="fill:#d5edf7" />
    <path
       id="ao"
       d="m 36.2,1580.6 q 0,1.3 0.1,2.6 0.45,5.4 2.8,10.2 -1.65,3.45 -2.4,7.3 -12.55,5.55 -23.2,15.5 -4.5,4.2 -8.2,8.8 -7.65,-4.55 -17.4,-4.55 -13.55,0 -23.05,8.9 -7.15,6.6 -8.95,15.25 h -1.6 q -19.5,0 -35.75,7.3 -6.9,-3.45 -15.2,-3.45 -8.45,0 -15.3,3.5 v 251.85 h 1024 v -248.6 q -0.4,-15.75 -11.6,-26.95 -10,-10 -23.5,-11.4 -2.15,-3.1 -4.95,-5.9 -11.65,-11.65 -28,-11.65 -7,0 -13.1,2.15 -8.2,2.8 -14.85,9.5 -9.3,9.25 -11.15,21.65 -10.65,1.3 -20.15,5.1 -2.35,-6.15 -7.7,-11.05 -9.5,-8.9 -23.1,-8.9 -13.55,0 -23.15,8.9 -1.4,1.35 -2.65,2.8 -23.75,-20.7 -56.8,-20.7 -6.7,0 -13.05,0.9 -0.5,-0.5 -1,-0.95 -9.5,-8.95 -23.1,-8.95 -7.7,0 -14.2,3 h -0.05 q 0,-0.25 0.05,-0.5 0.1,-1.05 0.1,-2.05 v -0.75 -1.05 q -0.4,-11.95 -9.6,-20.5 -9.55,-8.9 -23.1,-8.9 -3,0 -5.7,0.45 -2.25,-7.1 -8.3,-12.7 -9.55,-8.9 -23.1,-8.9 -13.55,0 -23.1,8.9 -6.55,6.1 -8.65,13.95 -21.2,4.05 -37.85,18.1 -8.5,-6.2 -19.85,-6.2 -13.55,0 -23.15,8.9 -6.95,6.5 -8.85,15.05 -8.45,-1.65 -17.6,-1.65 -2.9,0 -5.8,0.2 -2.1,-7.7 -8.55,-13.75 -9.5,-8.9 -23.1,-8.9 -13.55,0 -23.15,8.9 -0.35,0.4 -0.6,0.7 -5.3,-8.3 -13.1,-15.6 -24.45,-22.75 -59,-22.8 -2.35,-5.35 -7.05,-9.7 -9.55,-8.9 -23.15,-8.9 -4.6,0 -8.6,1 -0.9,-11 -9.55,-19 -9.55,-8.9 -23.1,-8.9 -9.7,0 -17.2,4.5 -16.7,-7.7 -36.8,-7.7 -34.7,0 -59.15,22.8 -11.35,10.55 -17.4,23.1 -3.4,-0.65 -7.15,-0.65 -13.45,0 -23.1,8.85 -9,8.4 -9.45,20.25 -0.05,0.6 -0.05,1.3 z"
       inkscape:connector-curvature="0"
       style="fill:#e6f4fa" />
    <path
       id="at"
       d="m 912.05,1743.6 q -34.9,12.4 -68.55,27.8 -58.95,27 -120.55,4.25 -57.1,-21.15 -115.4,-38.6 -59.85,-17.85 -121.25,-5.75 -61.3,12.1 -117.15,38.65 -56.45,26.65 -119.5,27.1 -62.95,0.55 -121.85,-20.85 -57.1,-20.9 -116.45,-34.9 -62.05,-14.5 -123.25,2.3 v 389.3 H 912.05 Z"
       inkscape:connector-curvature="0"
       style="fill:#a69a92" />
    <g
       id="ap">
      <path
         style="fill:#795b48"
         inkscape:connector-curvature="0"
         id="path10098"
         d="m 443.55,1758.75 h 25.25 l -4.5,-36.55 -18.85,3.8 z" />
      <path
         style="fill:#6d503d"
         inkscape:connector-curvature="0"
         id="path10100"
         d="m 463.35,1714.45 -17.35,2 -0.55,9.55 18.85,-3.8 z" />
      <path
         style="fill:#448c5e"
         inkscape:connector-curvature="0"
         id="path10102"
         d="m 472.7,1591.35 9.85,-0.85 -37.15,-72 -24.75,77.5 10.95,-0.95 41.1,-3.7 m 36.9,117.85 -20.45,-45 -72.15,5.2 -12.4,51.75 41.4,-4.7 17.35,-2 46.25,-5.25 m -21.65,-47.75 7.9,0.55 -18.45,-56.25 -47.95,-4.65 -19.35,54.95 9.95,0.65 z" />
      <path
         style="fill:#3e7b54"
         inkscape:connector-curvature="0"
         id="path10104"
         d="m 477.4,1605.75 -4.7,-14.4 -41.1,3.7 -2.15,6.05 47.95,4.65 m 11.75,58.45 -1.2,-2.75 -67.9,-4.75 -3.05,12.7 z" />
    </g>
    <g
       id="aq">
      <path
         style="fill:#448c5e"
         inkscape:connector-curvature="0"
         id="path10107"
         d="m 7.75,1717.45 17.35,1.35 46.45,3.65 -11.55,-48.1 -71.85,-8.6 -21.95,48.45 41.55,3.25 m 51.6,-46 7.7,2.05 -7.5,-58.75 -46.15,-13.65 -29.45,50.25 9.65,2.55 65.75,17.55 m -1.65,-71.7 9.8,1 -22.8,-77.75 -39,71.4 10.95,1.15 z" />
      <path
         style="fill:#795b48"
         inkscape:connector-curvature="0"
         id="path10109"
         d="m 24.6,1726.6 -19.2,0.15 -8.1,31.8 24.75,4.8 z" />
      <path
         style="fill:#6d503d"
         inkscape:connector-curvature="0"
         id="path10111"
         d="m 5.4,1726.75 19.2,-0.15 0.5,-7.8 -17.35,-1.35 z" />
      <path
         style="fill:#3e7b54"
         inkscape:connector-curvature="0"
         id="path10113"
         d="m 60,1674.35 -0.65,-2.9 -65.75,-17.55 -5.45,11.85 71.85,8.6 m -0.45,-59.6 -1.85,-15 -41.05,-4.2 -3.25,5.55 z" />
    </g>
    <g
       id="ar">
      <path
         style="fill:#795b48"
         inkscape:connector-curvature="0"
         id="path10116"
         d="m 300,1785.45 -3.3,23.8 18.4,1.5 -1.15,-27 z" />
      <path
         style="fill:#6d503d"
         inkscape:connector-curvature="0"
         id="path10118"
         d="m 313.65,1778 -12.75,0.45 -0.9,7 13.95,-1.7 z" />
      <path
         style="fill:#3e7b54"
         inkscape:connector-curvature="0"
         id="path10120"
         d="m 335.4,1742.75 -0.7,-2.05 -49.35,-7.35 -3,9.1 53.05,0.3 m -5.25,-43.35 -2.55,-10.8 -30.25,0.3 -1.95,4.35 z" />
      <path
         style="fill:#448c5e"
         inkscape:connector-curvature="0"
         id="path10122"
         d="m 334.7,1740.7 5.8,0.85 -10.35,-42.15 -34.75,-6.15 -17.3,39.05 7.25,1.05 49.35,7.35 m 13.1,36.15 -12.4,-34.1 -53.05,-0.3 -12,37.1 30.55,-1.1 12.75,-0.45 34.15,-1.15 m -20.2,-88.25 7.2,-0.1 -23.05,-54.75 -22.5,55.25 8.1,-0.1 z" />
    </g>
    <g
       id="as">
      <path
         style="fill:#795b48"
         inkscape:connector-curvature="0"
         id="path10125"
         d="m 747.6,1771.15 -12.6,0.2 -5.25,20.9 16.3,3.15 z" />
      <path
         style="fill:#6d503d"
         inkscape:connector-curvature="0"
         id="path10127"
         d="m 747.9,1766 -11.45,-0.8 -1.45,6.15 12.6,-0.2 z" />
      <path
         style="fill:#3e7b54"
         inkscape:connector-curvature="0"
         id="path10129"
         d="m 769.05,1687.5 -27.05,-2.65 -2.15,3.7 30.45,8.85 -1.25,-9.9 m -42.05,35.85 -3.6,7.9 47.4,5.35 -0.45,-1.9 z" />
      <path
         style="fill:#448c5e"
         inkscape:connector-curvature="0"
         id="path10131"
         d="m 742,1684.85 27.05,2.65 6.45,0.6 -15.3,-51.1 -25.45,47.15 7.25,0.7 m -18.6,46.4 -14.3,31.9 27.35,2.05 11.45,0.8 30.6,2.3 -7.7,-31.7 -47.4,-5.35 m -2.8,-9.55 6.4,1.65 43.35,11.35 5.1,1.35 -5.15,-38.65 -30.45,-8.85 z" />
    </g>
  </g>
  <g
     id="bg-11"
     inkscape:label="#g11057">
    <path
       id="ae"
       d="m 3040.05,1743.6 q -34.9,12.4 -68.55,27.8 -58.95,27 -120.55,4.25 -57.1,-21.15 -115.4,-38.6 -59.85,-17.85 -121.25,-5.75 -61.3,12.1 -117.15,38.65 -56.45,26.65 -119.5,27.1 -62.95,0.55 -121.85,-20.85 -57.1,-20.9 -116.45,-34.9 -62.05,-14.5 -123.25,2.3 v 389.3 h 1023.95 z"
       inkscape:connector-curvature="0"
       style="fill:#b8d0a6" />
    <path
       id="Z"
       d="m 3040.05,2132.9 v -1024 h -1024 v 1024 z"
       inkscape:connector-curvature="0"
       style="fill:#d5edf7" />
    <path
       id="aa"
       d="m 2655.2,1516.75 q -6.55,6.1 -8.65,13.95 -21.2,4.05 -37.85,18.1 -8.5,-6.2 -19.85,-6.2 -13.55,0 -23.15,8.9 -6.95,6.5 -8.85,15.05 -8.45,-1.65 -17.6,-1.65 -2.9,0 -5.8,0.2 -2.1,-7.7 -8.55,-13.75 -9.5,-8.9 -23.1,-8.9 -13.55,0 -23.15,8.9 -0.35,0.4 -0.6,0.7 -5.3,-8.3 -13.1,-15.6 -24.45,-22.75 -59,-22.8 -2.35,-5.35 -7.05,-9.7 -9.55,-8.9 -23.15,-8.9 -4.6,0 -8.6,1 -0.9,-11 -9.55,-19 -9.55,-8.9 -23.1,-8.9 -9.7,0 -17.2,4.5 -16.7,-7.7 -36.8,-7.7 -34.7,0 -59.15,22.8 -11.35,10.55 -17.4,23.1 -3.4,-0.65 -7.15,-0.65 -13.45,0 -23.1,8.85 -9,8.4 -9.45,20.25 -0.05,0.6 -0.05,1.3 0,1.3 0.1,2.6 0.45,5.4 2.8,10.2 -1.65,3.45 -2.4,7.3 -12.55,5.55 -23.2,15.5 -4.5,4.2 -8.2,8.8 -7.65,-4.55 -17.4,-4.55 -13.55,0 -23.05,8.9 -7.15,6.6 -8.95,15.25 h -1.6 q -19.5,0 -35.75,7.3 -6.9,-3.45 -15.2,-3.45 -8.45,0 -15.3,3.5 v 251.85 h 1024 v -248.6 q -0.4,-15.75 -11.6,-26.95 -10,-10 -23.5,-11.4 -2.15,-3.1 -4.95,-5.9 -11.65,-11.65 -28,-11.65 -7,0 -13.1,2.15 -8.2,2.8 -14.85,9.5 -9.3,9.25 -11.15,21.65 -10.65,1.3 -20.15,5.1 -2.35,-6.15 -7.7,-11.05 -9.5,-8.9 -23.1,-8.9 -13.55,0 -23.15,8.9 -1.4,1.35 -2.65,2.8 -23.75,-20.7 -56.8,-20.7 -6.7,0 -13.05,0.9 -0.5,-0.5 -1,-0.95 -9.5,-8.95 -23.1,-8.95 -7.7,0 -14.2,3 h -0.05 q 0,-0.25 0.05,-0.5 0.1,-1.05 0.1,-2.05 v -0.75 -1.05 q -0.4,-11.95 -9.6,-20.5 -9.55,-8.9 -23.1,-8.9 -3,0 -5.7,0.45 -2.25,-7.1 -8.3,-12.7 -9.55,-8.9 -23.1,-8.9 -13.55,0 -23.1,8.9 z"
       inkscape:connector-curvature="0"
       style="fill:#e6f4fa" />
    <path
       id="ad"
       d="m 3040,1707.6 q -61.2,-16.8 -123.25,-2.3 -59.35,14 -116.45,34.9 -58.9,21.4 -121.85,20.85 -63.05,-0.45 -119.5,-27.1 -55.85,-26.55 -117.15,-38.65 -61.4,-12.1 -121.25,5.75 -58.3,17.45 -115.4,38.6 -61.6,22.75 -120.55,-4.25 -33.65,-15.4 -68.55,-27.8 v 389.3 H 3040 Z"
       inkscape:connector-curvature="0"
       style="fill:#d4e7c5" />
    <g
       id="ac">
      <path
         style="fill:#9c7b53"
         inkscape:connector-curvature="0"
         id="path10044"
         d="m 2125.55,1735 v 17.6 q 0,1 0.75,1.7 0.65,0.7 1.65,0.7 0.95,0 1.65,-0.7 0.7,-0.7 0.7,-1.7 V 1735 q -1.15,0.25 -2.4,0.25 -1.2,0 -2.35,-0.25 z" />
      <path
         style="fill:#876844"
         inkscape:connector-curvature="0"
         id="path10046"
         d="m 2130.3,1731.7 q -1.15,0.25 -2.4,0.25 -1.2,0 -2.35,-0.2 v 3.25 q 1.15,0.25 2.35,0.25 1.25,0 2.4,-0.25 z" />
      <path
         style="fill:#597b3e"
         inkscape:connector-curvature="0"
         id="path10048"
         d="m 2120.9,1729.1 q 2,2.05 4.65,2.65 1.15,0.2 2.35,0.2 1.25,0 2.4,-0.25 2.55,-0.65 4.55,-2.6 2.8,-2.8 2.85,-6.75 v -12.2 q -0.1,3.85 -2.85,6.6 -2,2 -4.55,2.65 -1.15,0.25 -2.4,0.25 -1.2,0 -2.35,-0.2 -2.65,-0.65 -4.65,-2.7 -2.8,-2.75 -2.9,-6.6 v 12.2 q 0.1,3.95 2.9,6.75 z" />
      <path
         style="fill:#648c44"
         inkscape:connector-curvature="0"
         id="path10050"
         d="m 2137.7,1668.5 q -0.05,-3.85 -2.85,-6.65 -2.9,-2.95 -6.95,-2.95 -4.1,0 -7,2.95 -2.8,2.8 -2.9,6.65 v 41.65 q 0.1,3.85 2.9,6.6 2,2.05 4.65,2.7 1.15,0.2 2.35,0.2 1.25,0 2.4,-0.25 2.55,-0.65 4.55,-2.65 2.75,-2.75 2.85,-6.6 z" />
    </g>
    <g
       id="ab">
      <path
         style="fill:#9c7b53"
         inkscape:connector-curvature="0"
         id="path10053"
         d="m 2746.05,1726.05 q -2,0.45 -4.25,0.45 -2.1,0 -4.05,-0.45 v 30.85 q 0,1.7 1.25,2.9 1.2,1.25 2.95,1.25 1.7,0 2.9,-1.25 1.2,-1.2 1.2,-2.9 z" />
      <path
         style="fill:#876844"
         inkscape:connector-curvature="0"
         id="path10055"
         d="m 2746.05,1720.25 q -2,0.5 -4.25,0.5 -2.1,0 -4.05,-0.45 v 5.75 q 1.95,0.45 4.05,0.45 2.25,0 4.25,-0.45 z" />
      <path
         style="fill:#597b3e"
         inkscape:connector-curvature="0"
         id="path10057"
         d="m 2754,1715.7 q 4.9,-4.9 5.05,-11.8 v -21.35 q -0.2,6.75 -5.05,11.6 -3.5,3.5 -7.95,4.6 -2,0.45 -4.25,0.45 -2.1,0 -4.05,-0.4 -4.6,-1.1 -8.15,-4.65 -4.85,-4.85 -5.05,-11.6 v 21.35 q 0.15,6.9 5.05,11.8 3.55,3.55 8.15,4.6 1.95,0.45 4.05,0.45 2.25,0 4.25,-0.5 4.45,-1.1 7.95,-4.55 z" />
      <path
         style="fill:#648c44"
         inkscape:connector-curvature="0"
         id="path10059"
         d="m 2759.05,1609.7 q -0.15,-6.85 -5.05,-11.75 -5.05,-5.05 -12.2,-5.05 -7.15,0 -12.2,5.05 -4.9,4.9 -5.05,11.75 v 72.85 q 0.2,6.75 5.05,11.6 3.55,3.55 8.15,4.65 1.95,0.4 4.05,0.4 2.25,0 4.25,-0.45 4.45,-1.1 7.95,-4.6 4.85,-4.85 5.05,-11.6 z" />
    </g>
    <g
       id="af">
      <path
         style="fill:#9c7b53"
         inkscape:connector-curvature="0"
         id="path10069"
         d="m 2672.65,1702.7 q -3.55,0 -6.8,-0.75 v 52.1 q 0,2.85 2.1,4.95 2.05,2.05 4.95,2.05 2.9,0 4.95,-2.05 2.05,-2.1 2.05,-4.95 v -52.15 q -3.4,0.8 -7.2,0.8 z" />
      <path
         style="fill:#876844"
         inkscape:connector-curvature="0"
         id="path10071"
         d="m 2672.65,1693 q -3.55,0 -6.8,-0.75 v 9.7 q 3.25,0.75 6.8,0.75 h 0.05 q 3.8,0 7.2,-0.8 v -9.75 q -3.4,0.85 -7.2,0.85 z" />
      <path
         style="fill:#597b3e"
         inkscape:connector-curvature="0"
         id="path10073"
         d="m 2693.3,1648.05 q -5.9,5.85 -13.4,7.7 -3.4,0.8 -7.2,0.8 h -0.05 q -3.55,0 -6.8,-0.7 -7.75,-1.8 -13.75,-7.8 -8.2,-8.2 -8.55,-19.6 v 36.05 q 0.2,11.65 8.55,19.95 6,6 13.75,7.8 3.25,0.75 6.8,0.75 h 0.05 q 3.8,0 7.2,-0.85 7.5,-1.85 13.4,-7.7 8.3,-8.3 8.5,-19.95 v -36.05 q -0.35,11.4 -8.5,19.6 z" />
      <path
         style="fill:#648c44"
         inkscape:connector-curvature="0"
         id="path10075"
         d="m 2672.7,1476.95 h -0.05 q -12.05,0 -20.55,8.5 -8.3,8.25 -8.55,19.85 v 123.15 q 0.35,11.4 8.55,19.6 6,6 13.75,7.8 3.25,0.7 6.8,0.7 h 0.05 q 3.8,0 7.2,-0.8 7.5,-1.85 13.4,-7.7 8.15,-8.2 8.5,-19.6 V 1505.3 q -0.25,-11.6 -8.5,-19.85 -8.55,-8.5 -20.6,-8.5 z" />
    </g>
    <g
       id="ag">
      <path
         style="fill:#9c7b53"
         inkscape:connector-curvature="0"
         id="path10134"
         d="m 2096.9,1725.3 q -1.5,0 -2.9,-0.3 v 22 q 0,1.25 0.9,2.1 0.85,0.9 2.1,0.9 1.2,0 2.05,-0.9 0.9,-0.85 0.9,-2.1 v -22 q -1.45,0.3 -3.05,0.3 z" />
      <path
         style="fill:#876844"
         inkscape:connector-curvature="0"
         id="path10136"
         d="m 2094,1725 q 1.4,0.3 2.9,0.3 1.6,0 3.05,-0.3 v -4.15 q -1.45,0.35 -3.05,0.35 -1.5,0 -2.9,-0.3 z" />
      <path
         style="fill:#648c44"
         inkscape:connector-curvature="0"
         id="path10138"
         d="m 2109.2,1693.95 v -52.05 q -0.1,-4.85 -3.6,-8.35 -3.6,-3.65 -8.7,-3.65 -5.1,0 -8.7,3.65 -3.5,3.5 -3.65,8.35 v 52.05 q 0.15,4.8 3.65,8.25 2.5,2.55 5.8,3.35 1.4,0.25 2.9,0.25 1.6,0 3.05,-0.3 3.15,-0.8 5.65,-3.3 3.45,-3.45 3.6,-8.25 z" />
      <path
         style="fill:#597b3e"
         inkscape:connector-curvature="0"
         id="path10140"
         d="m 2109.2,1709.2 v -15.25 q -0.15,4.8 -3.6,8.25 -2.5,2.5 -5.65,3.3 -1.45,0.3 -3.05,0.3 -1.5,0 -2.9,-0.25 -3.3,-0.8 -5.8,-3.35 -3.5,-3.45 -3.65,-8.25 v 15.25 q 0.15,4.9 3.65,8.4 2.5,2.55 5.8,3.3 1.4,0.3 2.9,0.3 1.6,0 3.05,-0.35 3.15,-0.8 5.65,-3.25 3.5,-3.5 3.6,-8.4 z" />
    </g>
  </g>
</svg>
