<?xml version="1.0" encoding="UTF-8" standalone="no"?>
<svg
   xmlns:dc="http://purl.org/dc/elements/1.1/"
   xmlns:cc="http://creativecommons.org/ns#"
   xmlns:rdf="http://www.w3.org/1999/02/22-rdf-syntax-ns#"
   xmlns:svg="http://www.w3.org/2000/svg"
   xmlns="http://www.w3.org/2000/svg"
   xmlns:sodipodi="http://sodipodi.sourceforge.net/DTD/sodipodi-0.dtd"
   xmlns:inkscape="http://www.inkscape.org/namespaces/inkscape"
   version="1.1"
   id="svg6743"
   sodipodi:docname="space.svg"
   inkscape:version="0.92.4 (5da689c313, 2019-01-14)">
  <metadata
     id="metadata6747">
    <rdf:RDF>
      <cc:Work
         rdf:about="">
        <dc:format>image/svg+xml</dc:format>
        <dc:type
           rdf:resource="http://purl.org/dc/dcmitype/StillImage" />
        <dc:title></dc:title>
      </cc:Work>
    </rdf:RDF>
  </metadata>
  <sodipodi:namedview
     pagecolor="#ffffff"
     bordercolor="#666666"
     borderopacity="1"
     objecttolerance="10"
     gridtolerance="10"
     guidetolerance="10"
     inkscape:pageopacity="0"
     inkscape:pageshadow="2"
     inkscape:window-width="1920"
     inkscape:window-height="1017"
     id="namedview6745"
     showgrid="false"
     inkscape:zoom="1"
     inkscape:cx="507.98856"
     inkscape:cy="-305.02196"
     inkscape:window-x="0"
     inkscape:window-y="0"
     inkscape:window-maximized="1"
     inkscape:current-layer="svg6743"
     inkscape:pagecheckerboard="true" />
  <defs
     id="defs6227" />
  <g
     id="box-grey"
     inkscape:label="#g7056">
    <path
       d="m 370,314.05 v 85.9 q 0,3.5 -1.85,5.2 -1.7,1.85 -5.25,1.85 H 277.05 Q 270,407 270,399.95 v -85.9 q 0,-7.05 7.05,-7.05 h 85.85 q 3.55,0 5.25,1.85 1.85,1.7 1.85,5.2 m -2,0 Q 368,309 362.9,309 h -85.85 q -5.05,0 -5.05,5.05 v 85.9 q 0,5.05 5.05,5.05 h 85.85 q 5.1,0 5.1,-5.05 v -85.9"
       id="path6229"
       inkscape:connector-curvature="0"
       style="fill:#9ea4ad;stroke:none" />
    <path
       d="m 362.9,311 q 3.1,0 3.1,3.05 v 85.9 q 0,3.05 -3.1,3.05 H 277.05 Q 274,403 274,399.95 v -85.9 q 0,-3.05 3.05,-3.05 h 85.85"
       id="path6231"
       inkscape:connector-curvature="0"
       style="fill:#d6dde7;stroke:none" />
    <path
       d="m 362.9,311 h -85.85 q -3.05,0 -3.05,3.05 v 85.9 q 0,3.05 3.05,3.05 h 85.85 q 3.1,0 3.1,-3.05 v -85.9 Q 366,311 362.9,311 m 5.1,3.05 v 85.9 q 0,5.05 -5.1,5.05 H 277.05 Q 272,405 272,399.95 v -85.9 q 0,-5.05 5.05,-5.05 h 85.85 q 5.1,0 5.1,5.05"
       id="path6233"
       inkscape:connector-curvature="0"
       style="fill:#ecf2fa;stroke:none" />
    <path
       d="m 280,315 q 0,0.85 -0.6,1.4 -0.55,0.6 -1.4,0.6 -0.85,0 -1.45,-0.6 -0.55,-0.55 -0.55,-1.4 0,-0.85 0.55,-1.45 0.6,-0.55 1.45,-0.55 0.85,0 1.4,0.55 0.6,0.6 0.6,1.45"
       id="path6235"
       inkscape:connector-curvature="0"
       style="fill:#9ea4ad;stroke:none" />
    <path
       d="m 363.4,316.4 q -0.55,0.6 -1.4,0.6 -0.85,0 -1.45,-0.6 -0.55,-0.55 -0.55,-1.4 0,-0.85 0.55,-1.45 0.6,-0.55 1.45,-0.55 0.85,0 1.4,0.55 0.6,0.6 0.6,1.45 0,0.85 -0.6,1.4"
       id="path6237"
       inkscape:connector-curvature="0"
       style="fill:#9ea4ad;stroke:none" />
    <path
       d="m 279.4,400.4 q -0.55,0.6 -1.4,0.6 -0.85,0 -1.45,-0.6 -0.55,-0.55 -0.55,-1.4 0,-0.85 0.55,-1.45 0.6,-0.55 1.45,-0.55 0.85,0 1.4,0.55 0.6,0.6 0.6,1.45 0,0.85 -0.6,1.4"
       id="path6239"
       inkscape:connector-curvature="0"
       style="fill:#9ea4ad;stroke:none" />
    <path
       d="m 362,401 q -0.85,0 -1.45,-0.6 -0.55,-0.55 -0.55,-1.4 0,-0.85 0.55,-1.45 0.6,-0.55 1.45,-0.55 0.85,0 1.4,0.55 0.6,0.6 0.6,1.45 0,0.85 -0.6,1.4 -0.55,0.6 -1.4,0.6"
       id="path6241"
       inkscape:connector-curvature="0"
       style="fill:#9ea4ad;stroke:none" />
  </g>
  <g
     id="box-tl-red"
     inkscape:label="#g7067">
    <path
       d="m 382,335.25 v -21.2 q 0,-5.05 5.05,-5.05 h 52.35 l -0.8,2 h -51.55 q -3.05,0 -3.05,3.05 v 21.2 h -2"
       id="path6243"
       inkscape:connector-curvature="0"
       style="fill:#fa8132;stroke:none" />
    <path
       d="m 382,335.25 h 2 45.3 l -0.8,2 H 384 v 62.7 q 0,3.05 3.05,3.05 h 85.85 q 3.1,0 3.1,-3.05 v -85.9 Q 476,311 472.9,311 h -34.3 l 0.8,-2 h 33.5 q 5.1,0 5.1,5.05 v 85.9 q 0,5.05 -5.1,5.05 H 387.05 Q 382,405 382,399.95 v -64.7"
       id="path6245"
       inkscape:connector-curvature="0"
       style="fill:#ecf2fa;stroke:none" />
    <path
       d="m 382,335.25 v 64.7 q 0,5.05 5.05,5.05 h 85.85 q 5.1,0 5.1,-5.05 v -85.9 Q 478,309 472.9,309 h -33.5 l 0.75,-2 h 32.75 q 3.55,0 5.25,1.85 1.85,1.7 1.85,5.2 v 85.9 q 0,3.5 -1.85,5.2 -1.7,1.85 -5.25,1.85 H 387.05 Q 380,407 380,399.95 v -64.7 h 2"
       id="path6247"
       inkscape:connector-curvature="0"
       style="fill:#9ea4ad;stroke:none" />
    <path
       d="m 382,335.25 h -2 v -21.2 q 0,-7.05 7.05,-7.05 h 53.1 l -0.75,2 h -52.35 q -5.05,0 -5.05,5.05 v 21.2"
       id="path6249"
       inkscape:connector-curvature="0"
       style="fill:#cd5d12;stroke:none" />
    <path
       d="m 384,335.25 v -21.2 q 0,-3.05 3.05,-3.05 h 51.55 l -9.3,24.25 H 384"
       id="path6251"
       inkscape:connector-curvature="0"
       style="fill:#e86a17;stroke:none" />
    <path
       d="M 429.3,335.25 438.6,311 h 34.3 q 3.1,0 3.1,3.05 v 85.9 q 0,3.05 -3.1,3.05 H 387.05 Q 384,403 384,399.95 v -62.7 h 44.5 l 0.8,-2"
       id="path6253"
       inkscape:connector-curvature="0"
       style="fill:#d6dde7;stroke:none" />
    <path
       d="m 472,317 q -0.85,0 -1.45,-0.6 -0.55,-0.55 -0.55,-1.4 0,-0.85 0.55,-1.45 0.6,-0.55 1.45,-0.55 0.85,0 1.4,0.55 0.6,0.6 0.6,1.45 0,0.85 -0.6,1.4 -0.55,0.6 -1.4,0.6"
       id="path6255"
       inkscape:connector-curvature="0"
       style="fill:#9ea4ad;stroke:none" />
    <path
       d="m 388,401 q -0.85,0 -1.45,-0.6 -0.55,-0.55 -0.55,-1.4 0,-0.85 0.55,-1.45 0.6,-0.55 1.45,-0.55 0.85,0 1.4,0.55 0.6,0.6 0.6,1.45 0,0.85 -0.6,1.4 -0.55,0.6 -1.4,0.6"
       id="path6257"
       inkscape:connector-curvature="0"
       style="fill:#9ea4ad;stroke:none" />
    <path
       d="M 470.55,400.4 Q 470,399.85 470,399 q 0,-0.85 0.55,-1.45 0.6,-0.55 1.45,-0.55 0.85,0 1.4,0.55 0.6,0.6 0.6,1.45 0,0.85 -0.6,1.4 -0.55,0.6 -1.4,0.6 -0.85,0 -1.45,-0.6"
       id="path6259"
       inkscape:connector-curvature="0"
       style="fill:#9ea4ad;stroke:none" />
  </g>
  <g
     id="box-tl-yellow"
     inkscape:label="#g7089">
    <path
       d="m 440.15,417 h 32.75 q 3.55,0 5.25,1.85 1.85,1.7 1.85,5.2 v 85.9 q 0,3.5 -1.85,5.2 -1.7,1.85 -5.25,1.85 H 387.05 Q 380,517 380,509.95 v -64.7 h 2 v 64.7 q 0,5.05 5.05,5.05 h 85.85 q 5.1,0 5.1,-5.05 v -85.9 Q 478,419 472.9,419 h -33.5 l 0.75,-2"
       id="path6261"
       inkscape:connector-curvature="0"
       style="fill:#9ea4ad;stroke:none" />
    <path
       d="m 439.4,419 h 33.5 q 5.1,0 5.1,5.05 v 85.9 q 0,5.05 -5.1,5.05 H 387.05 Q 382,515 382,509.95 v -64.7 h 2 45.3 l -0.8,2 H 384 v 62.7 q 0,3.05 3.05,3.05 h 85.85 q 3.1,0 3.1,-3.05 v -85.9 Q 476,421 472.9,421 h -34.3 l 0.8,-2"
       id="path6263"
       inkscape:connector-curvature="0"
       style="fill:#ecf2fa;stroke:none" />
    <path
       d="m 438.6,421 h 34.3 q 3.1,0 3.1,3.05 v 85.9 q 0,3.05 -3.1,3.05 H 387.05 Q 384,513 384,509.95 v -62.7 h 44.5 l 0.8,-2 9.3,-24.25"
       id="path6265"
       inkscape:connector-curvature="0"
       style="fill:#d6dde7;stroke:none" />
    <path
       d="m 380,445.25 v -21.2 q 0,-7.05 7.05,-7.05 h 53.1 l -0.75,2 h -52.35 q -5.05,0 -5.05,5.05 v 21.2 h -2"
       id="path6267"
       inkscape:connector-curvature="0"
       style="fill:#cda400;stroke:none" />
    <path
       d="m 384,445.25 h -2 v -21.2 q 0,-5.05 5.05,-5.05 h 52.35 l -0.8,2 h -51.55 q -3.05,0 -3.05,3.05 v 21.2"
       id="path6269"
       inkscape:connector-curvature="0"
       style="fill:#ffd948;stroke:none" />
    <path
       d="m 384,445.25 v -21.2 q 0,-3.05 3.05,-3.05 h 51.55 l -9.3,24.25 H 384"
       id="path6271"
       inkscape:connector-curvature="0"
       style="fill:#ffcc00;stroke:none" />
    <path
       d="M 470.55,426.4 Q 470,425.85 470,425 q 0,-0.85 0.55,-1.45 0.6,-0.55 1.45,-0.55 0.85,0 1.4,0.55 0.6,0.6 0.6,1.45 0,0.85 -0.6,1.4 -0.55,0.6 -1.4,0.6 -0.85,0 -1.45,-0.6"
       id="path6273"
       inkscape:connector-curvature="0"
       style="fill:#9ea4ad;stroke:none" />
    <path
       d="M 386.55,510.4 Q 386,509.85 386,509 q 0,-0.85 0.55,-1.45 0.6,-0.55 1.45,-0.55 0.85,0 1.4,0.55 0.6,0.6 0.6,1.45 0,0.85 -0.6,1.4 -0.55,0.6 -1.4,0.6 -0.85,0 -1.45,-0.6"
       id="path6275"
       inkscape:connector-curvature="0"
       style="fill:#9ea4ad;stroke:none" />
    <path
       d="m 470,509 q 0,-0.85 0.55,-1.45 0.6,-0.55 1.45,-0.55 0.85,0 1.4,0.55 0.6,0.6 0.6,1.45 0,0.85 -0.6,1.4 -0.55,0.6 -1.4,0.6 -0.85,0 -1.45,-0.6 Q 470,509.85 470,509"
       id="path6277"
       inkscape:connector-curvature="0"
       style="fill:#9ea4ad;stroke:none" />
  </g>
  <g
     id="box-tl-green"
     inkscape:label="#g7100">
    <path
       d="m 550.15,417 h 32.75 q 3.55,0 5.25,1.85 1.85,1.7 1.85,5.2 v 85.9 q 0,3.5 -1.85,5.2 -1.7,1.85 -5.25,1.85 H 497.05 Q 490,517 490,509.95 v -64.7 h 2 v 64.7 q 0,5.05 5.05,5.05 h 85.85 q 5.1,0 5.1,-5.05 v -85.9 Q 588,419 582.9,419 h -33.5 l 0.75,-2"
       id="path6279"
       inkscape:connector-curvature="0"
       style="fill:#9ea4ad;stroke:none" />
    <path
       d="m 549.4,419 h 33.5 q 5.1,0 5.1,5.05 v 85.9 q 0,5.05 -5.1,5.05 H 497.05 Q 492,515 492,509.95 v -64.7 h 2 45.3 l -0.8,2 H 494 v 62.7 q 0,3.05 3.05,3.05 h 85.85 q 3.1,0 3.1,-3.05 v -85.9 Q 586,421 582.9,421 h -34.3 l 0.8,-2"
       id="path6281"
       inkscape:connector-curvature="0"
       style="fill:#ecf2fa;stroke:none" />
    <path
       d="m 548.6,421 h 34.3 q 3.1,0 3.1,3.05 v 85.9 q 0,3.05 -3.1,3.05 H 497.05 Q 494,513 494,509.95 v -62.7 h 44.5 l 0.8,-2 9.3,-24.25"
       id="path6283"
       inkscape:connector-curvature="0"
       style="fill:#d6dde7;stroke:none" />
    <path
       d="m 548.6,421 h -51.55 q -3.05,0 -3.05,3.05 v 21.2 h -2 v -21.2 q 0,-5.05 5.05,-5.05 h 52.35 l -0.8,2"
       id="path6285"
       inkscape:connector-curvature="0"
       style="fill:#88e060;stroke:none" />
    <path
       d="m 490,445.25 v -21.2 q 0,-7.05 7.05,-7.05 h 53.1 l -0.75,2 h -52.35 q -5.05,0 -5.05,5.05 v 21.2 h -2"
       id="path6287"
       inkscape:connector-curvature="0"
       style="fill:#5fb13a;stroke:none" />
    <path
       d="m 548.6,421 -9.3,24.25 H 494 v -21.2 q 0,-3.05 3.05,-3.05 h 51.55"
       id="path6289"
       inkscape:connector-curvature="0"
       style="fill:#73cd4b;stroke:none" />
    <path
       d="m 580,425 q 0,-0.85 0.55,-1.45 0.6,-0.55 1.45,-0.55 0.85,0 1.4,0.55 0.6,0.6 0.6,1.45 0,0.85 -0.6,1.4 -0.55,0.6 -1.4,0.6 -0.85,0 -1.45,-0.6 Q 580,425.85 580,425"
       id="path6291"
       inkscape:connector-curvature="0"
       style="fill:#9ea4ad;stroke:none" />
    <path
       d="m 496,509 q 0,-0.85 0.55,-1.45 0.6,-0.55 1.45,-0.55 0.85,0 1.4,0.55 0.6,0.6 0.6,1.45 0,0.85 -0.6,1.4 -0.55,0.6 -1.4,0.6 -0.85,0 -1.45,-0.6 Q 496,509.85 496,509"
       id="path6293"
       inkscape:connector-curvature="0"
       style="fill:#9ea4ad;stroke:none" />
    <path
       d="m 580.55,507.55 q 0.6,-0.55 1.45,-0.55 0.85,0 1.4,0.55 0.6,0.6 0.6,1.45 0,0.85 -0.6,1.4 -0.55,0.6 -1.4,0.6 -0.85,0 -1.45,-0.6 -0.55,-0.55 -0.55,-1.4 0,-0.85 0.55,-1.45"
       id="path6295"
       inkscape:connector-curvature="0"
       style="fill:#9ea4ad;stroke:none" />
  </g>
  <g
     id="box-tl-blue"
     inkscape:label="#g7078">
    <path
       d="m 549.4,309 h -52.35 q -5.05,0 -5.05,5.05 v 21.2 h -2 v -21.2 q 0,-7.05 7.05,-7.05 h 53.1 l -0.75,2"
       id="path6297"
       inkscape:connector-curvature="0"
       style="fill:#1989b8;stroke:none" />
    <path
       d="m 549.4,309 0.75,-2 h 32.75 q 3.55,0 5.25,1.85 1.85,1.7 1.85,5.2 v 85.9 q 0,3.5 -1.85,5.2 -1.7,1.85 -5.25,1.85 H 497.05 Q 490,407 490,399.95 v -64.7 h 2 v 64.7 q 0,5.05 5.05,5.05 h 85.85 q 5.1,0 5.1,-5.05 v -85.9 Q 588,309 582.9,309 h -33.5"
       id="path6299"
       inkscape:connector-curvature="0"
       style="fill:#9ea4ad;stroke:none" />
    <path
       d="m 549.4,309 -0.8,2 h -51.55 q -3.05,0 -3.05,3.05 v 21.2 h -2 v -21.2 q 0,-5.05 5.05,-5.05 h 52.35"
       id="path6301"
       inkscape:connector-curvature="0"
       style="fill:#35baf3;stroke:none" />
    <path
       d="m 549.4,309 h 33.5 q 5.1,0 5.1,5.05 v 85.9 q 0,5.05 -5.1,5.05 H 497.05 Q 492,405 492,399.95 v -64.7 h 2 45.3 l -0.8,2 H 494 v 62.7 q 0,3.05 3.05,3.05 h 85.85 q 3.1,0 3.1,-3.05 v -85.9 Q 586,311 582.9,311 h -34.3 l 0.8,-2"
       id="path6303"
       inkscape:connector-curvature="0"
       style="fill:#ecf2fa;stroke:none" />
    <path
       d="M 539.3,335.25 548.6,311 h 34.3 q 3.1,0 3.1,3.05 v 85.9 q 0,3.05 -3.1,3.05 H 497.05 Q 494,403 494,399.95 v -62.7 h 44.5 l 0.8,-2"
       id="path6305"
       inkscape:connector-curvature="0"
       style="fill:#d6dde7;stroke:none" />
    <path
       d="M 539.3,335.25 H 494 v -21.2 q 0,-3.05 3.05,-3.05 h 51.55 l -9.3,24.25"
       id="path6307"
       inkscape:connector-curvature="0"
       style="fill:#1ea7e1;stroke:none" />
    <path
       d="M 580.55,316.4 Q 580,315.85 580,315 q 0,-0.85 0.55,-1.45 0.6,-0.55 1.45,-0.55 0.85,0 1.4,0.55 0.6,0.6 0.6,1.45 0,0.85 -0.6,1.4 -0.55,0.6 -1.4,0.6 -0.85,0 -1.45,-0.6"
       id="path6309"
       inkscape:connector-curvature="0"
       style="fill:#9ea4ad;stroke:none" />
    <path
       d="M 496.55,400.4 Q 496,399.85 496,399 q 0,-0.85 0.55,-1.45 0.6,-0.55 1.45,-0.55 0.85,0 1.4,0.55 0.6,0.6 0.6,1.45 0,0.85 -0.6,1.4 -0.55,0.6 -1.4,0.6 -0.85,0 -1.45,-0.6"
       id="path6311"
       inkscape:connector-curvature="0"
       style="fill:#9ea4ad;stroke:none" />
    <path
       d="m 580,399 q 0,-0.85 0.55,-1.45 0.6,-0.55 1.45,-0.55 0.85,0 1.4,0.55 0.6,0.6 0.6,1.45 0,0.85 -0.6,1.4 -0.55,0.6 -1.4,0.6 -0.85,0 -1.45,-0.6 Q 580,399.85 580,399"
       id="path6313"
       inkscape:connector-curvature="0"
       style="fill:#9ea4ad;stroke:none" />
  </g>
  <g
     id="box-top-red"
     inkscape:label="#g7110">
    <path
       d="m 600,335.25 v -21.2 q 0,-7.05 7.05,-7.05 h 85.85 q 3.55,0 5.25,1.85 1.85,1.7 1.85,5.2 v 21.2 h -2 v -21.2 Q 698,309 692.9,309 h -85.85 q -5.05,0 -5.05,5.05 v 21.2 h -2"
       id="path6315"
       inkscape:connector-curvature="0"
       style="fill:#cd5d12;stroke:none" />
    <path
       d="m 604,335.25 v -21.2 q 0,-3.05 3.05,-3.05 h 85.85 q 3.1,0 3.1,3.05 v 21.2 h -92"
       id="path6317"
       inkscape:connector-curvature="0"
       style="fill:#e86a17;stroke:none" />
    <path
       d="m 604,335.25 h -2 v -21.2 q 0,-5.05 5.05,-5.05 h 85.85 q 5.1,0 5.1,5.05 v 21.2 h -2 v -21.2 Q 696,311 692.9,311 h -85.85 q -3.05,0 -3.05,3.05 v 21.2"
       id="path6319"
       inkscape:connector-curvature="0"
       style="fill:#fa8132;stroke:none" />
    <path
       d="m 700,335.25 v 64.7 q 0,3.5 -1.85,5.2 -1.7,1.85 -5.25,1.85 H 607.05 Q 600,407 600,399.95 v -64.7 h 2 v 64.7 q 0,5.05 5.05,5.05 h 85.85 q 5.1,0 5.1,-5.05 v -64.7 h 2"
       id="path6321"
       inkscape:connector-curvature="0"
       style="fill:#9ea4ad;stroke:none" />
    <path
       d="m 604,335.25 h 92 2 v 64.7 q 0,5.05 -5.1,5.05 H 607.05 Q 602,405 602,399.95 v -64.7 h 2 m 92,64.7 v -62.7 h -92 v 62.7 q 0,3.05 3.05,3.05 h 85.85 q 3.1,0 3.1,-3.05"
       id="path6323"
       inkscape:connector-curvature="0"
       style="fill:#ecf2fa;stroke:none" />
    <path
       d="m 696,399.95 q 0,3.05 -3.1,3.05 H 607.05 Q 604,403 604,399.95 v -62.7 h 92 v 62.7"
       id="path6325"
       inkscape:connector-curvature="0"
       style="fill:#d6dde7;stroke:none" />
    <path
       d="m 609.4,397.55 q 0.6,0.6 0.6,1.45 0,0.85 -0.6,1.4 -0.55,0.6 -1.4,0.6 -0.85,0 -1.45,-0.6 -0.55,-0.55 -0.55,-1.4 0,-0.85 0.55,-1.45 0.6,-0.55 1.45,-0.55 0.85,0 1.4,0.55"
       id="path6327"
       inkscape:connector-curvature="0"
       style="fill:#9ea4ad;stroke:none" />
    <path
       d="m 690,399 q 0,-0.85 0.55,-1.45 0.6,-0.55 1.45,-0.55 0.85,0 1.4,0.55 0.6,0.6 0.6,1.45 0,0.85 -0.6,1.4 -0.55,0.6 -1.4,0.6 -0.85,0 -1.45,-0.6 Q 690,399.85 690,399"
       id="path6329"
       inkscape:connector-curvature="0"
       style="fill:#9ea4ad;stroke:none" />
  </g>
  <g
     id="box-top-blue"
     inkscape:label="#g7120">
    <path
       d="m 712,335.25 v -21.2 q 0,-5.05 5.05,-5.05 h 85.85 q 5.1,0 5.1,5.05 v 21.2 h -2 v -21.2 Q 806,311 802.9,311 h -85.85 q -3.05,0 -3.05,3.05 v 21.2 h -2"
       id="path6331"
       inkscape:connector-curvature="0"
       style="fill:#35baf3;stroke:none" />
    <path
       d="m 712,335.25 h 2 92 2 v 64.7 q 0,5.05 -5.1,5.05 H 717.05 Q 712,405 712,399.95 v -64.7 m 2,2 v 62.7 q 0,3.05 3.05,3.05 h 85.85 q 3.1,0 3.1,-3.05 v -62.7 h -92"
       id="path6333"
       inkscape:connector-curvature="0"
       style="fill:#ecf2fa;stroke:none" />
    <path
       d="m 714,335.25 v -21.2 q 0,-3.05 3.05,-3.05 h 85.85 q 3.1,0 3.1,3.05 v 21.2 h -92"
       id="path6335"
       inkscape:connector-curvature="0"
       style="fill:#1ea7e1;stroke:none" />
    <path
       d="m 808,335.25 v -21.2 Q 808,309 802.9,309 h -85.85 q -5.05,0 -5.05,5.05 v 21.2 h -2 v -21.2 q 0,-7.05 7.05,-7.05 h 85.85 q 3.55,0 5.25,1.85 1.85,1.7 1.85,5.2 v 21.2 h -2"
       id="path6337"
       inkscape:connector-curvature="0"
       style="fill:#1989b8;stroke:none" />
    <path
       d="m 808,335.25 h 2 v 64.7 q 0,3.5 -1.85,5.2 -1.7,1.85 -5.25,1.85 H 717.05 Q 710,407 710,399.95 v -64.7 h 2 v 64.7 q 0,5.05 5.05,5.05 h 85.85 q 5.1,0 5.1,-5.05 v -64.7"
       id="path6339"
       inkscape:connector-curvature="0"
       style="fill:#9ea4ad;stroke:none" />
    <path
       d="m 714,337.25 h 92 v 62.7 q 0,3.05 -3.1,3.05 H 717.05 Q 714,403 714,399.95 v -62.7"
       id="path6341"
       inkscape:connector-curvature="0"
       style="fill:#d6dde7;stroke:none" />
    <path
       d="m 716,399 q 0,-0.85 0.55,-1.45 0.6,-0.55 1.45,-0.55 0.85,0 1.4,0.55 0.6,0.6 0.6,1.45 0,0.85 -0.6,1.4 -0.55,0.6 -1.4,0.6 -0.85,0 -1.45,-0.6 Q 716,399.85 716,399"
       id="path6343"
       inkscape:connector-curvature="0"
       style="fill:#9ea4ad;stroke:none" />
    <path
       d="m 800.55,397.55 q 0.6,-0.55 1.45,-0.55 0.85,0 1.4,0.55 0.6,0.6 0.6,1.45 0,0.85 -0.6,1.4 -0.55,0.6 -1.4,0.6 -0.85,0 -1.45,-0.6 -0.55,-0.55 -0.55,-1.4 0,-0.85 0.55,-1.45"
       id="path6345"
       inkscape:connector-curvature="0"
       style="fill:#9ea4ad;stroke:none" />
  </g>
  <g
     id="box-top-green"
     inkscape:label="#g7130">
    <path
       d="m 710,445.25 v -21.2 q 0,-7.05 7.05,-7.05 h 85.85 q 3.55,0 5.25,1.85 1.85,1.7 1.85,5.2 v 21.2 h -2 v -21.2 Q 808,419 802.9,419 h -85.85 q -5.05,0 -5.05,5.05 v 21.2 h -2"
       id="path6347"
       inkscape:connector-curvature="0"
       style="fill:#5fb13a;stroke:none" />
    <path
       d="m 710,445.25 h 2 v 64.7 q 0,5.05 5.05,5.05 h 85.85 q 5.1,0 5.1,-5.05 v -64.7 h 2 v 64.7 q 0,3.5 -1.85,5.2 -1.7,1.85 -5.25,1.85 H 717.05 Q 710,517 710,509.95 v -64.7"
       id="path6349"
       inkscape:connector-curvature="0"
       style="fill:#9ea4ad;stroke:none" />
    <path
       d="m 712,445.25 v -21.2 q 0,-5.05 5.05,-5.05 h 85.85 q 5.1,0 5.1,5.05 v 21.2 h -2 v -21.2 Q 806,421 802.9,421 h -85.85 q -3.05,0 -3.05,3.05 v 21.2 h -2"
       id="path6351"
       inkscape:connector-curvature="0"
       style="fill:#88e060;stroke:none" />
    <path
       d="m 712,445.25 h 2 92 2 v 64.7 q 0,5.05 -5.1,5.05 H 717.05 Q 712,515 712,509.95 v -64.7 m 5.05,67.75 h 85.85 q 3.1,0 3.1,-3.05 v -62.7 h -92 v 62.7 q 0,3.05 3.05,3.05"
       id="path6353"
       inkscape:connector-curvature="0"
       style="fill:#ecf2fa;stroke:none" />
    <path
       d="m 714,445.25 v -21.2 q 0,-3.05 3.05,-3.05 h 85.85 q 3.1,0 3.1,3.05 v 21.2 h -92"
       id="path6355"
       inkscape:connector-curvature="0"
       style="fill:#73cd4b;stroke:none" />
    <path
       d="M 717.05,513 Q 714,513 714,509.95 v -62.7 h 92 v 62.7 q 0,3.05 -3.1,3.05 h -85.85"
       id="path6357"
       inkscape:connector-curvature="0"
       style="fill:#d6dde7;stroke:none" />
    <path
       d="m 716.55,507.55 q 0.6,-0.55 1.45,-0.55 0.85,0 1.4,0.55 0.6,0.6 0.6,1.45 0,0.85 -0.6,1.4 -0.55,0.6 -1.4,0.6 -0.85,0 -1.45,-0.6 -0.55,-0.55 -0.55,-1.4 0,-0.85 0.55,-1.45"
       id="path6359"
       inkscape:connector-curvature="0"
       style="fill:#9ea4ad;stroke:none" />
    <path
       d="m 802,507 q 0.85,0 1.4,0.55 0.6,0.6 0.6,1.45 0,0.85 -0.6,1.4 -0.55,0.6 -1.4,0.6 -0.85,0 -1.45,-0.6 -0.55,-0.55 -0.55,-1.4 0,-0.85 0.55,-1.45 0.6,-0.55 1.45,-0.55"
       id="path6361"
       inkscape:connector-curvature="0"
       style="fill:#9ea4ad;stroke:none" />
  </g>
  <g
     id="box-top-yellow"
     inkscape:label="#g7140">
    <path
       d="m 600,445.25 v -21.2 q 0,-7.05 7.05,-7.05 h 85.85 q 3.55,0 5.25,1.85 1.85,1.7 1.85,5.2 v 21.2 h -2 v -21.2 Q 698,419 692.9,419 h -85.85 q -5.05,0 -5.05,5.05 v 21.2 h -2"
       id="path6363"
       inkscape:connector-curvature="0"
       style="fill:#cda400;stroke:none" />
    <path
       d="m 604,445.25 v -21.2 q 0,-3.05 3.05,-3.05 h 85.85 q 3.1,0 3.1,3.05 v 21.2 h -92"
       id="path6365"
       inkscape:connector-curvature="0"
       style="fill:#ffcc00;stroke:none" />
    <path
       d="m 604,445.25 h -2 v -21.2 q 0,-5.05 5.05,-5.05 h 85.85 q 5.1,0 5.1,5.05 v 21.2 h -2 v -21.2 Q 696,421 692.9,421 h -85.85 q -3.05,0 -3.05,3.05 v 21.2"
       id="path6367"
       inkscape:connector-curvature="0"
       style="fill:#ffd948;stroke:none" />
    <path
       d="m 700,445.25 v 64.7 q 0,3.5 -1.85,5.2 -1.7,1.85 -5.25,1.85 H 607.05 Q 600,517 600,509.95 v -64.7 h 2 v 64.7 q 0,5.05 5.05,5.05 h 85.85 q 5.1,0 5.1,-5.05 v -64.7 h 2"
       id="path6369"
       inkscape:connector-curvature="0"
       style="fill:#9ea4ad;stroke:none" />
    <path
       d="m 604,445.25 h 92 2 v 64.7 q 0,5.05 -5.1,5.05 H 607.05 Q 602,515 602,509.95 v -64.7 h 2 m 92,64.7 v -62.7 h -92 v 62.7 q 0,3.05 3.05,3.05 h 85.85 q 3.1,0 3.1,-3.05"
       id="path6371"
       inkscape:connector-curvature="0"
       style="fill:#ecf2fa;stroke:none" />
    <path
       d="m 696,509.95 q 0,3.05 -3.1,3.05 H 607.05 Q 604,513 604,509.95 v -62.7 h 92 v 62.7"
       id="path6373"
       inkscape:connector-curvature="0"
       style="fill:#d6dde7;stroke:none" />
    <path
       d="m 610,509 q 0,0.85 -0.6,1.4 -0.55,0.6 -1.4,0.6 -0.85,0 -1.45,-0.6 -0.55,-0.55 -0.55,-1.4 0,-0.85 0.55,-1.45 0.6,-0.55 1.45,-0.55 0.85,0 1.4,0.55 0.6,0.6 0.6,1.45"
       id="path6375"
       inkscape:connector-curvature="0"
       style="fill:#9ea4ad;stroke:none" />
    <path
       d="m 690.55,507.55 q 0.6,-0.55 1.45,-0.55 0.85,0 1.4,0.55 0.6,0.6 0.6,1.45 0,0.85 -0.6,1.4 -0.55,0.6 -1.4,0.6 -0.85,0 -1.45,-0.6 -0.55,-0.55 -0.55,-1.4 0,-0.85 0.55,-1.45"
       id="path6377"
       inkscape:connector-curvature="0"
       style="fill:#9ea4ad;stroke:none" />
  </g>
  <g
     id="square-grey"
     inkscape:label="#g7047">
    <path
       d="m 290,426.8 v -1.75 q 0,-7.05 7.05,-7.05 h 65.85 q 3.55,0 5.25,1.85 1.85,1.7 1.85,5.2 v 1.65 q -0.1,-3.25 -1.85,-4.85 -1.7,-1.85 -5.25,-1.85 h -65.85 q -6.9,0 -7.05,6.8"
       id="path6379"
       inkscape:connector-curvature="0"
       style="fill:#b6bec9;stroke:none" />
    <path
       d="m 290,426.8 q 0.15,-6.8 7.05,-6.8 h 65.85 q 3.55,0 5.25,1.85 1.75,1.6 1.85,4.85 v 64.5 q -0.05,3.3 -1.85,4.95 -1.7,1.85 -5.25,1.85 h -65.85 q -6.9,0 -7.05,-6.8 v -64.4"
       id="path6381"
       inkscape:connector-curvature="0"
       style="fill:#c9d0d9;stroke:none" />
  </g>
  <g
     id="btn-red"
     inkscape:label="#g8744">
    <path
       d="m 68.1,318 q 0,-4 -4,-4 H 56.95 L 55,314.35 q -2.05,0.8 -2.05,3.65 v 13.95 q 0,2 1,3 l 1.05,0.7 1.95,0.3 h 7.15 q 2,0 3,-1 1,-1 1,-3 V 318 m 0.45,-4.4 q 1.55,1.45 1.55,4.4 v 13.95 q 0,1.75 -0.55,3 l -1,1.45 q -1.5,1.55 -4.45,1.55 H 56.95 L 55,337.75 q -1.55,-0.35 -2.45,-1.35 l -1.05,-1.45 q -0.55,-1.25 -0.55,-3 V 318 q 0,-2.95 1.6,-4.4 0.9,-1.05 2.45,-1.4 l 1.95,-0.2 h 7.15 q 2.95,0 4.45,1.6"
       id="path6383"
       inkscape:connector-curvature="0"
       style="fill:#cd5d12;stroke:none" />
    <path
       d="m 68.1,318 v 13.95 q 0,2 -1,3 -1,1 -3,1 h -7.15 l -1.95,-0.3 -1.05,-0.7 q -1,-1 -1,-3 V 318 q 0,-2.85 2.05,-3.65 L 56.95,314 h 7.15 q 4,0 4,4 M 55,332.55 q 0.25,1.4 1.95,1.4 h 7.15 q 2,0 2,-2 V 325 H 54.95 v 6.95 l 0.05,0.6"
       id="path6385"
       inkscape:connector-curvature="0"
       style="fill:#fa8132;stroke:none" />
    <path
       d="m 55,332.55 -0.05,-0.6 V 325 H 66.1 v 6.95 q 0,2 -2,2 h -7.15 q -1.7,0 -1.95,-1.4"
       id="path6387"
       inkscape:connector-curvature="0"
       style="fill:#e86a17;stroke:none" />
  </g>
  <g
     id="btn-blue">
    <path
       d="m 80.95,318 q 0,-2.95 1.6,-4.4 0.9,-1.05 2.45,-1.4 l 1.95,-0.2 h 7.15 q 2.95,0 4.45,1.6 1.55,1.45 1.55,4.4 v 13.95 q 0,1.75 -0.55,3 l -1,1.45 q -1.5,1.55 -4.45,1.55 H 86.95 L 85,337.75 q -1.55,-0.35 -2.45,-1.35 l -1.05,-1.45 q -0.55,-1.25 -0.55,-3 V 318 M 85,314.35 q -2.05,0.8 -2.05,3.65 v 13.95 q 0,2 1,3 l 1.05,0.7 1.95,0.3 h 7.15 q 2,0 3,-1 1,-1 1,-3 V 318 q 0,-4 -4,-4 H 86.95 L 85,314.35"
       id="path6389"
       inkscape:connector-curvature="0"
       style="fill:#1989b8;stroke:none" />
    <path
       d="M 85,314.35 86.95,314 h 7.15 q 4,0 4,4 v 13.95 q 0,2 -1,3 -1,1 -3,1 h -7.15 l -1.95,-0.3 -1.05,-0.7 q -1,-1 -1,-3 V 318 q 0,-2.85 2.05,-3.65 m 11.1,17.6 V 325 H 84.95 v 6.95 l 0.05,0.6 q 0.25,1.4 1.95,1.4 h 7.15 q 2,0 2,-2"
       id="path6391"
       inkscape:connector-curvature="0"
       style="fill:#35baf3;stroke:none" />
    <path
       d="m 96.1,331.95 q 0,2 -2,2 h -7.15 q -1.7,0 -1.95,-1.4 l -0.05,-0.6 V 325 H 96.1 v 6.95"
       id="path6393"
       inkscape:connector-curvature="0"
       style="fill:#1ea7e1;stroke:none" />
  </g>
  <g
     id="btn-yellow"
     inkscape:label="#g8759">
    <path
       d="m 128.55,313.6 q 1.55,1.45 1.55,4.4 v 13.95 q 0,1.75 -0.55,3 l -1,1.45 q -1.5,1.55 -4.45,1.55 h -7.15 l -1.95,-0.2 q -1.55,-0.35 -2.45,-1.35 l -1.05,-1.45 q -0.55,-1.25 -0.55,-3 V 318 q 0,-2.95 1.6,-4.4 0.9,-1.05 2.45,-1.4 l 1.95,-0.2 h 7.15 q 2.95,0 4.45,1.6 m -0.45,4.4 q 0,-4 -4,-4 h -7.15 q -1.15,0 -1.95,0.35 -2.05,0.8 -2.05,3.65 v 13.95 q 0,2 1,3 l 1.05,0.7 1.95,0.3 h 7.15 q 2,0 3,-1 1,-1 1,-3 V 318"
       id="path6395"
       inkscape:connector-curvature="0"
       style="fill:#cda400;stroke:none" />
    <path
       d="m 128.1,318 v 13.95 q 0,2 -1,3 -1,1 -3,1 h -7.15 l -1.95,-0.3 -1.05,-0.7 q -1,-1 -1,-3 V 318 q 0,-2.85 2.05,-3.65 0.8,-0.35 1.95,-0.35 h 7.15 q 4,0 4,4 m -2,7 h -11.15 v 6.95 l 0.05,0.6 q 0.25,1.4 1.95,1.4 h 7.15 q 2,0 2,-2 V 325"
       id="path6397"
       inkscape:connector-curvature="0"
       style="fill:#ffd948;stroke:none" />
    <path
       d="m 126.1,325 v 6.95 q 0,2 -2,2 h -7.15 q -1.7,0 -1.95,-1.4 l -0.05,-0.6 V 325 h 11.15"
       id="path6399"
       inkscape:connector-curvature="0"
       style="fill:#ffcc00;stroke:none" />
  </g>
  <g
     id="btn-green"
     inkscape:label="#g8764">
    <path
       d="m 145,314.35 q -2.05,0.8 -2.05,3.65 v 13.95 q 0,2 1,3 l 1.05,0.7 1.95,0.3 h 7.15 q 2,0 3,-1 1,-1 1,-3 V 318 q 0,-4 -4,-4 h -7.15 q -1.15,0 -1.95,0.35 m 0,-2.15 1.95,-0.2 h 7.15 q 2.95,0 4.45,1.6 1.55,1.45 1.55,4.4 v 13.95 q 0,1.75 -0.55,3 l -1,1.45 q -1.5,1.55 -4.45,1.55 h -7.15 l -1.95,-0.2 q -1.55,-0.35 -2.45,-1.35 l -1.05,-1.45 q -0.55,-1.25 -0.55,-3 V 318 q 0,-2.95 1.6,-4.4 0.9,-1.05 2.45,-1.4"
       id="path6401"
       inkscape:connector-curvature="0"
       style="fill:#5fb13a;stroke:none" />
    <path
       d="m 145,314.35 q 0.8,-0.35 1.95,-0.35 h 7.15 q 4,0 4,4 v 13.95 q 0,2 -1,3 -1,1 -3,1 h -7.15 l -1.95,-0.3 -1.05,-0.7 q -1,-1 -1,-3 V 318 q 0,-2.85 2.05,-3.65 M 156.1,325 h -11.15 v 6.95 l 0.05,0.6 q 0.25,1.4 1.95,1.4 h 7.15 q 2,0 2,-2 V 325"
       id="path6403"
       inkscape:connector-curvature="0"
       style="fill:#88e060;stroke:none" />
    <path
       d="m 156.1,325 v 6.95 q 0,2 -2,2 h -7.15 q -1.7,0 -1.95,-1.4 l -0.05,-0.6 V 325 h 11.15"
       id="path6405"
       inkscape:connector-curvature="0"
       style="fill:#73cd4b;stroke:none" />
  </g>
  <g
     id="btn-white"
     inkscape:label="#g8769">
    <path
       d="m 188.1,318 q 0,-4 -4,-4 h -7.15 q -1.15,0 -1.95,0.35 -2.05,0.8 -2.05,3.65 v 13.95 q 0,2 1,3 l 1.05,0.7 1.95,0.3 h 7.15 q 2,0 3,-1 1,-1 1,-3 V 318 m 0.45,-4.4 q 1.55,1.45 1.55,4.4 v 13.95 q 0,1.75 -0.55,3 l -1,1.45 q -1.5,1.55 -4.45,1.55 h -7.15 l -1.95,-0.2 q -1.55,-0.35 -2.45,-1.35 l -1.05,-1.45 q -0.55,-1.25 -0.55,-3 V 318 q 0,-2.95 1.6,-4.4 0.9,-1.05 2.45,-1.4 l 1.95,-0.2 h 7.15 q 2.95,0 4.45,1.6"
       id="path6407"
       inkscape:connector-curvature="0"
       style="fill:#b6b6b6;stroke:none" />
    <path
       d="m 188.1,318 v 13.95 q 0,2 -1,3 -1,1 -3,1 h -7.15 l -1.95,-0.3 -1.05,-0.7 q -1,-1 -1,-3 V 318 q 0,-2.85 2.05,-3.65 0.8,-0.35 1.95,-0.35 h 7.15 q 4,0 4,4 m -11.15,15.95 h 7.15 q 2,0 2,-2 V 325 h -11.15 v 6.95 l 0.05,0.6 q 0.25,1.4 1.95,1.4"
       id="path6409"
       inkscape:connector-curvature="0"
       style="fill:#ffffff;stroke:none" />
    <path
       d="m 176.95,333.95 q -1.7,0 -1.95,-1.4 l -0.05,-0.6 V 325 h 11.15 v 6.95 q 0,2 -2,2 h -7.15"
       id="path6411"
       inkscape:connector-curvature="0"
       style="fill:#ececec;stroke:none" />
  </g>
  <g
     id="round-grey"
     inkscape:label="#g8739">
    <path
       d="M 204.5,373.5 Q 201,370 201,365 q 0,-4.95 3.5,-8.5 3.55,-3.5 8.5,-3.5 5,0 8.5,3.5 3.5,3.5 3.5,8.5 0,4.95 -3.5,8.45 l -0.05,0.05 q -3.5,3.5 -8.45,3.5 -5,0 -8.5,-3.5"
       id="path6413"
       inkscape:connector-curvature="0"
       style="fill:#000000;fill-opacity:0.2;stroke:none" />
  </g>
  <g
     id="btn-grey"
     inkscape:label="#g8772">
    <path
       d="m 205,312.2 1.95,-0.2 h 7.15 q 2.95,0 4.45,1.6 1.55,1.45 1.55,4.4 v 13.95 q 0,1.75 -0.55,3 l -1,1.45 q -1.5,1.55 -4.45,1.55 h -7.15 l -1.95,-0.2 q -1.55,-0.35 -2.45,-1.35 l -1.05,-1.45 q -0.55,-1.25 -0.55,-3 V 318 q 0,-2.95 1.6,-4.4 0.9,-1.05 2.45,-1.4"
       id="path6415"
       inkscape:connector-curvature="0"
       style="fill:#000000;fill-opacity:0.2;stroke:none" />
  </g>
  <g
     id="round-red"
     inkscape:label="#g8717">
    <path
       d="M 70.05,357.9 Q 67.15,355 63,355 q -4.15,0 -7.1,2.9 -2.9,2.95 -2.9,7.1 0,4.15 2.9,7.05 2.95,2.95 7.1,2.95 4.15,0 7.05,-2.95 2.95,-2.9 2.95,-7.05 0,-4.15 -2.95,-7.1 m 1.45,-1.4 q 3.5,3.5 3.5,8.5 0,4.95 -3.5,8.45 l -0.05,0.05 Q 67.95,377 63,377 58,377 54.5,373.5 51,370 51,365 q 0,-4.95 3.5,-8.5 3.55,-3.5 8.5,-3.5 5,0 8.5,3.5"
       id="path6417"
       inkscape:connector-curvature="0"
       style="fill:#cd5d12;stroke:none" />
    <path
       d="m 70.05,357.9 q 2.95,2.95 2.95,7.1 0,4.15 -2.95,7.05 Q 67.15,375 63,375 58.85,375 55.9,372.05 53,369.15 53,365 q 0,-4.15 2.9,-7.1 2.95,-2.9 7.1,-2.9 4.15,0 7.05,2.9 m -1.4,12.75 Q 71,368.3 71,365 H 55 q 0,3.3 2.35,5.65 2.35,2.35 5.65,2.35 3.3,0 5.65,-2.35"
       id="path6419"
       inkscape:connector-curvature="0"
       style="fill:#fa8132;stroke:none" />
    <path
       d="M 68.65,370.65 Q 66.3,373 63,373 59.7,373 57.35,370.65 55,368.3 55,365 h 16 q 0,3.3 -2.35,5.65"
       id="path6421"
       inkscape:connector-curvature="0"
       style="fill:#e86a17;stroke:none" />
  </g>
  <g
     id="round-blue"
     inkscape:label="#g8722">
    <path
       d="m 105,365 q 0,4.95 -3.5,8.45 l -0.05,0.05 Q 97.95,377 93,377 88,377 84.5,373.5 81,370 81,365 q 0,-4.95 3.5,-8.5 3.55,-3.5 8.5,-3.5 5,0 8.5,3.5 3.5,3.5 3.5,8.5 m -4.95,-7.1 Q 97.15,355 93,355 q -4.15,0 -7.1,2.9 -2.9,2.95 -2.9,7.1 0,4.15 2.9,7.05 2.95,2.95 7.1,2.95 4.15,0 7.05,-2.95 2.95,-2.9 2.95,-7.05 0,-4.15 -2.95,-7.1"
       id="path6423"
       inkscape:connector-curvature="0"
       style="fill:#1989b8;stroke:none" />
    <path
       d="m 100.05,357.9 q 2.95,2.95 2.95,7.1 0,4.15 -2.95,7.05 Q 97.15,375 93,375 88.85,375 85.9,372.05 83,369.15 83,365 q 0,-4.15 2.9,-7.1 2.95,-2.9 7.1,-2.9 4.15,0 7.05,2.9 M 85,365 q 0,3.3 2.35,5.65 2.35,2.35 5.65,2.35 3.3,0 5.65,-2.35 Q 101,368.3 101,365 H 85"
       id="path6425"
       inkscape:connector-curvature="0"
       style="fill:#35baf3;stroke:none" />
    <path
       d="m 85,365 h 16 q 0,3.3 -2.35,5.65 Q 96.3,373 93,373 89.7,373 87.35,370.65 85,368.3 85,365"
       id="path6427"
       inkscape:connector-curvature="0"
       style="fill:#1ea7e1;stroke:none" />
  </g>
  <g
     id="round-yellow"
     inkscape:label="#g8727">
    <path
       d="m 113,365 q 0,-4.15 2.9,-7.1 2.95,-2.9 7.1,-2.9 4.15,0 7.05,2.9 2.95,2.95 2.95,7.1 0,4.15 -2.95,7.05 -2.9,2.95 -7.05,2.95 -4.15,0 -7.1,-2.95 -2.9,-2.9 -2.9,-7.05 m 2,0 q 0,3.3 2.35,5.65 2.35,2.35 5.65,2.35 3.3,0 5.65,-2.35 Q 131,368.3 131,365 h -16"
       id="path6429"
       inkscape:connector-curvature="0"
       style="fill:#ffd948;stroke:none" />
    <path
       d="m 115,365 h 16 q 0,3.3 -2.35,5.65 -2.35,2.35 -5.65,2.35 -3.3,0 -5.65,-2.35 Q 115,368.3 115,365"
       id="path6431"
       inkscape:connector-curvature="0"
       style="fill:#ffcc00;stroke:none" />
    <path
       d="m 111,365 q 0,-4.95 3.5,-8.5 3.55,-3.5 8.5,-3.5 5,0 8.5,3.5 3.5,3.5 3.5,8.5 0,4.95 -3.5,8.45 l -0.05,0.05 q -3.5,3.5 -8.45,3.5 -5,0 -8.5,-3.5 Q 111,370 111,365 m 2,0 q 0,4.15 2.9,7.05 2.95,2.95 7.1,2.95 4.15,0 7.05,-2.95 2.95,-2.9 2.95,-7.05 0,-4.15 -2.95,-7.1 -2.9,-2.9 -7.05,-2.9 -4.15,0 -7.1,2.9 -2.9,2.95 -2.9,7.1"
       id="path6433"
       inkscape:connector-curvature="0"
       style="fill:#cda400;stroke:none" />
  </g>
  <g
     id="round-green"
     inkscape:label="#g8732">
    <path
       d="m 161.5,356.5 q 3.5,3.5 3.5,8.5 0,4.95 -3.5,8.45 l -0.05,0.05 q -3.5,3.5 -8.45,3.5 -5,0 -8.5,-3.5 -3.5,-3.5 -3.5,-8.5 0,-4.95 3.5,-8.5 3.55,-3.5 8.5,-3.5 5,0 8.5,3.5 m -1.45,1.4 q -2.9,-2.9 -7.05,-2.9 -4.15,0 -7.1,2.9 -2.9,2.95 -2.9,7.1 0,4.15 2.9,7.05 2.95,2.95 7.1,2.95 4.15,0 7.05,-2.95 2.95,-2.9 2.95,-7.05 0,-4.15 -2.95,-7.1"
       id="path6435"
       inkscape:connector-curvature="0"
       style="fill:#5fb13a;stroke:none" />
    <path
       d="m 160.05,357.9 q 2.95,2.95 2.95,7.1 0,4.15 -2.95,7.05 -2.9,2.95 -7.05,2.95 -4.15,0 -7.1,-2.95 -2.9,-2.9 -2.9,-7.05 0,-4.15 2.9,-7.1 2.95,-2.9 7.1,-2.9 4.15,0 7.05,2.9 m -1.4,12.75 Q 161,368.3 161,365 h -16 q 0,3.3 2.35,5.65 2.35,2.35 5.65,2.35 3.3,0 5.65,-2.35"
       id="path6437"
       inkscape:connector-curvature="0"
       style="fill:#88e060;stroke:none" />
    <path
       d="M 158.65,370.65 Q 156.3,373 153,373 q -3.3,0 -5.65,-2.35 Q 145,368.3 145,365 h 16 q 0,3.3 -2.35,5.65"
       id="path6439"
       inkscape:connector-curvature="0"
       style="fill:#73cd4b;stroke:none" />
  </g>
  <path
     style="fill:#b6b6b6;stroke:none"
     inkscape:connector-curvature="0"
     id="path6441"
     d="m 190.05,357.9 q -2.9,-2.9 -7.05,-2.9 -4.15,0 -7.1,2.9 -2.9,2.95 -2.9,7.1 0,4.15 2.9,7.05 2.95,2.95 7.1,2.95 4.15,0 7.05,-2.95 2.95,-2.9 2.95,-7.05 0,-4.15 -2.95,-7.1 m 1.45,-1.4 q 3.5,3.5 3.5,8.5 0,4.95 -3.5,8.45 l -0.05,0.05 q -3.5,3.5 -8.45,3.5 -5,0 -8.5,-3.5 -3.5,-3.5 -3.5,-8.5 0,-4.95 3.5,-8.5 3.55,-3.5 8.5,-3.5 5,0 8.5,3.5" />
  <g
     id="round-white"
     inkscape:label="#g8736">
    <path
       d="m 190.05,357.9 q 2.95,2.95 2.95,7.1 0,4.15 -2.95,7.05 -2.9,2.95 -7.05,2.95 -4.15,0 -7.1,-2.95 -2.9,-2.9 -2.9,-7.05 0,-4.15 2.9,-7.1 2.95,-2.9 7.1,-2.9 4.15,0 7.05,2.9 m -1.4,12.75 Q 191,368.3 191,365 h -16 q 0,3.3 2.35,5.65 2.35,2.35 5.65,2.35 3.3,0 5.65,-2.35"
       id="path6443"
       inkscape:connector-curvature="0"
       style="fill:#ffffff;stroke:none" />
    <path
       d="M 188.65,370.65 Q 186.3,373 183,373 q -3.3,0 -5.65,-2.35 Q 175,368.3 175,365 h 16 q 0,3.3 -2.35,5.65"
       id="path6445"
       inkscape:connector-curvature="0"
       style="fill:#ececec;stroke:none" />
  </g>
  <g
     id="hand"
     inkscape:label="#g12388">
    <path
       d="m 174.8,157.05 0.05,0.55 q -0.05,5.6 -2.5,8.35 -2.5,3.05 -7.45,2.9 h -0.2 q -3.5,-0.5 -5,-3.7 l -0.6,-1.35 q -8.85,-2.55 -13.65,-9.1 -0.45,-0.65 -0.35,-1.45 0.05,-0.45 0.25,-0.75 l 0.1,0.2 q 4.8,6.55 13.65,9.1 l 0.6,1.35 q 1.5,3.2 5,3.7 h 0.2 q 4.95,0.15 7.45,-2.9 2.1,-2.4 2.45,-6.9 m -26.95,-8.8 -1.75,-1.55 q -0.55,-0.4 -0.7,-1 -0.2,-0.65 0.05,-1.25 l 0.15,-0.35 0.5,0.6 q 1.85,1.4 3.1,3.15 h -0.25 q -0.6,0.05 -1.1,0.4"
       id="path6447"
       inkscape:connector-curvature="0"
       style="fill:#000000;fill-opacity:0.10196078;stroke:none" />
    <path
       d="m 147.85,148.25 q 0.5,-0.35 1.1,-0.4 h 0.25 q -1.25,-1.75 -3.1,-3.15 l -0.5,-0.6 -0.2,-0.4 q -0.2,-0.65 0.05,-1.25 0.55,-2.05 3.65,-3.3 l -0.15,0.05 0.05,-0.05 1,-0.2 0.95,0.3 3,2.3 q 4.7,-0.7 7.85,0.7 l 0.75,0.6 q 2.5,3.15 4.8,8.25 2.65,1.5 6.1,2.55 l 1.05,0.75 q 0.35,0.5 0.35,1.2 l -0.05,1.45 q -0.35,4.5 -2.45,6.9 -2.5,3.05 -7.45,2.9 h -0.2 q -3.5,-0.5 -5,-3.7 l -0.6,-1.35 q -8.85,-2.55 -13.65,-9.1 l -0.1,-0.2 q -0.35,-0.6 -0.25,-1.25 0.05,-0.8 0.7,-1.3 l 2,-1.65 0.05,-0.05 m 17.1,16.6 q 7.8,0.2 7.9,-9.3 -4.05,-1.25 -7.1,-3.1 -2.25,-5.2 -4.75,-8.35 -1.5,-0.65 -3.35,-0.75 h -1.25 l -2.45,0.2 -0.85,0.15 q -0.9,-1.35 -3.2,-2.75 l -0.05,0.05 q -2.1,0.8 -2.55,2.1 4.45,3.4 5.8,8.45 -2,-0.3 -4.05,-1.7 l -2,1.65 q 4.7,6.35 13.5,8.6 l 0.95,2.2 q 1.05,2.25 3.45,2.55"
       id="path6449"
       inkscape:connector-curvature="0"
       style="fill:#a1a1a1;stroke:none" />
    <path
       d="m 164.95,164.85 q -2.4,-0.3 -3.45,-2.55 l -0.95,-2.2 q -8.8,-2.25 -13.5,-8.6 l 2,-1.65 q 2.05,1.4 4.05,1.7 -1.35,-5.05 -5.8,-8.45 0.45,-1.3 2.55,-2.1 l 0.05,-0.05 q 2.3,1.4 3.2,2.75 l 0.85,-0.15 2.45,-0.2 h 1.25 q 1.85,0.1 3.35,0.75 2.5,3.15 4.75,8.35 3.05,1.85 7.1,3.1 -0.1,9.5 -7.9,9.3"
       id="path6451"
       inkscape:connector-curvature="0"
       style="fill:#e5e5e5;stroke:none" />
  </g>
  <g
     id="arrow-white"
     inkscape:label="#g12392">
    <path
       d="m 192.95,142 q 0.8,0 1.4,0.55 l 15.8,14.25 0.6,1 -0.05,1.2 -0.75,0.9 -1.15,0.35 h -8.35 l -6.2,4.85 q -0.65,0.45 -1.4,0.4 -0.8,-0.05 -1.3,-0.65 Q 191,164.3 191,163.5 V 144 q 0,-0.8 0.6,-1.4 0.55,-0.6 1.35,-0.6 m 0.05,21.5 6.75,-5.25 h 9.05 L 193,144 v 19.5"
       id="path6453"
       inkscape:connector-curvature="0"
       style="fill:#b7b7b7;stroke:none" />
    <path
       d="M 193,163.5 V 144 l 15.8,14.25 h -9.05 L 193,163.5"
       id="path6455"
       inkscape:connector-curvature="0"
       style="fill:#ffffff;stroke:none" />
  </g>
  <g
     id="arrow-white-shadow"
     inkscape:label="#g12397">
    <path
       d="M 221,163.65 V 144 q 0,-0.8 0.6,-1.4 0.55,-0.6 1.35,-0.6 0.8,0 1.4,0.55 l 15.8,14.25 0.6,1 -0.05,1.2 -0.55,0.8 -0.2,0.1 -1.15,0.35 h -8.35 l -6.2,4.85 q -0.65,0.45 -1.4,0.4 -0.8,-0.05 -1.3,-0.65 -0.55,-0.55 -0.55,-1.2 m 8.75,-5.4 h 9.05 L 223,144 v 19.5 l 6.75,-5.25"
       id="path6457"
       inkscape:connector-curvature="0"
       style="fill:#b7b7b7;stroke:none" />
    <path
       d="m 240.15,159.8 0.6,1 -0.05,1.2 -0.75,0.9 -1.15,0.35 h -8.35 l -6.2,4.85 q -0.65,0.45 -1.4,0.4 -0.8,-0.05 -1.3,-0.65 Q 221,167.3 221,166.5 v -2.85 q 0,0.65 0.55,1.2 0.5,0.6 1.3,0.65 0.75,0.05 1.4,-0.4 l 6.2,-4.85 h 8.35 l 1.15,-0.35 0.2,-0.1"
       id="path6459"
       inkscape:connector-curvature="0"
       style="fill:#000000;fill-opacity:0.2;stroke:none" />
    <path
       d="M 229.75,158.25 223,163.5 V 144 l 15.8,14.25 h -9.05"
       id="path6461"
       inkscape:connector-curvature="0"
       style="fill:#ffffff;stroke:none" />
  </g>
  <g
     id="arrow-3D"
     inkscape:label="#g12402">
    <path
       d="m 193,184 v 19.5 l 6.75,-5.25 h 9.05 L 193,184 m 1.35,-1.45 15.8,14.25 0.6,1 -0.05,1.2 -0.75,0.9 -1.15,0.35 h -8.35 l -6.2,4.85 q -0.65,0.45 -1.4,0.4 -0.8,-0.05 -1.3,-0.65 Q 191,204.3 191,203.5 V 184 q 0,-0.8 0.6,-1.4 0.55,-0.6 1.35,-0.6 0.8,0 1.4,0.55"
       id="path6463"
       inkscape:connector-curvature="0"
       style="fill:#b7b7b7;stroke:none" />
    <path
       d="M 199.75,198.25 193,203.5 V 184 l 6.75,14.25"
       id="path6465"
       inkscape:connector-curvature="0"
       style="fill:#e6e6e6;stroke:none" />
    <path
       d="m 193,184 15.8,14.25 h -9.05 L 193,184"
       id="path6467"
       inkscape:connector-curvature="0"
       style="fill:#ffffff;stroke:none" />
  </g>
  <g
     id="arow-3D-shadow"
     inkscape:label="#g12408">
    <path
       d="M 221,203.7 V 184 q 0,-0.8 0.6,-1.4 0.55,-0.6 1.35,-0.6 0.8,0 1.4,0.55 l 15.8,14.25 0.6,1 -0.05,1.2 -0.55,0.8 -0.2,0.1 -1.15,0.35 h -8.35 l -6.2,4.85 q -0.65,0.45 -1.4,0.4 -0.8,-0.05 -1.3,-0.65 Q 221,204.3 221,203.7 m 2,-19.7 v 19.5 l 6.75,-5.25 h 9.05 L 223,184"
       id="path6469"
       inkscape:connector-curvature="0"
       style="fill:#b7b7b7;stroke:none" />
    <path
       d="m 240.15,199.8 0.6,1 -0.05,1.2 -0.75,0.9 -1.15,0.35 h -8.35 l -6.2,4.85 q -0.65,0.45 -1.4,0.4 -0.8,-0.05 -1.3,-0.65 Q 221,207.3 221,206.5 v -2.8 q 0,0.6 0.55,1.15 0.5,0.6 1.3,0.65 0.75,0.05 1.4,-0.4 l 6.2,-4.85 h 8.35 l 1.15,-0.35 0.2,-0.1"
       id="path6471"
       inkscape:connector-curvature="0"
       style="fill:#000000;fill-opacity:0.2;stroke:none" />
    <path
       d="M 229.75,198.25 223,203.5 V 184 l 6.75,14.25"
       id="path6473"
       inkscape:connector-curvature="0"
       style="fill:#e6e6e6;stroke:none" />
    <path
       d="M 229.75,198.25 223,184 l 15.8,14.25 h -9.05"
       id="path6475"
       inkscape:connector-curvature="0"
       style="fill:#ffffff;stroke:none" />
  </g>
  <g
     id="cross-black"
     inkscape:label="#g12383">
    <path
       d="m 288,148 v -4.95 q -3.45,0.3 -6.05,2.9 V 146 q -2.6,2.5 -2.9,6 H 284 v 2 h -4.95 q 0.3,3.55 2.9,6.1 2.6,2.55 6.05,2.85 V 158 h 2 v 4.95 l 2.35,-0.45 q 2.05,-0.75 3.8,-2.4 2.55,-2.55 2.85,-6.1 h -5 v -2 h 5 q -0.3,-3.5 -2.85,-6.05 -1.7,-1.7 -3.8,-2.4 L 290,143.05 V 148 h -2 m 5,-6.35 h -0.05 q 2.5,0.8 4.6,2.9 3.15,3.15 3.45,7.45 h 3.5 v 2 h -3.45 q -0.35,4.35 -3.5,7.5 v 0.05 q -2.05,2 -4.55,2.85 h -0.05 L 290,165 v 3.5 h -2 V 165 q -4.25,-0.35 -7.45,-3.45 -3.2,-3.15 -3.5,-7.55 h -3.55 v -2 h 3.55 q 0.3,-4.3 3.5,-7.45 3.2,-3.2 7.45,-3.5 v -3.55 h 2 v 3.55 l 3,0.6"
       id="path6477"
       inkscape:connector-curvature="0"
       style="fill:#333333;stroke:none" />
  </g>
  <g
     id="cross-transp"
     inkscape:label="#g12361">
    <path
       d="m 338,191.05 v -3.55 h 2 v 3.55 l 3,0.6 h -0.05 q 2.5,0.8 4.6,2.9 3.15,3.15 3.45,7.45 h 3.5 v 2 h -3.45 q -0.35,4.35 -3.5,7.5 v 0.05 q -2.05,2 -4.55,2.85 h -0.05 L 340,215 v 3.5 h -2 V 215 q -4.25,-0.35 -7.45,-3.45 -3.2,-3.15 -3.5,-7.55 h -3.55 v -2 h 3.55 q 0.3,-4.3 3.5,-7.45 3.2,-3.2 7.45,-3.5 m -6.05,4.9 V 196 q -2.6,2.5 -2.9,6 H 334 v 2 h -4.95 q 0.3,3.55 2.9,6.1 2.6,2.55 6.05,2.85 V 208 h 2 v 4.95 l 2.35,-0.45 q 2.05,-0.75 3.8,-2.4 2.55,-2.55 2.85,-6.1 h -5 v -2 h 5 q -0.3,-3.5 -2.85,-6.05 -1.7,-1.7 -3.8,-2.4 L 340,193.05 V 198 h -2 v -4.95 q -3.45,0.3 -6.05,2.9"
       id="path6479"
       inkscape:connector-curvature="0"
       style="fill:#aae9ff;fill-opacity:0.30196078;stroke:none" />
  </g>
  <g
     id="cross-red"
     inkscape:label="#g12380">
    <path
       d="m 343,141.65 h -0.05 q 2.5,0.8 4.6,2.9 3.15,3.15 3.45,7.45 h 3.5 v 2 h -3.45 q -0.35,4.35 -3.5,7.5 v 0.05 q -2.05,2 -4.55,2.85 h -0.05 L 340,165 v 3.5 h -2 V 165 q -4.25,-0.35 -7.45,-3.45 -3.2,-3.15 -3.5,-7.55 h -3.55 v -2 h 3.55 q 0.3,-4.3 3.5,-7.45 3.2,-3.2 7.45,-3.5 v -3.55 h 2 v 3.55 l 3,0.6 m -11.05,4.3 V 146 q -2.6,2.5 -2.9,6 H 334 v 2 h -4.95 q 0.3,3.55 2.9,6.1 2.6,2.55 6.05,2.85 V 158 h 2 v 4.95 l 2.35,-0.45 q 2.05,-0.75 3.8,-2.4 2.55,-2.55 2.85,-6.1 h -5 v -2 h 5 q -0.3,-3.5 -2.85,-6.05 -1.7,-1.7 -3.8,-2.4 L 340,143.05 V 148 h -2 v -4.95 q -3.45,0.3 -6.05,2.9"
       id="path6481"
       inkscape:connector-curvature="0"
       style="fill:#e86a17;stroke:none" />
  </g>
  <g
     id="cross-white"
     inkscape:label="#g12358">
    <path
       d="m 288,187.5 h 2 v 3.55 l 3,0.6 h -0.05 q 2.5,0.8 4.6,2.9 3.15,3.15 3.45,7.45 h 3.5 v 2 h -3.45 q -0.35,4.35 -3.5,7.5 v 0.05 q -2.05,2 -4.55,2.85 h -0.05 L 290,215 v 3.5 h -2 V 215 q -4.25,-0.35 -7.45,-3.45 -3.2,-3.15 -3.5,-7.55 h -3.55 v -2 h 3.55 q 0.3,-4.3 3.5,-7.45 3.2,-3.2 7.45,-3.5 v -3.55 m -6.05,8.45 V 196 q -2.6,2.5 -2.9,6 H 284 v 2 h -4.95 q 0.3,3.55 2.9,6.1 2.6,2.55 6.05,2.85 V 208 h 2 v 4.95 l 2.35,-0.45 q 2.05,-0.75 3.8,-2.4 2.55,-2.55 2.85,-6.1 h -5 v -2 h 5 q -0.3,-3.5 -2.85,-6.05 -1.7,-1.7 -3.8,-2.4 L 290,193.05 V 198 h -2 v -4.95 q -3.45,0.3 -6.05,2.9"
       id="path6483"
       inkscape:connector-curvature="0"
       style="fill:#ffffff;stroke:none" />
  </g>
  <g
     id="cross-transp-full"
     inkscape:label="#g12369">
    <path
       d="m 440,185.5 q 0.85,0 1.45,0.6 0.55,0.55 0.55,1.4 v 1.8 l 1.65,0.45 0.3,0.15 q 2.7,0.95 5.05,3.25 2.95,2.95 3.75,6.85 h 1.75 q 0.85,0 1.45,0.6 0.55,0.55 0.55,1.4 v 2 q 0,0.85 -0.55,1.45 -0.6,0.55 -1.45,0.55 h -1.7 q -0.8,3.8 -3.6,6.75 l -0.25,0.25 q -2.4,2.3 -5.3,3.3 l -0.35,0.1 -1.3,0.35 v 1.75 q 0,0.85 -0.55,1.45 -0.6,0.55 -1.45,0.55 h -2 q -0.85,0 -1.4,-0.55 -0.6,-0.6 -0.6,-1.45 v -1.75 q -3.85,-0.85 -6.85,-3.75 -3.05,-3.05 -3.85,-7 h -1.8 q -0.85,0 -1.4,-0.55 -0.6,-0.6 -0.6,-1.45 v -2 q 0,-0.85 0.6,-1.4 0.55,-0.6 1.4,-0.6 h 1.8 q 0.8,-3.9 3.85,-6.85 3,-3.05 6.85,-3.85 v -1.8 q 0,-0.85 0.6,-1.4 0.55,-0.6 1.4,-0.6 h 2 m -8.05,10.45 q 2.6,-2.6 6.05,-2.9 V 198 h 2 v -4.95 l 2.35,0.5 q 2.1,0.7 3.8,2.4 2.55,2.55 2.85,6.05 h -5 v 2 h 5 q -0.3,3.55 -2.85,6.1 -1.75,1.65 -3.8,2.4 L 440,212.95 V 208 h -2 v 4.95 q -3.45,-0.3 -6.05,-2.85 -2.6,-2.55 -2.9,-6.1 H 434 v -2 h -4.95 q 0.3,-3.5 2.9,-6 v -0.05 m 11.05,-4.3 -3,-0.6 v -3.55 h -2 v 3.55 q -4.25,0.3 -7.45,3.5 -3.2,3.15 -3.5,7.45 h -3.55 v 2 h 3.55 q 0.3,4.4 3.5,7.55 3.2,3.1 7.45,3.45 v 3.5 h 2 V 215 l 2.95,-0.6 H 443 q 2.5,-0.85 4.55,-2.85 v -0.05 q 3.15,-3.15 3.5,-7.5 h 3.45 v -2 H 451 q -0.3,-4.3 -3.45,-7.45 -2.1,-2.1 -4.6,-2.9 H 443"
       id="path6485"
       inkscape:connector-curvature="0"
       style="fill:#bde7f5;fill-opacity:0.8;stroke:none" />
    <path
       d="m 443,191.65 h -0.05 q 2.5,0.8 4.6,2.9 3.15,3.15 3.45,7.45 h 3.5 v 2 h -3.45 q -0.35,4.35 -3.5,7.5 v 0.05 q -2.05,2 -4.55,2.85 h -0.05 L 440,215 v 3.5 h -2 V 215 q -4.25,-0.35 -7.45,-3.45 -3.2,-3.15 -3.5,-7.55 h -3.55 v -2 h 3.55 q 0.3,-4.3 3.5,-7.45 3.2,-3.2 7.45,-3.5 v -3.55 h 2 v 3.55 l 3,0.6 m -11.05,4.3 V 196 q -2.6,2.5 -2.9,6 H 434 v 2 h -4.95 q 0.3,3.55 2.9,6.1 2.6,2.55 6.05,2.85 V 208 h 2 v 4.95 l 2.35,-0.45 q 2.05,-0.75 3.8,-2.4 2.55,-2.55 2.85,-6.1 h -5 v -2 h 5 q -0.3,-3.5 -2.85,-6.05 -1.7,-1.7 -3.8,-2.4 L 440,193.05 V 198 h -2 v -4.95 q -3.45,0.3 -6.05,2.9"
       id="path6487"
       inkscape:connector-curvature="0"
       style="fill:#aae9ff;fill-opacity:0.30196078;stroke:none" />
  </g>
  <g
     id="cross-red-full"
     inkscape:label="#g12373">
    <path
       d="m 431.95,145.95 q 2.6,-2.6 6.05,-2.9 V 148 h 2 v -4.95 l 2.35,0.5 q 2.1,0.7 3.8,2.4 2.55,2.55 2.85,6.05 h -5 v 2 h 5 q -0.3,3.55 -2.85,6.1 -1.75,1.65 -3.8,2.4 L 440,162.95 V 158 h -2 v 4.95 q -3.45,-0.3 -6.05,-2.85 -2.6,-2.55 -2.9,-6.1 H 434 v -2 h -4.95 q 0.3,-3.5 2.9,-6 v -0.05 M 440,135.5 q 0.85,0 1.45,0.6 0.55,0.55 0.55,1.4 v 1.8 l 1.65,0.45 0.3,0.15 q 2.7,0.95 5.05,3.25 2.95,2.95 3.75,6.85 h 1.75 q 0.85,0 1.45,0.6 0.55,0.55 0.55,1.4 v 2 q 0,0.85 -0.55,1.45 -0.6,0.55 -1.45,0.55 h -1.7 q -0.8,3.8 -3.6,6.75 l -0.25,0.25 q -2.4,2.3 -5.3,3.3 l -0.35,0.1 -1.3,0.35 v 1.75 q 0,0.85 -0.55,1.45 -0.6,0.55 -1.45,0.55 h -2 q -0.85,0 -1.4,-0.55 -0.6,-0.6 -0.6,-1.45 v -1.75 q -3.85,-0.85 -6.85,-3.75 -3.05,-3.05 -3.85,-7 h -1.8 q -0.85,0 -1.4,-0.55 -0.6,-0.6 -0.6,-1.45 v -2 q 0,-0.85 0.6,-1.4 0.55,-0.6 1.4,-0.6 h 1.8 q 0.8,-3.9 3.85,-6.85 3,-3.05 6.85,-3.85 v -1.8 q 0,-0.85 0.6,-1.4 0.55,-0.6 1.4,-0.6 h 2 m 3,6.15 -3,-0.6 v -3.55 h -2 v 3.55 q -4.25,0.3 -7.45,3.5 -3.2,3.15 -3.5,7.45 h -3.55 v 2 h 3.55 q 0.3,4.4 3.5,7.55 3.2,3.1 7.45,3.45 v 3.5 h 2 V 165 l 2.95,-0.6 H 443 q 2.5,-0.85 4.55,-2.85 v -0.05 q 3.15,-3.15 3.5,-7.5 h 3.45 v -2 H 451 q -0.3,-4.3 -3.45,-7.45 -2.1,-2.1 -4.6,-2.9 H 443"
       id="path6489"
       inkscape:connector-curvature="0"
       style="fill:#cd5d12;stroke:none" />
    <path
       d="m 443,141.65 h -0.05 q 2.5,0.8 4.6,2.9 3.15,3.15 3.45,7.45 h 3.5 v 2 h -3.45 q -0.35,4.35 -3.5,7.5 v 0.05 q -2.05,2 -4.55,2.85 h -0.05 L 440,165 v 3.5 h -2 V 165 q -4.25,-0.35 -7.45,-3.45 -3.2,-3.15 -3.5,-7.55 h -3.55 v -2 h 3.55 q 0.3,-4.3 3.5,-7.45 3.2,-3.2 7.45,-3.5 v -3.55 h 2 v 3.55 l 3,0.6 m -11.05,4.3 V 146 q -2.6,2.5 -2.9,6 H 434 v 2 h -4.95 q 0.3,3.55 2.9,6.1 2.6,2.55 6.05,2.85 V 158 h 2 v 4.95 l 2.35,-0.45 q 2.05,-0.75 3.8,-2.4 2.55,-2.55 2.85,-6.1 h -5 v -2 h 5 q -0.3,-3.5 -2.85,-6.05 -1.7,-1.7 -3.8,-2.4 L 440,143.05 V 148 h -2 v -4.95 q -3.45,0.3 -6.05,2.9"
       id="path6491"
       inkscape:connector-curvature="0"
       style="fill:#fa8132;stroke:none" />
  </g>
  <g
     id="cross-black-full"
     inkscape:label="#g12377">
    <path
       d="M 381.95,145.95 V 146 q -2.6,2.5 -2.9,6 H 384 v 2 h -4.95 q 0.3,3.55 2.9,6.1 2.6,2.55 6.05,2.85 V 158 h 2 v 4.95 l 2.35,-0.45 q 2.05,-0.75 3.8,-2.4 2.55,-2.55 2.85,-6.1 h -5 v -2 h 5 q -0.3,-3.5 -2.85,-6.05 -1.7,-1.7 -3.8,-2.4 L 390,143.05 V 148 h -2 v -4.95 q -3.45,0.3 -6.05,2.9 M 390,137.5 v 3.55 l 3,0.6 h -0.05 q 2.5,0.8 4.6,2.9 3.15,3.15 3.45,7.45 h 3.5 v 2 h -3.45 q -0.35,4.35 -3.5,7.5 v 0.05 q -2.05,2 -4.55,2.85 h -0.05 L 390,165 v 3.5 h -2 V 165 q -4.25,-0.35 -7.45,-3.45 -3.2,-3.15 -3.5,-7.55 h -3.55 v -2 h 3.55 q 0.3,-4.3 3.5,-7.45 3.2,-3.2 7.45,-3.5 v -3.55 h 2"
       id="path6493"
       inkscape:connector-curvature="0"
       style="fill:#666666;stroke:none" />
    <path
       d="m 390,137.5 h -2 v 3.55 q -4.25,0.3 -7.45,3.5 -3.2,3.15 -3.5,7.45 h -3.55 v 2 h 3.55 q 0.3,4.4 3.5,7.55 3.2,3.1 7.45,3.45 v 3.5 h 2 V 165 l 2.95,-0.6 H 393 q 2.5,-0.85 4.55,-2.85 v -0.05 q 3.15,-3.15 3.5,-7.5 h 3.45 v -2 H 401 q -0.3,-4.3 -3.45,-7.45 -2.1,-2.1 -4.6,-2.9 H 393 l -3,-0.6 v -3.55 m -8.05,8.45 q 2.6,-2.6 6.05,-2.9 V 148 h 2 v -4.95 l 2.35,0.5 q 2.1,0.7 3.8,2.4 2.55,2.55 2.85,6.05 h -5 v 2 h 5 q -0.3,3.55 -2.85,6.1 -1.75,1.65 -3.8,2.4 L 390,162.95 V 158 h -2 v 4.95 q -3.45,-0.3 -6.05,-2.85 -2.6,-2.55 -2.9,-6.1 H 384 v -2 h -4.95 q 0.3,-3.5 2.9,-6 v -0.05 M 390,135.5 q 0.85,0 1.45,0.6 0.55,0.55 0.55,1.4 v 1.8 l 1.65,0.45 0.3,0.15 q 2.7,0.95 5.05,3.25 2.95,2.95 3.75,6.85 h 1.75 q 0.85,0 1.45,0.6 0.55,0.55 0.55,1.4 v 2 q 0,0.85 -0.55,1.45 -0.6,0.55 -1.45,0.55 h -1.7 q -0.8,3.8 -3.6,6.75 l -0.25,0.25 q -2.4,2.3 -5.3,3.3 l -0.35,0.1 -1.3,0.35 v 1.75 q 0,0.85 -0.55,1.45 -0.6,0.55 -1.45,0.55 h -2 q -0.85,0 -1.4,-0.55 -0.6,-0.6 -0.6,-1.45 v -1.75 q -3.85,-0.85 -6.85,-3.75 -3.05,-3.05 -3.85,-7 h -1.8 q -0.85,0 -1.4,-0.55 -0.6,-0.6 -0.6,-1.45 v -2 q 0,-0.85 0.6,-1.4 0.55,-0.6 1.4,-0.6 h 1.8 q 0.8,-3.9 3.85,-6.85 3,-3.05 6.85,-3.85 v -1.8 q 0,-0.85 0.6,-1.4 0.55,-0.6 1.4,-0.6 h 2"
       id="path6495"
       inkscape:connector-curvature="0"
       style="fill:#414141;stroke:none" />
  </g>
  <g
     id="cross-white-full"
     inkscape:label="#g12365">
    <path
       d="m 393,191.65 h -0.05 q 2.5,0.8 4.6,2.9 3.15,3.15 3.45,7.45 h 3.5 v 2 h -3.45 q -0.35,4.35 -3.5,7.5 v 0.05 q -2.05,2 -4.55,2.85 h -0.05 L 390,215 v 3.5 h -2 V 215 q -4.25,-0.35 -7.45,-3.45 -3.2,-3.15 -3.5,-7.55 h -3.55 v -2 h 3.55 q 0.3,-4.3 3.5,-7.45 3.2,-3.2 7.45,-3.5 v -3.55 h 2 v 3.55 l 3,0.6 m -11.05,4.3 V 196 q -2.6,2.5 -2.9,6 H 384 v 2 h -4.95 q 0.3,3.55 2.9,6.1 2.6,2.55 6.05,2.85 V 208 h 2 v 4.95 l 2.35,-0.45 q 2.05,-0.75 3.8,-2.4 2.55,-2.55 2.85,-6.1 h -5 v -2 h 5 q -0.3,-3.5 -2.85,-6.05 -1.7,-1.7 -3.8,-2.4 L 390,193.05 V 198 h -2 v -4.95 q -3.45,0.3 -6.05,2.9"
       id="path6497"
       inkscape:connector-curvature="0"
       style="fill:#ffffff;stroke:none" />
    <path
       d="m 381.95,195.95 q 2.6,-2.6 6.05,-2.9 V 198 h 2 v -4.95 l 2.35,0.5 q 2.1,0.7 3.8,2.4 2.55,2.55 2.85,6.05 h -5 v 2 h 5 q -0.3,3.55 -2.85,6.1 -1.75,1.65 -3.8,2.4 L 390,212.95 V 208 h -2 v 4.95 q -3.45,-0.3 -6.05,-2.85 -2.6,-2.55 -2.9,-6.1 H 384 v -2 h -4.95 q 0.3,-3.5 2.9,-6 v -0.05 M 390,185.5 q 0.85,0 1.45,0.6 0.55,0.55 0.55,1.4 v 1.8 l 1.65,0.45 0.3,0.15 q 2.7,0.95 5.05,3.25 2.95,2.95 3.75,6.85 h 1.75 q 0.85,0 1.45,0.6 0.55,0.55 0.55,1.4 v 2 q 0,0.85 -0.55,1.45 -0.6,0.55 -1.45,0.55 h -1.7 q -0.8,3.8 -3.6,6.75 l -0.25,0.25 q -2.4,2.3 -5.3,3.3 l -0.35,0.1 -1.3,0.35 v 1.75 q 0,0.85 -0.55,1.45 -0.6,0.55 -1.45,0.55 h -2 q -0.85,0 -1.4,-0.55 -0.6,-0.6 -0.6,-1.45 v -1.75 q -3.85,-0.85 -6.85,-3.75 -3.05,-3.05 -3.85,-7 h -1.8 q -0.85,0 -1.4,-0.55 -0.6,-0.6 -0.6,-1.45 v -2 q 0,-0.85 0.6,-1.4 0.55,-0.6 1.4,-0.6 h 1.8 q 0.8,-3.9 3.85,-6.85 3,-3.05 6.85,-3.85 v -1.8 q 0,-0.85 0.6,-1.4 0.55,-0.6 1.4,-0.6 h 2 m 3,6.15 -3,-0.6 v -3.55 h -2 v 3.55 q -4.25,0.3 -7.45,3.5 -3.2,3.15 -3.5,7.45 h -3.55 v 2 h 3.55 q 0.3,4.4 3.5,7.55 3.2,3.1 7.45,3.45 v 3.5 h 2 V 215 l 2.95,-0.6 H 393 q 2.5,-0.85 4.55,-2.85 v -0.05 q 3.15,-3.15 3.5,-7.5 h 3.45 v -2 H 401 q -0.3,-4.3 -3.45,-7.45 -2.1,-2.1 -4.6,-2.9 H 393"
       id="path6499"
       inkscape:connector-curvature="0"
       style="fill:#c9c9c9;stroke:none" />
  </g>
  <g
     id="prog-red-right"
     inkscape:label="#g8787">
    <path
       d="M 92.95,73 V 62 q 4,0 4,4 v 13.95 q 0,2 -1,3 l -0.85,0.6 -2.15,0.4 v -2 q 2,0 2,-2 V 73 h -2"
       id="path6501"
       inkscape:connector-curvature="0"
       style="fill:#fa8132;stroke:none" />
    <path
       d="m 92.95,73 h 2 v 6.95 q 0,2 -2,2 V 73"
       id="path6503"
       inkscape:connector-curvature="0"
       style="fill:#e86a17;stroke:none" />
    <path
       d="m 92.95,62 v -2 q 2.95,0 4.45,1.6 1.55,1.45 1.55,4.4 v 13.95 q 0,1.75 -0.55,3 l -1,1.45 -0.55,0.5 q -1.45,1.05 -3.9,1.05 v -2 l 2.15,-0.4 0.85,-0.6 q 1,-1 1,-3 V 66 q 0,-4 -4,-4"
       id="path6505"
       inkscape:connector-curvature="0"
       style="fill:#cd5d12;stroke:none" />
  </g>
  <g
     id="prog-red-h"
     inkscape:label="#g8782">
    <path
       d="m 83,83.95 v 2 H 67 v -2 H 83 M 67,62 v -2 h 16 v 2 H 67"
       id="path6507"
       inkscape:connector-curvature="0"
       style="fill:#cd5d12;stroke:none" />
    <path
       d="M 67,62 H 83 V 73 H 67 V 62 m 16,19.95 v 2 H 67 v -2 h 16"
       id="path6509"
       inkscape:connector-curvature="0"
       style="fill:#fa8132;stroke:none" />
    <path
       d="M 83,81.95 H 67 V 73 h 16 v 8.95"
       id="path6511"
       inkscape:connector-curvature="0"
       style="fill:#e86a17;stroke:none" />
  </g>
  <g
     id="prog-grey-left"
     inkscape:label="#g8925">
    <path
       d="m 55,260.2 1.95,-0.2 v 25.95 L 55,285.75 q -1.55,-0.35 -2.45,-1.35 l -1.05,-1.45 q -0.55,-1.25 -0.55,-3 V 266 q 0,-2.95 1.6,-4.4 0.9,-1.05 2.45,-1.4"
       id="path6513"
       inkscape:connector-curvature="0"
       style="fill:#000000;fill-opacity:0.2;stroke:none" />
  </g>
  <g
     id="prog-grey-h"
     inkscape:label="#g8928">
    <path
       d="M 83,285.95 H 67 V 260 h 16 v 25.95"
       id="path6515"
       inkscape:connector-curvature="0"
       style="fill:#000000;fill-opacity:0.2;stroke:none" />
  </g>
  <g
     id="prog-grey-right"
     inkscape:label="#g8931">
    <path
       d="m 96.85,284.9 q -1.45,1.05 -3.9,1.05 V 260 q 2.95,0 4.45,1.6 1.55,1.45 1.55,4.4 v 13.95 q 0,1.75 -0.55,3 l -1,1.45 -0.55,0.5"
       id="path6517"
       inkscape:connector-curvature="0"
       style="fill:#000000;fill-opacity:0.2;stroke:none" />
  </g>
  <g
     id="prog-red-left"
     inkscape:label="#g8777">
    <path
       d="m 56.95,81.95 q -1.7,0 -1.95,-1.4 l -0.05,-0.6 V 73 h 2 v 8.95"
       id="path6519"
       inkscape:connector-curvature="0"
       style="fill:#e86a17;stroke:none" />
    <path
       d="m 56.95,81.95 v 2 L 55,83.65 53.95,82.95 q -1,-1 -1,-3 V 66 q 0,-2.85 2.05,-3.65 L 56.95,62 v 11 h -2 v 6.95 l 0.05,0.6 q 0.25,1.4 1.95,1.4"
       id="path6521"
       inkscape:connector-curvature="0"
       style="fill:#fa8132;stroke:none" />
    <path
       d="M 56.95,62 55,62.35 q -2.05,0.8 -2.05,3.65 v 13.95 q 0,2 1,3 l 1.05,0.7 1.95,0.3 v 2 L 55,85.75 Q 53.45,85.4 52.55,84.4 L 51.5,82.95 q -0.55,-1.25 -0.55,-3 V 66 q 0,-2.95 1.6,-4.4 0.9,-1.05 2.45,-1.4 L 56.95,60 v 2"
       id="path6523"
       inkscape:connector-curvature="0"
       style="fill:#cd5d12;stroke:none" />
  </g>
  <g
     id="prog-blue-left"
     inkscape:label="#g8807">
    <path
       d="m 56.95,123.95 v 2 L 55,125.75 q -1.55,-0.35 -2.45,-1.35 l -1.05,-1.45 q -0.55,-1.25 -0.55,-3 V 106 q 0,-2.95 1.6,-4.4 0.9,-1.05 2.45,-1.4 l 1.95,-0.2 v 2 L 55,102.35 q -2.05,0.8 -2.05,3.65 v 13.95 q 0,2 1,3 l 1.05,0.7 1.95,0.3"
       id="path6525"
       inkscape:connector-curvature="0"
       style="fill:#1989b8;stroke:none" />
    <path
       d="m 56.95,123.95 -1.95,-0.3 -1.05,-0.7 q -1,-1 -1,-3 V 106 q 0,-2.85 2.05,-3.65 L 56.95,102 v 11 h -2 v 6.95 l 0.05,0.6 q 0.25,1.4 1.95,1.4 v 2"
       id="path6527"
       inkscape:connector-curvature="0"
       style="fill:#35baf3;stroke:none" />
    <path
       d="m 56.95,113 v 8.95 q -1.7,0 -1.95,-1.4 l -0.05,-0.6 V 113 h 2"
       id="path6529"
       inkscape:connector-curvature="0"
       style="fill:#1ea7e1;stroke:none" />
  </g>
  <g
     id="prog-blue-h"
     inkscape:label="#g8812">
    <path
       d="m 83,102 v 11 H 67 v -11 h 16 m 0,19.95 v 2 H 67 v -2 h 16"
       id="path6531"
       inkscape:connector-curvature="0"
       style="fill:#35baf3;stroke:none" />
    <path
       d="M 83,121.95 H 67 V 113 h 16 v 8.95"
       id="path6533"
       inkscape:connector-curvature="0"
       style="fill:#1ea7e1;stroke:none" />
    <path
       d="m 67,102 v -2 h 16 v 2 H 67 m 16,21.95 v 2 H 67 v -2 h 16"
       id="path6535"
       inkscape:connector-curvature="0"
       style="fill:#1989b8;stroke:none" />
  </g>
  <g
     id="prog-blue-right"
     inkscape:label="#g8817">
    <path
       d="m 92.95,123.95 2.15,-0.4 0.85,-0.6 q 1,-1 1,-3 V 106 q 0,-4 -4,-4 v -2 q 2.95,0 4.45,1.6 1.55,1.45 1.55,4.4 v 13.95 q 0,1.75 -0.55,3 l -1,1.45 -0.55,0.5 q -1.45,1.05 -3.9,1.05 v -2"
       id="path6537"
       inkscape:connector-curvature="0"
       style="fill:#1989b8;stroke:none" />
    <path
       d="m 92.95,123.95 v -2 q 2,0 2,-2 V 113 h -2 v -11 q 4,0 4,4 v 13.95 q 0,2 -1,3 l -0.85,0.6 -2.15,0.4"
       id="path6539"
       inkscape:connector-curvature="0"
       style="fill:#35baf3;stroke:none" />
    <path
       d="m 92.95,113 h 2 v 6.95 q 0,2 -2,2 V 113"
       id="path6541"
       inkscape:connector-curvature="0"
       style="fill:#1ea7e1;stroke:none" />
  </g>
  <g
     id="prog-yellow-left"
     inkscape:label="#g8837">
    <path
       d="M 56.95,142 55,142.35 q -2.05,0.8 -2.05,3.65 v 13.95 q 0,2 1,3 l 1.05,0.7 1.95,0.3 v 2 L 55,165.75 q -1.55,-0.35 -2.45,-1.35 l -1.05,-1.45 q -0.55,-1.25 -0.55,-3 V 146 q 0,-2.95 1.6,-4.4 0.9,-1.05 2.45,-1.4 l 1.95,-0.2 v 2"
       id="path6543"
       inkscape:connector-curvature="0"
       style="fill:#cda400;stroke:none" />
    <path
       d="m 56.95,142 v 11 h -2 v 6.95 l 0.05,0.6 q 0.25,1.4 1.95,1.4 v 2 l -1.95,-0.3 -1.05,-0.7 q -1,-1 -1,-3 V 146 q 0,-2.85 2.05,-3.65 L 56.95,142"
       id="path6545"
       inkscape:connector-curvature="0"
       style="fill:#ffd948;stroke:none" />
    <path
       d="m 56.95,161.95 q -1.7,0 -1.95,-1.4 l -0.05,-0.6 V 153 h 2 v 8.95"
       id="path6547"
       inkscape:connector-curvature="0"
       style="fill:#ffcc00;stroke:none" />
  </g>
  <g
     id="prog-yellow-h"
     inkscape:label="#g8842">
    <path
       d="m 67,142 v -2 h 16 v 2 H 67 m 16,21.95 v 2 H 67 v -2 h 16"
       id="path6549"
       inkscape:connector-curvature="0"
       style="fill:#cda400;stroke:none" />
    <path
       d="m 83,153 v 8.95 H 67 V 153 h 16"
       id="path6551"
       inkscape:connector-curvature="0"
       style="fill:#ffcc00;stroke:none" />
    <path
       d="M 83,153 H 67 v -11 h 16 v 11 m 0,8.95 v 2 H 67 v -2 h 16"
       id="path6553"
       inkscape:connector-curvature="0"
       style="fill:#ffd948;stroke:none" />
  </g>
  <g
     id="prog-yellow-right"
     inkscape:label="#g8847">
    <path
       d="m 92.95,142 v -2 q 2.95,0 4.45,1.6 1.55,1.45 1.55,4.4 v 13.95 q 0,1.75 -0.55,3 l -1,1.45 -0.55,0.5 q -1.45,1.05 -3.9,1.05 v -2 l 2.15,-0.4 0.85,-0.6 q 1,-1 1,-3 V 146 q 0,-4 -4,-4"
       id="path6555"
       inkscape:connector-curvature="0"
       style="fill:#cda400;stroke:none" />
    <path
       d="m 92.95,142 q 4,0 4,4 v 13.95 q 0,2 -1,3 l -0.85,0.6 -2.15,0.4 v -2 q 2,0 2,-2 V 153 h -2 v -11"
       id="path6557"
       inkscape:connector-curvature="0"
       style="fill:#ffd948;stroke:none" />
    <path
       d="M 92.95,161.95 V 153 h 2 v 6.95 q 0,2 -2,2"
       id="path6559"
       inkscape:connector-curvature="0"
       style="fill:#ffcc00;stroke:none" />
  </g>
  <g
     id="prog-green-right"
     inkscape:label="#g8877">
    <path
       d="m 92.95,182 v -2 q 2.95,0 4.45,1.6 1.55,1.45 1.55,4.4 v 13.95 q 0,1.75 -0.55,3 l -1,1.45 -0.55,0.5 q -1.45,1.05 -3.9,1.05 v -2 l 2.15,-0.4 0.85,-0.6 q 1,-1 1,-3 V 186 q 0,-4 -4,-4"
       id="path6561"
       inkscape:connector-curvature="0"
       style="fill:#5fb13a;stroke:none" />
    <path
       d="m 92.95,203.95 v -2 q 2,0 2,-2 V 193 h -2 v -11 q 4,0 4,4 v 13.95 q 0,2 -1,3 l -0.85,0.6 -2.15,0.4"
       id="path6563"
       inkscape:connector-curvature="0"
       style="fill:#88e060;stroke:none" />
    <path
       d="M 92.95,201.95 V 193 h 2 v 6.95 q 0,2 -2,2"
       id="path6565"
       inkscape:connector-curvature="0"
       style="fill:#73cd4b;stroke:none" />
  </g>
  <g
     id="prog-green-h"
     inkscape:label="#g8872">
    <path
       d="m 67,182 v -2 h 16 v 2 H 67 m 16,21.95 v 2 H 67 v -2 h 16"
       id="path6567"
       inkscape:connector-curvature="0"
       style="fill:#5fb13a;stroke:none" />
    <path
       d="M 83,203.95 H 67 v -2 h 16 v 2 M 67,193 v -11 h 16 v 11 H 67"
       id="path6569"
       inkscape:connector-curvature="0"
       style="fill:#88e060;stroke:none" />
    <path
       d="m 67,193 h 16 v 8.95 H 67 V 193"
       id="path6571"
       inkscape:connector-curvature="0"
       style="fill:#73cd4b;stroke:none" />
  </g>
  <g
     id="prog-green-left"
     inkscape:label="#g8867">
    <path
       d="m 56.95,203.95 v 2 L 55,205.75 q -1.55,-0.35 -2.45,-1.35 l -1.05,-1.45 q -0.55,-1.25 -0.55,-3 V 186 q 0,-2.95 1.6,-4.4 0.9,-1.05 2.45,-1.4 l 1.95,-0.2 v 2 L 55,182.35 q -2.05,0.8 -2.05,3.65 v 13.95 q 0,2 1,3 l 1.05,0.7 1.95,0.3"
       id="path6573"
       inkscape:connector-curvature="0"
       style="fill:#5fb13a;stroke:none" />
    <path
       d="m 56.95,203.95 -1.95,-0.3 -1.05,-0.7 q -1,-1 -1,-3 V 186 q 0,-2.85 2.05,-3.65 L 56.95,182 v 11 h -2 v 6.95 l 0.05,0.6 q 0.25,1.4 1.95,1.4 v 2"
       id="path6575"
       inkscape:connector-curvature="0"
       style="fill:#88e060;stroke:none" />
    <path
       d="m 56.95,193 v 8.95 q -1.7,0 -1.95,-1.4 l -0.05,-0.6 V 193 h 2"
       id="path6577"
       inkscape:connector-curvature="0"
       style="fill:#73cd4b;stroke:none" />
  </g>
  <g
     id="prog-white-left"
     inkscape:label="#g8897">
    <path
       d="M 56.95,222 55,222.35 q -2.05,0.8 -2.05,3.65 v 13.95 q 0,2 1,3 l 1.05,0.7 1.95,0.3 v 2 L 55,245.75 q -1.55,-0.35 -2.45,-1.35 l -1.05,-1.45 q -0.55,-1.25 -0.55,-3 V 226 q 0,-2.95 1.6,-4.4 0.9,-1.05 2.45,-1.4 l 1.95,-0.2 v 2"
       id="path6579"
       inkscape:connector-curvature="0"
       style="fill:#b6b6b6;stroke:none" />
    <path
       d="m 56.95,222 v 11 h -2 v 6.95 l 0.05,0.6 q 0.25,1.4 1.95,1.4 v 2 l -1.95,-0.3 -1.05,-0.7 q -1,-1 -1,-3 V 226 q 0,-2.85 2.05,-3.65 L 56.95,222"
       id="path6581"
       inkscape:connector-curvature="0"
       style="fill:#ffffff;stroke:none" />
    <path
       d="m 56.95,241.95 q -1.7,0 -1.95,-1.4 l -0.05,-0.6 V 233 h 2 v 8.95"
       id="path6583"
       inkscape:connector-curvature="0"
       style="fill:#ececec;stroke:none" />
  </g>
  <g
     id="prog-white-h"
     inkscape:label="#g8902">
    <path
       d="m 67,222 v -2 h 16 v 2 H 67 m 16,21.95 v 2 H 67 v -2 h 16"
       id="path6585"
       inkscape:connector-curvature="0"
       style="fill:#b6b6b6;stroke:none" />
    <path
       d="M 83,243.95 H 67 v -2 h 16 v 2 M 83,222 v 11 H 67 v -11 h 16"
       id="path6587"
       inkscape:connector-curvature="0"
       style="fill:#ffffff;stroke:none" />
    <path
       d="m 83,233 v 8.95 H 67 V 233 h 16"
       id="path6589"
       inkscape:connector-curvature="0"
       style="fill:#ececec;stroke:none" />
  </g>
  <g
     id="prog-white-right"
     inkscape:label="#g8907">
    <path
       d="m 92.95,243.95 2.15,-0.4 0.85,-0.6 q 1,-1 1,-3 V 226 q 0,-4 -4,-4 v -2 q 2.95,0 4.45,1.6 1.55,1.45 1.55,4.4 v 13.95 q 0,1.75 -0.55,3 l -1,1.45 -0.55,0.5 q -1.45,1.05 -3.9,1.05 v -2"
       id="path6591"
       inkscape:connector-curvature="0"
       style="fill:#b6b6b6;stroke:none" />
    <path
       d="M 92.95,241.95 V 233 h 2 v 6.95 q 0,2 -2,2"
       id="path6593"
       inkscape:connector-curvature="0"
       style="fill:#ececec;stroke:none" />
    <path
       d="m 92.95,243.95 v -2 q 2,0 2,-2 V 233 h -2 v -11 q 4,0 4,4 v 13.95 q 0,2 -1,3 l -0.85,0.6 -2.15,0.4"
       id="path6595"
       inkscape:connector-curvature="0"
       style="fill:#ffffff;stroke:none" />
  </g>
  <g
     id="prog-red-top"
     inkscape:label="#g8792">
    <path
       d="m 344,65 h -2 l 0.2,-1.95 q 0.35,-1.55 1.35,-2.45 0.6,-0.65 1.45,-1.05 1.25,-0.55 3,-0.55 h 13.95 q 2.95,0 4.4,1.6 1.05,0.9 1.4,2.45 l 0.2,1.95 h -2 q 0,-1.15 -0.35,-1.95 Q 364.8,61 361.95,61 H 348 q -2,0 -3,1 -0.45,0.45 -0.7,1.05 -0.3,0.8 -0.3,1.95"
       id="path6597"
       inkscape:connector-curvature="0"
       style="fill:#cd5d12;stroke:none" />
    <path
       d="M 354.95,65 H 346 q 0,-1.7 1.4,-1.95 L 348,63 h 6.95 v 2"
       id="path6599"
       inkscape:connector-curvature="0"
       style="fill:#e86a17;stroke:none" />
    <path
       d="M 354.95,65 V 63 H 348 l -0.6,0.05 Q 346,63.3 346,65 h -2 q 0,-1.15 0.3,-1.95 0.25,-0.6 0.7,-1.05 1,-1 3,-1 h 13.95 q 2.85,0 3.65,2.05 0.35,0.8 0.35,1.95 h -11"
       id="path6601"
       inkscape:connector-curvature="0"
       style="fill:#fa8132;stroke:none" />
  </g>
  <g
     id="prog-red-bottom"
     inkscape:label="#g8802">
    <path
       d="m 365.95,101 h 2 q 0,2.95 -1.6,4.45 -1.45,1.55 -4.4,1.55 H 348 q -1.75,0 -3,-0.55 l -1.45,-1 -0.5,-0.55 Q 342,103.45 342,101 h 2 q 0,1.25 0.4,2.15 L 345,104 q 1,1 3,1 h 13.95 q 4,0 4,-4"
       id="path6603"
       inkscape:connector-curvature="0"
       style="fill:#cd5d12;stroke:none" />
    <path
       d="m 346,101 h 8.95 v 2 H 348 q -2,0 -2,-2"
       id="path6605"
       inkscape:connector-curvature="0"
       style="fill:#e86a17;stroke:none" />
    <path
       d="m 346,101 q 0,2 2,2 h 6.95 v -2 h 11 q 0,4 -4,4 H 348 q -2,0 -3,-1 l -0.6,-0.85 Q 344,102.25 344,101 h 2"
       id="path6607"
       inkscape:connector-curvature="0"
       style="fill:#fa8132;stroke:none" />
  </g>
  <g
     id="prog-blue-bottom"
     inkscape:label="#g8832">
    <path
       d="m 325.95,101 h 2 q 0,2.95 -1.6,4.45 -1.45,1.55 -4.4,1.55 H 308 l -3,-0.55 -1.45,-1 -0.5,-0.55 Q 302,103.45 302,101 h 2 q 0,1.25 0.4,2.15 L 305,104 q 1,1 3,1 h 13.95 q 4,0 4,-4"
       id="path6609"
       inkscape:connector-curvature="0"
       style="fill:#1989b8;stroke:none" />
    <path
       d="m 306,101 h 8.95 v 2 H 308 q -2,0 -2,-2"
       id="path6611"
       inkscape:connector-curvature="0"
       style="fill:#1ea7e1;stroke:none" />
    <path
       d="m 306,101 q 0,2 2,2 h 6.95 v -2 h 11 q 0,4 -4,4 H 308 q -2,0 -3,-1 l -0.6,-0.85 Q 304,102.25 304,101 h 2"
       id="path6613"
       inkscape:connector-curvature="0"
       style="fill:#35baf3;stroke:none" />
  </g>
  <g
     id="prog-yellow-bottom"
     inkscape:label="#g8862">
    <path
       d="m 285.95,101 h 2 q 0,2.95 -1.6,4.45 -1.45,1.55 -4.4,1.55 H 268 q -1.75,0 -3,-0.55 l -1.45,-1 -0.5,-0.55 Q 262,103.45 262,101 h 2 q 0,1.25 0.4,2.15 L 265,104 q 1,1 3,1 h 13.95 q 4,0 4,-4"
       id="path6615"
       inkscape:connector-curvature="0"
       style="fill:#cda400;stroke:none" />
    <path
       d="m 266,101 h 8.95 v 2 H 268 q -2,0 -2,-2"
       id="path6617"
       inkscape:connector-curvature="0"
       style="fill:#ffcc00;stroke:none" />
    <path
       d="m 266,101 q 0,2 2,2 h 6.95 v -2 h 11 q 0,4 -4,4 H 268 q -2,0 -3,-1 l -0.6,-0.85 Q 264,102.25 264,101 h 2"
       id="path6619"
       inkscape:connector-curvature="0"
       style="fill:#ffd948;stroke:none" />
  </g>
  <g
     id="prog-green-bottom"
     inkscape:label="#g8892">
    <path
       d="m 234.95,101 v 2 H 228 q -2,0 -2,-2 h 8.95"
       id="path6621"
       inkscape:connector-curvature="0"
       style="fill:#73cd4b;stroke:none" />
    <path
       d="m 234.95,101 h 11 q 0,4 -4,4 H 228 q -2,0 -3,-1 l -0.6,-0.85 Q 224,102.25 224,101 h 2 q 0,2 2,2 h 6.95 v -2"
       id="path6623"
       inkscape:connector-curvature="0"
       style="fill:#88e060;stroke:none" />
    <path
       d="m 224,101 q 0,1.25 0.4,2.15 L 225,104 q 1,1 3,1 h 13.95 q 4,0 4,-4 h 2 q 0,2.95 -1.6,4.45 -1.45,1.55 -4.4,1.55 H 228 q -1.75,0 -3,-0.55 l -1.45,-1 -0.5,-0.55 Q 222,103.45 222,101 h 2"
       id="path6625"
       inkscape:connector-curvature="0"
       style="fill:#5fb13a;stroke:none" />
  </g>
  <g
     id="prog-white-bottom"
     inkscape:label="#g8922">
    <path
       d="m 205.95,101 h 2 q 0,2.95 -1.6,4.45 -1.45,1.55 -4.4,1.55 H 188 l -3,-0.55 -1.45,-1 -0.5,-0.55 Q 182,103.45 182,101 h 2 q 0,1.25 0.4,2.15 L 185,104 q 1,1 3,1 h 13.95 q 4,0 4,-4"
       id="path6627"
       inkscape:connector-curvature="0"
       style="fill:#b6b6b6;stroke:none" />
    <path
       d="m 186,101 h 8.95 v 2 H 188 q -2,0 -2,-2"
       id="path6629"
       inkscape:connector-curvature="0"
       style="fill:#ececec;stroke:none" />
    <path
       d="m 186,101 q 0,2 2,2 h 6.95 v -2 h 11 q 0,4 -4,4 H 188 q -2,0 -3,-1 l -0.6,-0.85 Q 184,102.25 184,101 h 2"
       id="path6631"
       inkscape:connector-curvature="0"
       style="fill:#ffffff;stroke:none" />
  </g>
  <g
     id="prog-grey-bottom"
     inkscape:label="#g8940">
    <path
       d="M 166.35,105.45 Q 164.9,107 161.95,107 H 148 q -1.75,0 -3,-0.55 l -1.45,-1 -0.5,-0.55 Q 142,103.45 142,101 h 25.95 q 0,2.95 -1.6,4.45"
       id="path6633"
       inkscape:connector-curvature="0"
       style="fill:#000000;fill-opacity:0.2;stroke:none" />
  </g>
  <g
     id="prog-grey-v"
     inkscape:label="#g8937">
    <path
       d="M 167.95,91.05 H 142 v -16 h 25.95 v 16"
       id="path6635"
       inkscape:connector-curvature="0"
       style="fill:#000000;fill-opacity:0.2;stroke:none" />
  </g>
  <g
     id="prog-white-v"
     inkscape:label="#g8917">
    <path
       d="m 184,91.05 h -2 v -16 h 2 v 16 m 21.95,-16 h 2 v 16 h -2 v -16"
       id="path6637"
       inkscape:connector-curvature="0"
       style="fill:#b6b6b6;stroke:none" />
    <path
       d="m 186,75.05 h 8.95 v 16 H 186 v -16"
       id="path6639"
       inkscape:connector-curvature="0"
       style="fill:#ececec;stroke:none" />
    <path
       d="m 186,75.05 v 16 h -2 v -16 h 2 m 8.95,0 h 11 v 16 h -11 v -16"
       id="path6641"
       inkscape:connector-curvature="0"
       style="fill:#ffffff;stroke:none" />
  </g>
  <g
     id="prog-green-v"
     inkscape:label="#g8887">
    <path
       d="m 245.95,75.05 h 2 v 16 h -2 v -16 m -21.95,16 h -2 v -16 h 2 v 16"
       id="path6643"
       inkscape:connector-curvature="0"
       style="fill:#5fb13a;stroke:none" />
    <path
       d="m 224,91.05 v -16 h 2 v 16 h -2 m 21.95,0 h -11 v -16 h 11 v 16"
       id="path6645"
       inkscape:connector-curvature="0"
       style="fill:#88e060;stroke:none" />
    <path
       d="M 234.95,91.05 H 226 v -16 h 8.95 v 16"
       id="path6647"
       inkscape:connector-curvature="0"
       style="fill:#73cd4b;stroke:none" />
  </g>
  <g
     id="prog-yellow-v"
     inkscape:label="#g8857">
    <path
       d="m 264,91.05 h -2 v -16 h 2 v 16 m 21.95,-16 h 2 v 16 h -2 v -16"
       id="path6649"
       inkscape:connector-curvature="0"
       style="fill:#cda400;stroke:none" />
    <path
       d="m 266,75.05 h 8.95 v 16 H 266 v -16"
       id="path6651"
       inkscape:connector-curvature="0"
       style="fill:#ffcc00;stroke:none" />
    <path
       d="m 266,75.05 v 16 h -2 v -16 h 2 m 8.95,0 h 11 v 16 h -11 v -16"
       id="path6653"
       inkscape:connector-curvature="0"
       style="fill:#ffd948;stroke:none" />
  </g>
  <g
     id="prog-blue-v"
     inkscape:label="#g8827">
    <path
       d="m 325.95,75.05 h 2 v 16 h -2 v -16 m -21.95,16 h -2 v -16 h 2 v 16"
       id="path6655"
       inkscape:connector-curvature="0"
       style="fill:#1989b8;stroke:none" />
    <path
       d="m 304,91.05 v -16 h 2 v 16 h -2 m 21.95,-16 v 16 h -11 v -16 h 11"
       id="path6657"
       inkscape:connector-curvature="0"
       style="fill:#35baf3;stroke:none" />
    <path
       d="M 314.95,91.05 H 306 v -16 h 8.95 v 16"
       id="path6659"
       inkscape:connector-curvature="0"
       style="fill:#1ea7e1;stroke:none" />
  </g>
  <g
     id="prog-red-v"
     inkscape:label="#g8797">
    <path
       d="m 344,75.05 v 16 h -2 v -16 h 2 m 21.95,0 h 2 v 16 h -2 v -16"
       id="path6661"
       inkscape:connector-curvature="0"
       style="fill:#cd5d12;stroke:none" />
    <path
       d="m 365.95,75.05 v 16 h -11 v -16 h 11 m -21.95,16 v -16 h 2 v 16 h -2"
       id="path6663"
       inkscape:connector-curvature="0"
       style="fill:#fa8132;stroke:none" />
    <path
       d="m 346,91.05 v -16 h 8.95 v 16 H 346"
       id="path6665"
       inkscape:connector-curvature="0"
       style="fill:#e86a17;stroke:none" />
  </g>
  <g
     id="prog-blue-top"
     inkscape:label="#g8822">
    <path
       d="m 304,65 h -2 l 0.2,-1.95 q 0.35,-1.55 1.35,-2.45 L 305,59.55 Q 306.25,59 308,59 h 13.95 q 2.95,0 4.4,1.6 1.05,0.9 1.4,2.45 l 0.2,1.95 h -2 q 0,-1.15 -0.35,-1.95 Q 324.8,61 321.95,61 H 308 q -2,0 -3,1 l -0.7,1.05 Q 304,63.85 304,65"
       id="path6667"
       inkscape:connector-curvature="0"
       style="fill:#1989b8;stroke:none" />
    <path
       d="m 304,65 q 0,-1.15 0.3,-1.95 L 305,62 q 1,-1 3,-1 h 13.95 q 2.85,0 3.65,2.05 0.35,0.8 0.35,1.95 h -11 V 63 H 308 l -0.6,0.05 Q 306,63.3 306,65 h -2"
       id="path6669"
       inkscape:connector-curvature="0"
       style="fill:#35baf3;stroke:none" />
    <path
       d="M 314.95,65 H 306 q 0,-1.7 1.4,-1.95 L 308,63 h 6.95 v 2"
       id="path6671"
       inkscape:connector-curvature="0"
       style="fill:#1ea7e1;stroke:none" />
  </g>
  <g
     id="prog-yellow-top"
     inkscape:label="#g8852">
    <path
       d="m 264,65 h -2 l 0.2,-1.95 q 0.35,-1.55 1.35,-2.45 L 265,59.55 Q 266.25,59 268,59 h 13.95 q 2.95,0 4.4,1.6 1.05,0.9 1.4,2.45 l 0.2,1.95 h -2 q 0,-1.15 -0.35,-1.95 Q 284.8,61 281.95,61 H 268 q -2,0 -3,1 l -0.7,1.05 Q 264,63.85 264,65"
       id="path6673"
       inkscape:connector-curvature="0"
       style="fill:#cda400;stroke:none" />
    <path
       d="m 264,65 q 0,-1.15 0.3,-1.95 L 265,62 q 1,-1 3,-1 h 13.95 q 2.85,0 3.65,2.05 0.35,0.8 0.35,1.95 h -11 V 63 H 268 l -0.6,0.05 Q 266,63.3 266,65 h -2"
       id="path6675"
       inkscape:connector-curvature="0"
       style="fill:#ffd948;stroke:none" />
    <path
       d="M 274.95,65 H 266 q 0,-1.7 1.4,-1.95 L 268,63 h 6.95 v 2"
       id="path6677"
       inkscape:connector-curvature="0"
       style="fill:#ffcc00;stroke:none" />
  </g>
  <g
     id="prog-green-top"
     inkscape:label="#g8882">
    <path
       d="m 245.95,65 q 0,-1.15 -0.35,-1.95 Q 244.8,61 241.95,61 H 228 q -2,0 -3,1 -0.45,0.45 -0.7,1.05 -0.3,0.8 -0.3,1.95 h -2 l 0.2,-1.95 0.05,-0.2 q 0.35,-1.4 1.3,-2.25 0.6,-0.65 1.45,-1.05 1.25,-0.55 3,-0.55 h 13.95 q 2.95,0 4.4,1.6 1.05,0.9 1.4,2.45 l 0.2,1.95 h -2"
       id="path6679"
       inkscape:connector-curvature="0"
       style="fill:#5fb13a;stroke:none" />
    <path
       d="m 245.95,65 h -11 V 63 H 228 l -0.6,0.05 Q 226,63.3 226,65 h -2 q 0,-1.15 0.3,-1.95 0.25,-0.6 0.7,-1.05 1,-1 3,-1 h 13.95 q 2.85,0 3.65,2.05 0.35,0.8 0.35,1.95"
       id="path6681"
       inkscape:connector-curvature="0"
       style="fill:#88e060;stroke:none" />
    <path
       d="m 226,65 q 0,-1.7 1.4,-1.95 L 228,63 h 6.95 v 2 H 226"
       id="path6683"
       inkscape:connector-curvature="0"
       style="fill:#73cd4b;stroke:none" />
  </g>
  <g
     id="prog-white-top"
     inkscape:label="#g8912">
    <path
       d="m 184,65 h -2 l 0.05,-0.95 0.15,-1 q 0.35,-1.55 1.35,-2.45 0.6,-0.65 1.45,-1.05 1.25,-0.55 3,-0.55 h 13.95 q 2.95,0 4.4,1.6 1.05,0.9 1.4,2.45 l 0.15,1 0.05,0.95 h -2 l -0.05,-0.95 -0.3,-1 Q 204.8,61 201.95,61 H 188 q -2,0 -3,1 l -0.7,1.05 -0.25,1 L 184,65"
       id="path6685"
       inkscape:connector-curvature="0"
       style="fill:#b6b6b6;stroke:none" />
    <path
       d="m 184,65 0.05,-0.95 0.25,-1 L 185,62 q 1,-1 3,-1 h 13.95 q 2.85,0 3.65,2.05 l 0.3,1 0.05,0.95 h -11 V 63 H 188 l -0.6,0.05 q -0.95,0.15 -1.25,1 Q 186,64.45 186,65 h -2"
       id="path6687"
       inkscape:connector-curvature="0"
       style="fill:#ffffff;stroke:none" />
    <path
       d="M 194.95,65 H 186 q 0,-0.55 0.15,-0.95 0.3,-0.85 1.25,-1 L 188,63 h 6.95 v 2"
       id="path6689"
       inkscape:connector-curvature="0"
       style="fill:#ececec;stroke:none" />
  </g>
  <g
     id="prog-grey-top"
     inkscape:label="#g8934">
    <path
       d="M 167.95,65 H 142 l 0.2,-1.95 q 0.35,-1.55 1.35,-2.45 L 145,59.55 Q 146.25,59 148,59 h 13.95 q 2.95,0 4.4,1.6 1.05,0.9 1.4,2.45 l 0.2,1.95"
       id="path6691"
       inkscape:connector-curvature="0"
       style="fill:#000000;fill-opacity:0.2;stroke:none" />
  </g>
  <g
     id="dialog-5"
     inkscape:label="#g7028">
    <path
       d="m 507.05,172 q -3.2,0 -4.35,2 -0.7,1.2 -0.7,3.05 v 85.85 q 0,5.1 5.05,5.1 h 79.45 q 0.85,0 1.4,-0.55 l 9.5,-9.5 q 0.6,-0.6 0.6,-1.45 v -79.45 q 0,-1.85 -0.7,-3.05 -1.15,-2 -4.35,-2 h -85.9 m -6.1,1 q 1.6,-3 6.1,-3 h 85.9 q 4.5,0 6.05,3 1,1.55 1,4.05 v 79.45 q 0,1.65 -1.15,2.85 l -9.5,9.5 h -0.05 q -1.15,1.15 -2.8,1.15 h -79.45 q -3.5,0 -5.2,-1.85 -1.85,-1.7 -1.85,-5.25 v -85.85 q 0,-2.5 0.95,-4.05"
       id="path6693"
       inkscape:connector-curvature="0"
       style="fill:#8ac2d4;fill-opacity:0.8;stroke:none" />
    <path
       d="m 504,177.05 q 0,-3 2.9,-3.05 h 86.15 q 2.95,0.05 2.95,3.05 v 79.45 l -9.5,9.5 H 507.05 Q 504,266 504,262.9 v -85.85"
       id="path6695"
       inkscape:connector-curvature="0"
       style="fill:#aae9ff;fill-opacity:0.30196078;stroke:none" />
    <path
       d="m 504,177.05 v 85.85 q 0,3.1 3.05,3.1 h 79.45 l 9.5,-9.5 v -79.45 q 0,-3 -2.95,-3.05 H 506.9 q -2.9,0.05 -2.9,3.05 m 3.05,-5.05 h 85.9 q 3.2,0 4.35,2 0.7,1.2 0.7,3.05 v 79.45 q 0,0.85 -0.6,1.45 l -9.5,9.5 Q 587.35,268 586.5,268 H 507.05 Q 502,268 502,262.9 v -85.85 q 0,-1.85 0.7,-3.05 1.15,-2 4.35,-2"
       id="path6697"
       inkscape:connector-curvature="0"
       style="fill:#bde7f5;fill-opacity:0.8;stroke:none" />
  </g>
  <g
     id="dialog-6"
     inkscape:label="#g7033">
    <path
       d="m 702.95,174 q 3,0 3.05,2.9 v 86.15 Q 705.95,266 702.95,266 H 623.5 l -9.5,-9.5 v -79.45 q 0,-3.05 3.1,-3.05 h 85.85"
       id="path6699"
       inkscape:connector-curvature="0"
       style="fill:#aae9ff;fill-opacity:0.30196078;stroke:none" />
    <path
       d="M 702.95,174 H 617.1 q -3.1,0 -3.1,3.05 v 79.45 l 9.5,9.5 h 79.45 q 3,0 3.05,-2.95 V 176.9 q -0.05,-2.9 -3.05,-2.9 m 5.05,3.05 v 85.9 q 0,3.2 -2,4.35 -1.2,0.7 -3.05,0.7 H 623.5 q -0.85,0 -1.45,-0.6 l -9.5,-9.5 Q 612,257.35 612,256.5 v -79.45 q 0,-5.05 5.1,-5.05 h 85.85 q 1.85,0 3.05,0.7 2,1.15 2,4.35"
       id="path6701"
       inkscape:connector-curvature="0"
       style="fill:#bde7f5;fill-opacity:0.8;stroke:none" />
    <path
       d="m 708,177.05 q 0,-3.2 -2,-4.35 -1.2,-0.7 -3.05,-0.7 H 617.1 q -5.1,0 -5.1,5.05 v 79.45 q 0,0.85 0.55,1.4 l 9.5,9.5 q 0.6,0.6 1.45,0.6 h 79.45 q 1.85,0 3.05,-0.7 2,-1.15 2,-4.35 v -85.9 m 2,0 v 85.9 q 0,4.5 -3,6.05 -1.55,1 -4.05,1 H 623.5 q -1.65,0 -2.85,-1.15 l -9.5,-9.5 V 259.3 Q 610,258.15 610,256.5 v -79.45 q 0,-3.5 1.85,-5.2 1.7,-1.85 5.25,-1.85 h 85.85 q 2.5,0 4.05,0.95 3,1.6 3,6.1"
       id="path6703"
       inkscape:connector-curvature="0"
       style="fill:#8ac2d4;fill-opacity:0.8;stroke:none" />
  </g>
  <g
     id="dialog-7"
     inkscape:label="#g7038">
    <path
       d="m 820,177.1 v 85.85 q 0,2.5 -0.95,4.05 -1.6,3 -6.1,3 h -85.9 q -4.5,0 -6.05,-3 -1,-1.55 -1,-4.05 V 183.5 q 0,-1.65 1.15,-2.85 l 9.5,-9.5 h 0.05 q 1.15,-1.15 2.8,-1.15 h 79.45 q 3.5,0 5.2,1.85 1.85,1.7 1.85,5.25 m -2,0 q 0,-5.1 -5.05,-5.1 H 733.5 q -0.85,0 -1.4,0.55 l -9.5,9.5 q -0.6,0.6 -0.6,1.45 v 79.45 q 0,1.85 0.7,3.05 1.15,2 4.35,2 h 85.9 q 3.2,0 4.35,-2 0.7,-1.2 0.7,-3.05 V 177.1"
       id="path6705"
       inkscape:connector-curvature="0"
       style="fill:#8ac2d4;fill-opacity:0.8;stroke:none" />
    <path
       d="M 812.95,174 H 733.5 l -9.5,9.5 v 79.45 q 0,3 2.95,3.05 h 86.15 q 2.9,-0.05 2.9,-3.05 V 177.1 q 0,-3.1 -3.05,-3.1 m 5.05,3.1 v 85.85 q 0,1.85 -0.7,3.05 -1.15,2 -4.35,2 h -85.9 q -3.2,0 -4.35,-2 -0.7,-1.2 -0.7,-3.05 V 183.5 q 0,-0.85 0.6,-1.45 l 9.5,-9.5 q 0.55,-0.55 1.4,-0.55 h 79.45 q 5.05,0 5.05,5.1"
       id="path6707"
       inkscape:connector-curvature="0"
       style="fill:#bde7f5;fill-opacity:0.8;stroke:none" />
    <path
       d="m 812.95,174 q 3.05,0 3.05,3.1 v 85.85 q 0,3 -2.9,3.05 H 726.95 Q 724,265.95 724,262.95 V 183.5 l 9.5,-9.5 h 79.45"
       id="path6709"
       inkscape:connector-curvature="0"
       style="fill:#aae9ff;fill-opacity:0.30196078;stroke:none" />
  </g>
  <g
     id="dialog-8"
     inkscape:label="#g7043">
    <path
       d="m 837.05,172 q -5.05,0 -5.05,5.05 v 85.9 q 0,5.05 5.05,5.05 h 85.85 q 5.1,0 5.1,-5.05 v -85.9 Q 928,172 922.9,172 h -85.85 m 0,-2 h 85.85 q 3.55,0 5.25,1.85 1.85,1.7 1.85,5.2 v 85.9 q 0,3.5 -1.85,5.2 -1.7,1.85 -5.25,1.85 H 837.05 Q 830,270 830,262.95 v -85.9 q 0,-7.05 7.05,-7.05"
       id="path6711"
       inkscape:connector-curvature="0"
       style="fill:#8ac2d4;fill-opacity:0.8;stroke:none" />
    <path
       d="m 834,180.95 v 78.15 q 0.05,2.9 3.05,2.9 h 85.85 q 3.05,0 3.1,-2.9 V 180.95 Q 925.95,178 922.9,178 h -85.85 q -3,0 -3.05,2.95 m 3.05,-8.95 h 85.85 q 5.1,0 5.1,5.05 v 85.9 q 0,5.05 -5.1,5.05 H 837.05 Q 832,268 832,262.95 v -85.9 q 0,-5.05 5.05,-5.05"
       id="path6713"
       inkscape:connector-curvature="0"
       style="fill:#bde7f5;fill-opacity:0.8;stroke:none" />
    <path
       d="m 834,180.95 q 0.05,-2.95 3.05,-2.95 h 85.85 q 3.05,0 3.1,2.95 v 78.15 q -0.05,2.9 -3.1,2.9 h -85.85 q -3,0 -3.05,-2.9 v -78.15"
       id="path6715"
       inkscape:connector-curvature="0"
       style="fill:#aae9ff;fill-opacity:0.30196078;stroke:none" />
  </g>
  <g
     id="dialog-4"
     inkscape:label="#g7023">
    <path
       d="M 928,67.05 Q 928,62 922.9,62 H 837.05 Q 832,62 832,67.05 v 85.9 q 0,5.05 5.05,5.05 h 85.85 q 5.1,0 5.1,-5.05 v -85.9 m 2,0 v 85.9 q 0,3.5 -1.85,5.2 -1.7,1.85 -5.25,1.85 H 837.05 Q 830,160 830,152.95 V 67.05 Q 830,60 837.05,60 h 85.85 q 3.55,0 5.25,1.85 1.85,1.7 1.85,5.2"
       id="path6717"
       inkscape:connector-curvature="0"
       style="fill:#8ac2d4;fill-opacity:0.8;stroke:none" />
    <path
       d="m 922.9,64 q 3.1,0 3.1,3.05 v 85.9 q 0,3.05 -3.1,3.05 H 837.05 Q 834,156 834,152.95 V 67.05 Q 834,64 837.05,64 h 85.85"
       id="path6719"
       inkscape:connector-curvature="0"
       style="fill:#aae9ff;fill-opacity:0.30196078;stroke:none" />
    <path
       d="M 922.9,64 H 837.05 Q 834,64 834,67.05 v 85.9 q 0,3.05 3.05,3.05 h 85.85 q 3.1,0 3.1,-3.05 V 67.05 Q 926,64 922.9,64 m 5.1,3.05 v 85.9 q 0,5.05 -5.1,5.05 H 837.05 Q 832,158 832,152.95 V 67.05 Q 832,62 837.05,62 h 85.85 q 5.1,0 5.1,5.05"
       id="path6721"
       inkscape:connector-curvature="0"
       style="fill:#bde7f5;fill-opacity:0.8;stroke:none" />
  </g>
  <g
     id="dialog-3"
     inkscape:label="#g7018">
    <path
       d="M 812.9,62 H 797.6 L 786.2,50.6 Q 785.6,50 784.75,50 h -51 q -0.85,0 -1.4,0.6 -0.6,0.55 -0.6,1.4 v 10 h -4.7 Q 722,62 722,67.05 v 85.9 q 0,5.05 5.05,5.05 h 85.85 q 5.1,0 5.1,-5.05 V 67.05 Q 818,62 812.9,62 m 5.25,-0.15 q 1.85,1.7 1.85,5.2 v 85.9 q 0,3.5 -1.85,5.2 -1.7,1.85 -5.25,1.85 H 727.05 Q 720,160 720,152.95 V 67.05 Q 720,60 727.05,60 h 2.7 v -8 q 0,-1.65 1.15,-2.8 l 0.05,-0.05 Q 732.1,48 733.75,48 h 51 q 1.65,0 2.85,1.15 L 798.45,60 h 14.45 q 3.55,0 5.25,1.85"
       id="path6723"
       inkscape:connector-curvature="0"
       style="fill:#8ac2d4;fill-opacity:0.8;stroke:none" />
    <path
       d="m 812.9,62 q 5.1,0 5.1,5.05 v 85.9 q 0,5.05 -5.1,5.05 H 727.05 Q 722,158 722,152.95 V 67.05 Q 722,62 727.05,62 h 4.7 V 52 q 0,-0.85 0.6,-1.4 0.55,-0.6 1.4,-0.6 h 51 q 0.85,0 1.45,0.6 L 797.6,62 h 15.3 m 3.1,5.05 Q 816,64 812.9,64 h -16.15 l -12,-12 h -51 v 12 h -6.7 Q 724,64 724,67.05 v 85.9 q 0,3.05 3.05,3.05 h 85.85 q 3.1,0 3.1,-3.05 v -85.9"
       id="path6725"
       inkscape:connector-curvature="0"
       style="fill:#bde7f5;fill-opacity:0.8;stroke:none" />
    <path
       d="m 816,67.05 v 85.9 q 0,3.05 -3.1,3.05 H 727.05 Q 724,156 724,152.95 V 67.05 Q 724,64 727.05,64 h 6.7 V 52 h 51 l 12,12 h 16.15 q 3.1,0 3.1,3.05"
       id="path6727"
       inkscape:connector-curvature="0"
       style="fill:#aae9ff;fill-opacity:0.30196078;stroke:none" />
  </g>
  <g
     id="dialog-2"
     inkscape:label="#g7013">
    <path
       d="m 710,74 v 72 q 0,1.65 -1.15,2.85 l -10,10 Q 697.65,160 696,160 h -72 q -1.65,0 -2.8,-1.15 h -0.05 l -10,-10 Q 610,147.65 610,146 V 74 q 0,-1.65 1.15,-2.8 v -0.05 l 10,-10 h 0.05 Q 622.35,60 624,60 h 72 q 1.65,0 2.85,1.15 l 10,10 V 71.2 Q 710,72.35 710,74 m -2,0 q 0,-0.85 -0.55,-1.4 l -10,-10 Q 696.85,62 696,62 h -72 q -0.85,0 -1.4,0.6 l -10,10 Q 612,73.15 612,74 v 72 q 0,0.85 0.6,1.45 l 10,10 q 0.55,0.55 1.4,0.55 h 72 q 0.85,0 1.45,-0.55 l 10,-10 Q 708,146.85 708,146 V 74"
       id="path6729"
       inkscape:connector-curvature="0"
       style="fill:#8ac2d4;fill-opacity:0.8;stroke:none" />
    <path
       d="m 708,74 v 72 q 0,0.85 -0.55,1.45 l -10,10 Q 696.85,158 696,158 h -72 q -0.85,0 -1.4,-0.55 l -10,-10 Q 612,146.85 612,146 V 74 q 0,-0.85 0.6,-1.4 l 10,-10 Q 623.15,62 624,62 h 72 q 0.85,0 1.45,0.6 l 10,10 Q 708,73.15 708,74 M 696,64 h -72 l -10,10 v 72 l 10,10 h 72 l 10,-10 V 74 L 696,64"
       id="path6731"
       inkscape:connector-curvature="0"
       style="fill:#bde7f5;fill-opacity:0.8;stroke:none" />
    <path
       d="m 696,64 10,10 v 72 l -10,10 H 624 L 614,146 V 74 l 10,-10 h 72"
       id="path6733"
       inkscape:connector-curvature="0"
       style="fill:#aae9ff;fill-opacity:0.30196078;stroke:none" />
  </g>
  <g
     id="dialog-1"
     inkscape:label="#g7008">
    <path
       d="m 586.5,64 9.5,9.5 v 79.45 q 0,3.05 -3.1,3.05 h -85.85 q -3,0 -3.05,-2.9 V 66.95 Q 504.05,64 507.05,64 h 79.45"
       id="path6735"
       inkscape:connector-curvature="0"
       style="fill:#aae9ff;fill-opacity:0.30196078;stroke:none" />
    <path
       d="m 586.5,64 h -79.45 q -3,0 -3.05,2.95 v 86.15 q 0.05,2.9 3.05,2.9 h 85.85 q 3.1,0 3.1,-3.05 V 73.5 L 586.5,64 m 11.5,9.5 v 79.45 q 0,5.05 -5.1,5.05 h -85.85 q -1.85,0 -3.05,-0.7 -2,-1.15 -2,-4.35 v -85.9 q 0,-3.2 2,-4.35 1.2,-0.7 3.05,-0.7 h 79.45 q 0.85,0 1.45,0.6 l 9.5,9.5 q 0.55,0.55 0.55,1.4"
       id="path6737"
       inkscape:connector-curvature="0"
       style="fill:#bde7f5;fill-opacity:0.8;stroke:none" />
    <path
       d="m 598,73.5 q 0,-0.85 -0.55,-1.4 l -9.5,-9.5 Q 587.35,62 586.5,62 h -79.45 q -1.85,0 -3.05,0.7 -2,1.15 -2,4.35 v 85.9 q 0,3.2 2,4.35 1.2,0.7 3.05,0.7 h 85.85 q 5.1,0 5.1,-5.05 V 73.5 m 0.85,-2.85 v 0.05 q 1.15,1.15 1.15,2.8 v 79.45 q 0,3.5 -1.85,5.2 -1.7,1.85 -5.25,1.85 h -85.85 q -2.5,0 -4.05,-0.95 -3,-1.6 -3,-6.1 v -85.9 q 0,-4.5 3,-6.05 1.55,-1 4.05,-1 h 79.45 q 1.65,0 2.85,1.15 l 9.5,9.5"
       id="path6739"
       inkscape:connector-curvature="0"
       style="fill:#8ac2d4;fill-opacity:0.8;stroke:none" />
  </g>
</svg>
